<svg width="18" height="17" viewBox="0 0 18 17" fill="none" xmlns="http://www.w3.org/2000/svg">
<path d="M3.29037 2.64349C3.3223 1.95889 3.60741 1.31057 4.09037 0.824321C4.34779 0.564064 4.65411 0.357258 4.99172 0.215793C5.32934 0.0743286 5.69158 0.000995267 6.05764 1.00607e-05C6.42369 -0.000975145 6.78633 0.0704072 7.1247 0.210053C7.46307 0.349698 7.7705 0.554852 8.02931 0.813719C8.28812 1.07259 8.49321 1.38006 8.63279 1.71846C8.77236 2.05686 8.84366 2.41951 8.8426 2.78556C8.84154 3.15162 8.76813 3.51385 8.62659 3.85143C8.48505 4.18902 8.27818 4.49529 8.01787 4.75265L12.6004 9.33599C12.8577 9.07568 13.164 8.86881 13.5016 8.72727C13.8392 8.58573 14.2014 8.51232 14.5675 8.51126C14.9335 8.5102 15.2962 8.5815 15.6346 8.72108C15.973 8.86065 16.2804 9.06574 16.5393 9.32455C16.7982 9.58336 17.0033 9.89079 17.143 10.2292C17.2826 10.5675 17.354 10.9302 17.353 11.2962C17.352 11.6623 17.2787 12.0245 17.1372 12.3621C16.9958 12.6998 16.789 13.0061 16.5287 13.2635C16.0237 13.7685 15.3704 14.0285 14.7095 14.0635C14.6745 14.7243 14.4145 15.3768 13.9095 15.8827C13.6521 16.1429 13.3458 16.3497 13.0082 16.4912C12.6706 16.6326 12.3083 16.706 11.9423 16.707C11.5762 16.708 11.2136 16.6366 10.8752 16.4969C10.5368 16.3573 10.2294 16.1521 9.9706 15.8933C9.71179 15.6344 9.5067 15.3269 9.36713 14.9885C9.22756 14.6501 9.15625 14.2875 9.15731 13.9214C9.15837 13.5554 9.23179 13.1931 9.37332 12.8555C9.51486 12.518 9.72173 12.2117 9.98204 11.9543L5.39954 7.37182C5.14218 7.63213 4.83591 7.839 4.49832 7.98054C4.16074 8.12208 3.7985 8.19549 3.43245 8.19655C3.0664 8.19761 2.70374 8.12631 2.36534 7.98673C2.02694 7.84716 1.71947 7.64207 1.4606 7.38326C1.20174 7.12445 0.996584 6.81702 0.856939 6.47865C0.717295 6.14028 0.64591 5.77764 0.646896 5.41158C0.647882 5.04553 0.721216 4.68328 0.86268 4.34567C1.00414 4.00806 1.21095 3.70174 1.47121 3.44432C1.95714 2.96078 2.60559 2.67532 3.29037 2.64349Z" fill="#FF6E40"/>
</svg>
