<svg width="26" height="21" viewBox="0 0 26 21" fill="none" xmlns="http://www.w3.org/2000/svg">
    <path d="M11.6264 16.2C11.6264 14.895 11.2664 13.785 10.5464 12.87C9.45141 11.49 7.33641 11.325 6.10641 11.595C5.59641 8.7 8.05641 5.01 11.2364 3.42L8.79141 0C3.99141 2.28 -0.718586 7.53 0.0914139 14.145C0.601414 18.33 3.01641 21.09 6.43641 21.09C7.93641 21.09 9.18141 20.655 10.1564 19.77C11.1464 18.885 11.6264 17.7 11.6264 16.2ZM25.7714 16.2C25.7714 14.895 25.4114 13.785 24.6914 12.87C23.5964 11.49 21.4814 11.325 20.2514 11.595C19.7414 8.7 22.2014 5.01 25.3814 3.42L22.9364 0C18.1364 2.28 13.4264 7.53 14.2364 14.145C14.7464 18.33 17.1614 21.09 20.5814 21.09C22.0814 21.09 23.3264 20.655 24.3014 19.77C25.2914 18.885 25.7714 17.7 25.7714 16.2Z" fill="#FF6E40"/>
</svg>
