<svg width="20" height="20" viewBox="0 0 20 20" fill="none" xmlns="http://www.w3.org/2000/svg">
    <path fill-rule="evenodd" clip-rule="evenodd" d="M18.1558 11.8752C16.6221 14.1752 14.0258 16.7139 9.99957 19.3752C5.97332 16.7139 3.37707 14.1752 1.84332 11.8752H4.99957C5.12439 11.8752 5.24634 11.8378 5.34971 11.7678C5.45308 11.6979 5.53314 11.5985 5.57957 11.4827L7.40082 6.93019L9.39832 13.9214C9.43404 14.0468 9.50807 14.1579 9.61005 14.2391C9.71203 14.3203 9.83685 14.3676 9.96705 14.3744C10.0972 14.3811 10.2263 14.347 10.3361 14.2768C10.446 14.2065 10.5311 14.1037 10.5796 13.9827L12.6383 8.83519L14.4796 11.5977C14.5367 11.6831 14.6141 11.7532 14.7048 11.8016C14.7955 11.85 14.8968 11.8753 14.9996 11.8752H18.1558ZM18.9008 10.6252C23.0321 2.72519 14.4871 -1.87481 10.2196 2.05394C10.1446 2.12269 10.0708 2.19394 9.99957 2.26769C9.92904 2.19401 9.85566 2.12312 9.77957 2.05519C5.51207 -1.87481 -3.03293 2.72519 1.09957 10.6252H4.57832L6.92082 4.76769C6.96931 4.64667 7.05443 4.54385 7.16427 4.47361C7.2741 4.40337 7.40315 4.36924 7.53334 4.37599C7.66354 4.38274 7.78837 4.43004 7.89035 4.51126C7.99233 4.59248 8.06636 4.70355 8.10207 4.82894L10.0983 11.8202L11.9196 7.26769C11.962 7.16208 12.0324 7.07006 12.1233 7.00155C12.2142 6.93304 12.322 6.89065 12.4353 6.87894C12.5485 6.86724 12.6627 6.88666 12.7657 6.93512C12.8687 6.98359 12.9564 7.05925 13.0196 7.15394L15.3346 10.6252H18.8996H18.9008Z" fill="#FF6E40"/>
</svg>
