<svg width="15" height="14" viewBox="0 0 15 14" fill="none" xmlns="http://www.w3.org/2000/svg">
<path d="M2.5 0.75C1.83696 0.75 1.20107 1.01339 0.732233 1.48223C0.263392 1.95107 0 2.58696 0 3.25V3.50125L7.5 7.54L15 3.5025V3.25C15 2.58696 14.7366 1.95107 14.2678 1.48223C13.7989 1.01339 13.163 0.75 12.5 0.75H2.5ZM15 4.92125L7.79625 8.8C7.7052 8.84901 7.60341 8.87467 7.5 8.87467C7.39659 8.87467 7.2948 8.84901 7.20375 8.8L0 4.92125V10.75C0 11.413 0.263392 12.0489 0.732233 12.5178C1.20107 12.9866 1.83696 13.25 2.5 13.25H12.5C13.163 13.25 13.7989 12.9866 14.2678 12.5178C14.7366 12.0489 15 11.413 15 10.75V4.92125Z" fill="#FF6E40"/>
</svg>
