<svg width="37" height="36" viewBox="0 0 37 36" fill="none" xmlns="http://www.w3.org/2000/svg">
<path d="M0.5 12.075C0.5 7.80382 0.5 5.66823 1.3444 4.04269C2.05597 2.67287 3.17287 1.55597 4.54269 0.844399C6.16823 0 8.30382 0 12.575 0H24.425C28.6962 0 30.8318 0 32.4573 0.844399C33.8271 1.55597 34.944 2.67287 35.6556 4.04269C36.5 5.66823 36.5 7.80382 36.5 12.075V23.925C36.5 28.1962 36.5 30.3318 35.6556 31.9573C34.944 33.3271 33.8271 34.444 32.4573 35.1556C30.8318 36 28.6962 36 24.425 36H12.575C8.30382 36 6.16823 36 4.54269 35.1556C3.17287 34.444 2.05597 33.3271 1.3444 31.9573C0.5 30.3318 0.5 28.1962 0.5 23.925V12.075Z" fill="url(#paint0_linear_0_744)"/>
<path d="M25.5 23L26.3 18H21.5V14.5C21.5 13.1 22 12 24.2 12H26.5V7.4C25.2 7.2 23.8 7 22.5 7C18.4 7 15.5 9.5 15.5 14V18H11V23H15.5V36C17.5 36 19.5 36 21.5 36V23H25.5Z" fill="#F5F0E1"/>
<defs>
<linearGradient id="paint0_linear_0_744" x1="18.5" y1="34.9482" x2="18.5" y2="0" gradientUnits="userSpaceOnUse">
<stop stop-color="#FF6E40"/>
<stop offset="1" stop-color="#FF6E40"/>
</linearGradient>
</defs>
</svg>
