<svg width="20" height="20" viewBox="0 0 20 20" fill="none" xmlns="http://www.w3.org/2000/svg">
<path fill-rule="evenodd" clip-rule="evenodd" d="M9.99984 0.643555C15.1587 0.643555 19.3398 4.83297 19.3398 10C19.3398 15.1671 15.1575 19.3565 9.99984 19.3565C4.8422 19.3565 0.659843 15.1671 0.659843 10C0.659843 4.83297 4.84102 0.643555 9.99984 0.643555ZM10.581 2.98708C9.59514 2.98708 8.79396 3.7565 8.79396 4.70473C8.79396 5.65297 9.59514 6.42238 10.581 6.42238C11.5693 6.42238 12.3681 5.65297 12.3681 4.70473C12.3681 3.7565 11.5693 2.98708 10.581 2.98708ZM9.93984 18.12C13.5293 18.12 16.6375 13.4259 9.8622 9.97414C3.67867 6.82591 6.56455 1.4565 9.93984 1.76708C4.79278 1.76708 1.77631 5.42708 1.77631 9.94355C1.77514 14.46 5.43161 18.12 9.93984 18.12Z" fill="#FF6E40"/>
<path d="M9.40124 15.7459C8.43117 15.7459 7.64477 14.9848 7.64477 14.0459C7.64477 13.1071 8.43117 12.3459 9.40124 12.3459C10.3713 12.3459 11.1577 13.1071 11.1577 14.0459C11.1577 14.9848 10.3713 15.7459 9.40124 15.7459Z" fill="#FF6E40"/>
</svg>
