<svg width="18" height="24" viewBox="0 0 18 24" fill="none" xmlns="http://www.w3.org/2000/svg">
<path d="M3.77031 5.1C3.16031 5.1 2.5753 4.85768 2.14397 4.42635C1.71263 3.99501 1.47031 3.41 1.47031 2.8C1.47031 2.19 1.71263 1.60499 2.14397 1.17365C2.5753 0.742321 3.16031 0.5 3.77031 0.5C4.38031 0.5 4.96532 0.742321 5.39666 1.17365C5.82799 1.60499 6.07031 2.19 6.07031 2.8C6.07031 3.41 5.82799 3.99501 5.39666 4.42635C4.96532 4.85768 4.38031 5.1 3.77031 5.1Z" fill="#FF6E40"/>
<path d="M16.1502 3.75565C16.2169 3.72016 16.2899 3.69815 16.3651 3.69087C16.4402 3.6836 16.5161 3.69121 16.5884 3.71326C16.7343 3.75779 16.8565 3.85846 16.9282 3.99312C16.9998 4.12778 17.0151 4.28539 16.9705 4.43129C16.926 4.57719 16.8253 4.69942 16.6907 4.7711L14.5546 5.90615L15.5154 6.30865C15.6151 6.35038 15.701 6.41937 15.7633 6.50771C15.8256 6.59605 15.8617 6.70015 15.8675 6.80808C15.8734 6.91601 15.8486 7.02339 15.7962 7.11792C15.7438 7.21244 15.6658 7.29028 15.5712 7.3425L12.7324 8.9088C12.5994 8.97656 12.4454 8.99 12.3027 8.94626C12.16 8.90251 12.04 8.80503 11.9679 8.67439C11.8957 8.54375 11.8772 8.3902 11.9163 8.24617C11.9553 8.10214 12.0487 7.97892 12.1769 7.90255L13.9744 6.9101L12.9911 6.4984C12.8908 6.45632 12.8045 6.38664 12.7422 6.29745C12.6798 6.20827 12.6441 6.10323 12.6391 5.99455C12.6341 5.88586 12.6601 5.77799 12.7139 5.68346C12.7678 5.58894 12.8474 5.51163 12.9434 5.46052L16.1508 3.75565H16.1502Z" fill="#FF6E40"/>
<path d="M10.5674 8.36946C9.66579 6.89344 8.18286 5.72849 6.07031 5.72849C5.81435 5.72849 5.56571 5.81389 5.36376 5.97116C5.16181 6.12843 5.0181 6.34857 4.95539 6.59673L3.94914 10.5746L1.61809 11.5072C1.3349 11.6205 1.10831 11.8417 0.988187 12.1221C0.86806 12.4024 0.86423 12.719 0.977537 13.0022C1.09084 13.2854 1.31201 13.512 1.59237 13.6321C1.87274 13.7523 2.18935 13.7561 2.47254 13.6428L5.34754 12.4928C5.516 12.4254 5.66613 12.3191 5.78565 12.1826C5.90517 12.0461 5.9907 11.8832 6.03524 11.7073L6.46994 9.98694C6.60804 10.3222 6.73594 10.6616 6.85346 11.0047C7.36751 12.5031 7.75276 14.2517 7.79589 15.9888L7.79531 16.025V22.35C7.79531 22.655 7.91647 22.9475 8.13214 23.1632C8.34781 23.3789 8.64031 23.5 8.94531 23.5C9.25031 23.5 9.54282 23.3789 9.75848 23.1632C9.97415 22.9475 10.0953 22.655 10.0953 22.35V16.7259L10.1252 16.6874C10.3503 16.3994 10.5645 16.1031 10.7675 15.799C11.0009 15.4483 11.2505 15.0343 11.446 14.6099C11.6306 14.2097 11.8203 13.6871 11.8203 13.15C11.8203 11.5975 11.4466 9.80926 10.5674 8.36946Z" fill="#FF6E40"/>
<path d="M17.0922 9.68736C17.029 9.36536 16.734 9.15434 16.4338 9.21644L14.3259 9.65344C14.1235 9.69484 13.9625 9.85354 13.9061 10.0657C13.8509 10.2773 13.9102 10.5067 14.0608 10.6614L14.5191 11.1329L13.4047 11.4221C13.1086 11.4998 12.9309 11.8206 13.0086 12.1397C13.0862 12.4589 13.3898 12.6549 13.6865 12.5779L15.7709 12.0351C15.8689 12.0077 15.9576 11.9542 16.0275 11.8802C16.0974 11.8063 16.1458 11.7147 16.1676 11.6153C16.2176 11.4066 16.1573 11.1841 16.0106 11.0329L15.5943 10.6051L16.665 10.3837C16.9646 10.3216 17.156 10.0099 17.0922 9.68794V9.68736Z" fill="#FF6E40"/>
</svg>
