<svg width="17" height="18" viewBox="0 0 17 18" fill="none" xmlns="http://www.w3.org/2000/svg">
<path d="M11.2058 12.425L12.6058 11.025C12.7943 10.8388 13.0329 10.7113 13.2925 10.6581C13.5521 10.6048 13.8216 10.6281 14.0683 10.725L15.7745 11.4063C16.0238 11.5074 16.2375 11.6801 16.3888 11.9026C16.54 12.125 16.6221 12.3873 16.6245 12.6563V15.7813C16.6231 15.9643 16.5846 16.1451 16.5115 16.3128C16.4383 16.4805 16.3319 16.6317 16.1988 16.7573C16.0657 16.8828 15.9085 16.9801 15.7368 17.0433C15.565 17.1065 15.3823 17.1343 15.1995 17.125C3.24328 16.3813 0.830784 6.25628 0.374534 2.38128C0.353355 2.19099 0.372706 1.99837 0.431314 1.81609C0.489923 1.63382 0.586461 1.46602 0.714576 1.32374C0.842692 1.18145 0.999483 1.0679 1.17463 0.990565C1.34978 0.913227 1.53932 0.873851 1.73078 0.875026H4.74953C5.01892 0.875823 5.2819 0.957193 5.50466 1.10867C5.72742 1.26015 5.89976 1.4748 5.99953 1.72503L6.68078 3.43128C6.78094 3.67694 6.8065 3.94668 6.75425 4.20678C6.70201 4.46689 6.57428 4.70584 6.38703 4.89378L4.98703 6.29378C4.98703 6.29378 5.79328 11.75 11.2058 12.425Z" fill="#FF6E40"/>
</svg>
