<svg width="18" height="18" viewBox="0 0 18 18" fill="none" xmlns="http://www.w3.org/2000/svg">
    <path d="M8.88645 0.874962C13.456 0.813243 17.1865 4.54371 17.1247 9.11324C17.0638 13.4957 13.4954 17.064 9.11302 17.125C4.5427 17.1875 0.813017 13.457 0.875517 8.88746C0.935673 4.50426 4.50403 0.935899 8.88645 0.874962ZM9.0302 6.81676C9.022 6.76988 9.01302 6.72301 9.00247 6.67652C8.90381 6.22033 8.68398 5.79917 8.36614 5.45738C7.86262 4.92106 7.14895 4.62496 6.35637 4.62496C6.02292 4.62359 5.69174 4.67989 5.37747 4.79137C4.98681 4.93046 4.635 5.1608 4.3513 5.46324C3.93395 5.91434 3.68552 6.49593 3.64817 7.10934C3.63737 7.25758 3.63737 7.40641 3.64817 7.55465C3.67826 7.97478 3.78691 8.38553 3.96849 8.76559C3.98828 8.80699 4.00898 8.84801 4.03059 8.88863C4.07395 8.96949 4.12044 9.04879 4.17044 9.12535C4.26997 9.27821 4.38277 9.42199 4.50755 9.55504C5.02005 10.1019 5.6763 10.4039 6.35559 10.4039C6.61032 10.4037 6.86329 10.3617 7.10442 10.2796C7.18543 10.2521 7.26497 10.2205 7.3427 10.1847C7.66826 10.0328 7.96109 9.81896 8.20481 9.55504C8.71212 9.00477 9.01545 8.2972 9.06419 7.55035C9.07122 7.44931 9.07356 7.34931 9.07122 7.25035C9.0682 7.10527 9.05449 6.96061 9.0302 6.81754V6.81676ZM14.879 7.76754C14.86 7.48881 14.7912 7.21575 14.6759 6.96129C14.6434 6.89042 14.6071 6.82131 14.5673 6.75426C14.4877 6.61985 14.3935 6.49462 14.2865 6.38082C14.1279 6.21166 13.9433 6.06897 13.7396 5.95817C13.6379 5.90257 13.5319 5.85503 13.4228 5.81598C13.0045 5.66969 12.5549 5.63747 12.12 5.72262C11.6593 5.81173 11.2385 6.04415 10.9177 6.38668C10.5371 6.79758 10.3225 7.33519 10.3157 7.89527C10.3138 7.9777 10.3157 8.06051 10.3216 8.14449C10.3454 8.4661 10.4247 8.78117 10.556 9.07574C10.6188 9.21757 10.6937 9.35374 10.7798 9.48277C10.9454 9.73302 11.1538 9.95212 11.3954 10.13C11.454 10.1718 11.515 10.2109 11.5779 10.25C11.7016 10.3236 11.8324 10.3845 11.9685 10.4316C12.1719 10.5027 12.3858 10.5391 12.6013 10.5394C12.6376 10.5394 12.674 10.5394 12.7099 10.5363C12.7817 10.5324 12.8531 10.5243 12.924 10.5121C12.9944 10.4998 13.0642 10.4838 13.1329 10.464C13.2362 10.4342 13.337 10.3965 13.4345 10.3511C13.4673 10.3359 13.4993 10.3199 13.5314 10.3031C14.2345 9.93238 14.7646 9.16402 14.8685 8.26715C14.8732 8.22613 14.8771 8.18512 14.8798 8.14371C14.8886 8.01847 14.8884 7.89275 14.879 7.76754ZM12.7728 14.7441C13.8128 14.0585 14.6487 13.1051 15.1923 11.9843C15.2101 11.9485 15.2134 11.9072 15.2016 11.869C15.1899 11.8308 15.1639 11.7985 15.129 11.7789C14.4032 11.3707 13.4763 11.1484 12.6005 11.1484C11.9365 11.1484 11.4013 11.2265 10.9329 11.3781C10.8798 11.3956 10.8324 11.427 10.7956 11.469C10.7587 11.5111 10.7339 11.5622 10.7235 11.6172C10.7132 11.6721 10.7178 11.7288 10.7368 11.7814C10.7559 11.8339 10.7886 11.8804 10.8318 11.916C11.7439 12.6582 12.3318 13.5777 12.6079 14.6796C12.6121 14.6965 12.6202 14.7121 12.6316 14.7252C12.6431 14.7382 12.6575 14.7483 12.6736 14.7547C12.6898 14.761 12.7072 14.7633 12.7245 14.7615C12.7418 14.7596 12.7583 14.7537 12.7728 14.7441ZM8.99973 15.875C9.87919 15.8758 10.7506 15.7071 11.5661 15.3781C11.5995 15.3643 11.627 15.3395 11.6441 15.3077C11.6612 15.276 11.6668 15.2393 11.6599 15.2039C11.6443 15.1238 11.6271 15.0507 11.6118 14.9898C11.3337 13.8793 10.6447 12.9586 9.61966 12.3265C8.70989 11.766 7.54934 11.4574 6.35716 11.4574C5.13997 11.4574 4.01341 11.7535 3.09622 12.3132C3.07286 12.3279 3.05609 12.351 3.04946 12.3777C3.04283 12.4045 3.04685 12.4328 3.06067 12.4566C3.66553 13.4957 4.53219 14.3582 5.57425 14.9579C6.61632 15.5577 7.79739 15.8739 8.99973 15.875Z" fill="#FF6E40"/>
    <path d="M12.7107 10.5344C12.7825 10.5304 12.854 10.5223 12.9248 10.5101C12.854 10.5223 12.7825 10.5304 12.7107 10.5344Z" fill="#FF6E40"/>
    <path d="M13.7401 5.95819C13.9438 6.06899 14.1284 6.21168 14.287 6.38085C14.3941 6.49464 14.4882 6.61988 14.5679 6.75428C14.4882 6.61988 14.3941 6.49464 14.287 6.38085C14.1284 6.21168 13.9438 6.06899 13.7401 5.95819Z" fill="#FF6E40"/>
    <path d="M10.5557 9.07378C10.4244 8.7792 10.3451 8.46414 10.3213 8.14253C10.3154 8.05855 10.3135 7.97573 10.3154 7.89331C10.3133 7.97534 10.3153 8.05841 10.3213 8.14253C10.3451 8.46414 10.4244 8.7792 10.5557 9.07378Z" fill="#FF6E40"/>
    <path d="M13.7402 5.95817C13.6385 5.90257 13.5326 5.85503 13.4234 5.81598C13.5326 5.85503 13.6385 5.90257 13.7402 5.95817Z" fill="#FF6E40"/>
    <path d="M13.132 10.4621C13.2353 10.4322 13.3361 10.3945 13.4336 10.3492C13.3361 10.3945 13.2353 10.4322 13.132 10.4621Z" fill="#FF6E40"/>
    <path d="M14.8677 8.2652C14.7638 9.16364 14.2325 9.93043 13.5306 10.3011C14.2341 9.93043 14.7638 9.16207 14.8677 8.2652Z" fill="#FF6E40"/>
    <path d="M9.06436 7.55464C9.01561 8.30149 8.71229 9.00906 8.20498 9.55933C7.96126 9.82325 7.66843 10.0371 7.34287 10.189C7.66843 10.0371 7.96126 9.82325 8.20498 9.55933C8.71229 9.00906 9.01561 8.30149 9.06436 7.55464C9.07139 7.4536 9.07373 7.3536 9.07139 7.25464C9.07373 7.35229 9.07139 7.45229 9.06436 7.55464Z" fill="#FF6E40"/>
    <path d="M7.10498 10.282C7.18599 10.2545 7.26553 10.2228 7.34326 10.1871C7.26553 10.2228 7.18599 10.2545 7.10498 10.282Z" fill="#FF6E40"/>
    <path d="M9.00244 6.67733C8.90378 6.22114 8.68396 5.79998 8.36611 5.45819C8.68396 5.79998 8.90378 6.22114 9.00244 6.67733Z" fill="#FF6E40"/>
    <path d="M4.35127 5.46326C3.93392 5.91435 3.6855 6.49594 3.64814 7.10935C3.6855 6.49594 3.93392 5.91435 4.35127 5.46326C4.63498 5.16082 4.98678 4.93047 5.37744 4.79138C4.98678 4.93047 4.63498 5.16082 4.35127 5.46326Z" fill="#FF6E40"/>
    <path d="M3.64795 7.55463C3.67803 7.97476 3.78668 8.38551 3.96826 8.76556C3.78668 8.38551 3.67803 7.97476 3.64795 7.55463Z" fill="#FF6E40"/>
    <path d="M9.07178 7.25272C9.06874 7.10685 9.0549 6.9614 9.03037 6.81757C9.0549 6.9614 9.06874 7.10685 9.07178 7.25272Z" fill="#FF6E40"/>
    <path d="M10.9183 6.3847C10.5376 6.79561 10.3231 7.33322 10.3163 7.8933C10.3231 7.33322 10.5376 6.79561 10.9183 6.3847C11.239 6.04217 11.6599 5.80976 12.1206 5.72064C11.6599 5.80976 11.239 6.04217 10.9183 6.3847Z" fill="#FF6E40"/>
    <path d="M11.5776 10.2499C11.7013 10.3236 11.8322 10.3845 11.9683 10.4316C11.8322 10.3845 11.7013 10.3236 11.5776 10.2499Z" fill="#FF6E40"/>
    <path d="M14.8789 7.76755C14.8599 7.48883 14.7911 7.21576 14.6758 6.9613C14.7911 7.21576 14.8599 7.48883 14.8789 7.76755Z" fill="#FF6E40"/>
    <path d="M11.3948 10.1281C11.4538 10.1719 11.5147 10.2109 11.5776 10.25C11.5147 10.2109 11.4538 10.1719 11.3948 10.1281Z" fill="#FF6E40"/>
    <path d="M10.5555 9.07379C10.6183 9.21561 10.6932 9.35179 10.7793 9.48082C10.6932 9.35179 10.6183 9.21561 10.5555 9.07379Z" fill="#FF6E40"/>
    <path d="M14.6758 6.9613C14.6432 6.89043 14.607 6.82133 14.5672 6.75427C14.607 6.82133 14.6432 6.89043 14.6758 6.9613Z" fill="#FF6E40"/>
    <path d="M11.395 10.1281C11.1534 9.95018 10.945 9.73108 10.7794 9.48083C10.945 9.73108 11.1534 9.95018 11.395 10.1281Z" fill="#FF6E40"/>
</svg>
