<svg width="37" height="36" viewBox="0 0 37 36" fill="none" xmlns="http://www.w3.org/2000/svg">
<g clip-path="url(#clip0_0_747)">
<path d="M0.520508 12.075C0.520508 7.80382 0.520508 5.66823 1.36491 4.04269C2.07647 2.67287 3.19338 1.55597 4.5632 0.844399C6.18874 0 8.32433 0 12.5955 0H24.4455C28.7167 0 30.8523 0 32.4778 0.844399C33.8476 1.55597 34.9645 2.67287 35.6761 4.04269C36.5205 5.66823 36.5205 7.80382 36.5205 12.075V23.925C36.5205 28.1962 36.5205 30.3318 35.6761 31.9573C34.9645 33.3271 33.8476 34.444 32.4778 35.1556C30.8523 36 28.7167 36 24.4455 36H12.5955C8.32433 36 6.18874 36 4.5632 35.1556C3.19338 34.444 2.07647 33.3271 1.36491 31.9573C0.520508 30.3318 0.520508 28.1962 0.520508 23.925V12.075Z" fill="#FFC13B"/>
<path d="M18.5008 4.90918C14.9456 4.90918 14.4994 4.92473 13.1031 4.98827C11.7095 5.05209 10.7583 5.27273 9.92595 5.59645C9.06498 5.93082 8.33464 6.37809 7.60702 7.106C6.87886 7.83363 6.4316 8.564 6.09616 9.42472C5.77162 10.2574 5.55072 11.2089 5.488 12.602C5.42554 13.9984 5.40918 14.4448 5.40918 18.0001C5.40918 21.5554 5.425 22.0002 5.48827 23.3965C5.55236 24.7902 5.77299 25.7414 6.09643 26.5738C6.43106 27.4348 6.87832 28.1652 7.6062 28.8928C8.33355 29.621 9.06389 30.0694 9.92432 30.4037C10.7572 30.7275 11.7087 30.9481 13.102 31.0119C14.4984 31.0755 14.9443 31.091 18.4991 31.091C22.0546 31.091 22.4994 31.0755 23.8957 31.0119C25.2893 30.9481 26.2416 30.7275 27.0745 30.4037C27.9352 30.0694 28.6645 29.621 29.3918 28.8928C30.12 28.1652 30.5672 27.4348 30.9027 26.5741C31.2245 25.7415 31.4454 24.7899 31.5108 23.3968C31.5736 22.0005 31.5899 21.5554 31.5899 18.0001C31.5899 14.4448 31.5736 13.9986 31.5108 12.6023C31.4454 11.2086 31.2245 10.2574 30.9027 9.425C30.5672 8.564 30.12 7.83363 29.3918 7.106C28.6637 6.37782 27.9355 5.93054 27.0737 5.59645C26.2392 5.27273 25.2874 5.05209 23.8938 4.98827C22.4975 4.92473 22.0529 4.90918 18.4967 4.90918H18.5008ZM17.3265 7.26827C17.675 7.26772 18.0639 7.26827 18.5008 7.26827C21.9959 7.26827 22.4102 7.28082 23.7904 7.34354C25.0668 7.40191 25.7595 7.61518 26.2209 7.79436C26.8318 8.03163 27.2673 8.31527 27.7252 8.77345C28.1834 9.23163 28.467 9.668 28.7048 10.2789C28.884 10.7398 29.0976 11.4325 29.1556 12.7089C29.2184 14.0889 29.232 14.5035 29.232 17.9971C29.232 21.4907 29.2184 21.9053 29.1556 23.2853C29.0973 24.5616 28.884 25.2544 28.7048 25.7153C28.4676 26.3262 28.1834 26.7612 27.7252 27.2191C27.2671 27.6773 26.8321 27.9609 26.2209 28.1982C25.76 28.3782 25.0668 28.5909 23.7904 28.6493C22.4105 28.712 21.9959 28.7256 18.5008 28.7256C15.0053 28.7256 14.5911 28.712 13.2111 28.6493C11.9348 28.5904 11.2421 28.3771 10.7804 28.1979C10.1695 27.9606 9.73314 27.677 9.27497 27.2188C8.8168 26.7606 8.53318 26.3254 8.29536 25.7142C8.11619 25.2533 7.90265 24.5605 7.84456 23.2842C7.78184 21.9042 7.76929 21.4896 7.76929 17.9938C7.76929 14.498 7.78184 14.0856 7.84456 12.7056C7.90292 11.4293 8.11619 10.7365 8.29536 10.2751C8.53263 9.66418 8.8168 9.22782 9.27497 8.76963C9.73314 8.31145 10.1695 8.02782 10.7804 7.79C11.2418 7.61 11.9348 7.39727 13.2111 7.33863C14.4187 7.28409 14.8867 7.26773 17.3265 7.265V7.26827ZM25.4884 9.44191C24.6211 9.44191 23.9175 10.1447 23.9175 11.0123C23.9175 11.8795 24.6211 12.5832 25.4884 12.5832C26.3556 12.5832 27.0593 11.8795 27.0593 11.0123C27.0593 10.145 26.3556 9.44136 25.4884 9.44136V9.44191ZM18.5008 11.2774C14.7883 11.2774 11.7783 14.2875 11.7783 18.0001C11.7783 21.7127 14.7883 24.7214 18.5008 24.7214C22.2133 24.7214 25.2222 21.7127 25.2222 18.0001C25.2222 14.2875 22.213 11.2774 18.5005 11.2774H18.5008ZM18.5008 13.6365C20.9105 13.6365 22.8643 15.59 22.8643 18.0001C22.8643 20.4099 20.9105 22.3637 18.5008 22.3637C16.0908 22.3637 14.1373 20.4099 14.1373 18.0001C14.1373 15.59 16.0908 13.6365 18.5008 13.6365V13.6365Z" fill="#F5F0E1"/>
</g>
<defs>
<clipPath id="clip0_0_747">
<rect width="36" height="36" fill="white" transform="translate(0.5)"/>
</clipPath>
</defs>
</svg>
