<svg width="15" height="18" viewBox="0 0 15 18" fill="none" xmlns="http://www.w3.org/2000/svg">
<path d="M7.50001 0.25C5.6773 0.25215 3.92987 0.977169 2.64102 2.26602C1.35218 3.55486 0.627158 5.3023 0.625007 7.125C0.622824 8.61452 1.10937 10.0636 2.01001 11.25C2.01001 11.25 2.19751 11.4969 2.22813 11.5325L7.50001 17.75L12.7744 11.5294C12.8019 11.4963 12.99 11.25 12.99 11.25L12.9906 11.2481C13.8908 10.0623 14.3771 8.61383 14.375 7.125C14.3729 5.3023 13.6478 3.55486 12.359 2.26602C11.0701 0.977169 9.32271 0.25215 7.50001 0.25V0.25ZM10.1313 7.56375L7.50188 10.25L4.86876 7.56375C4.5526 7.23731 4.37582 6.80069 4.37582 6.34625C4.37582 5.89181 4.5526 5.45518 4.86876 5.12875C5.0238 4.96939 5.2092 4.84272 5.41402 4.75623C5.61885 4.66974 5.83892 4.62518 6.06126 4.62518C6.28359 4.62518 6.50367 4.66974 6.70849 4.75623C6.91331 4.84272 7.09872 4.96939 7.25376 5.12875L7.50188 5.38188L7.74751 5.12875C7.90255 4.96939 8.08795 4.84272 8.29277 4.75623C8.4976 4.66974 8.71767 4.62518 8.94001 4.62518C9.16234 4.62518 9.38242 4.66974 9.58724 4.75623C9.79206 4.84272 9.97747 4.96939 10.1325 5.12875C10.4487 5.45518 10.6255 5.89181 10.6255 6.34625C10.6255 6.80069 10.4487 7.23731 10.1325 7.56375H10.1313Z" fill="#FF6E40"/>
</svg>
