<svg width="65" height="65" viewBox="0 0 65 65" fill="none" xmlns="http://www.w3.org/2000/svg">
<circle cx="32.5" cy="32.5" r="32" fill="#FFC13B"/>
<path d="M11.0361 26.7734V24.5762H15.7559V26.7734H11.0361ZM21.6973 22.291C22.4824 22.291 23.1797 22.4404 23.7891 22.7393C24.4043 23.0381 24.8877 23.4775 25.2393 24.0576C25.5908 24.6377 25.7666 25.3525 25.7666 26.2021C25.7666 27.1279 25.5732 27.9277 25.1865 28.6016C24.8057 29.2695 24.2344 29.7822 23.4727 30.1396C22.7168 30.4971 21.7734 30.6758 20.6426 30.6758C19.9688 30.6758 19.333 30.6172 18.7354 30.5C18.1436 30.3887 17.625 30.2158 17.1797 29.9814V27.6348C17.625 27.8691 18.1582 28.0684 18.7793 28.2324C19.4062 28.3906 19.9951 28.4697 20.5459 28.4697C21.085 28.4697 21.5391 28.3994 21.9082 28.2588C22.2773 28.1123 22.5557 27.8896 22.7432 27.5908C22.9365 27.2861 23.0332 26.8994 23.0332 26.4307C23.0332 25.8037 22.8223 25.3232 22.4004 24.9893C21.9785 24.6553 21.3311 24.4883 20.458 24.4883C20.124 24.4883 19.7754 24.5205 19.4121 24.585C19.0547 24.6494 18.7559 24.7139 18.5156 24.7783L17.4346 24.1982L17.918 17.6504H24.8877V19.9531H20.2998L20.0625 22.4756C20.2617 22.4346 20.4785 22.3936 20.7129 22.3525C20.9473 22.3115 21.2754 22.291 21.6973 22.291ZM36.2344 24.0752C36.2344 25.1123 36.1523 26.0381 35.9883 26.8525C35.8301 27.667 35.5723 28.3584 35.2148 28.9268C34.8633 29.4951 34.4004 29.9287 33.8262 30.2275C33.252 30.5264 32.5547 30.6758 31.7344 30.6758C30.7031 30.6758 29.8564 30.415 29.1943 29.8936C28.5322 29.3662 28.043 28.6104 27.7266 27.626C27.4102 26.6357 27.252 25.4521 27.252 24.0752C27.252 22.6865 27.3955 21.5 27.6826 20.5156C27.9756 19.5254 28.4502 18.7666 29.1064 18.2393C29.7627 17.7119 30.6387 17.4482 31.7344 17.4482C32.7598 17.4482 33.6035 17.7119 34.2656 18.2393C34.9336 18.7607 35.4287 19.5166 35.751 20.5068C36.0732 21.4912 36.2344 22.6807 36.2344 24.0752ZM29.9502 24.0752C29.9502 25.0537 30.0029 25.8711 30.1084 26.5273C30.2197 27.1777 30.4043 27.667 30.6621 27.9951C30.9199 28.3232 31.2773 28.4873 31.7344 28.4873C32.1855 28.4873 32.54 28.3262 32.7979 28.0039C33.0615 27.6758 33.249 27.1865 33.3604 26.5361C33.4717 25.8799 33.5273 25.0596 33.5273 24.0752C33.5273 23.0967 33.4717 22.2793 33.3604 21.623C33.249 20.9668 33.0615 20.4746 32.7979 20.1465C32.54 19.8125 32.1855 19.6455 31.7344 19.6455C31.2773 19.6455 30.9199 19.8125 30.6621 20.1465C30.4043 20.4746 30.2197 20.9668 30.1084 21.623C30.0029 22.2793 29.9502 23.0967 29.9502 24.0752ZM40.4883 17.4658C41.4961 17.4658 42.2607 17.8174 42.7822 18.5205C43.3037 19.2236 43.5645 20.2109 43.5645 21.4824C43.5645 22.7539 43.3184 23.7471 42.8262 24.4619C42.334 25.1768 41.5547 25.5342 40.4883 25.5342C39.498 25.5342 38.7451 25.1768 38.2295 24.4619C37.7139 23.7471 37.4561 22.7539 37.4561 21.4824C37.4561 20.2109 37.6963 19.2236 38.1768 18.5205C38.6631 17.8174 39.4336 17.4658 40.4883 17.4658ZM40.5059 19.3027C40.2188 19.3027 40.0078 19.4844 39.873 19.8477C39.7383 20.2109 39.6709 20.7617 39.6709 21.5C39.6709 22.2383 39.7383 22.792 39.873 23.1611C40.0078 23.5303 40.2188 23.7148 40.5059 23.7148C40.793 23.7148 41.0039 23.5332 41.1387 23.1699C41.2793 22.8008 41.3496 22.2441 41.3496 21.5C41.3496 20.7617 41.2793 20.2109 41.1387 19.8477C41.0039 19.4844 40.793 19.3027 40.5059 19.3027ZM49.6113 17.6504L42.4834 30.5H40.374L47.502 17.6504H49.6113ZM49.4883 22.5986C50.4961 22.5986 51.2607 22.9502 51.7822 23.6533C52.3037 24.3564 52.5645 25.3438 52.5645 26.6152C52.5645 27.8809 52.3184 28.8711 51.8262 29.5859C51.334 30.3008 50.5547 30.6582 49.4883 30.6582C48.498 30.6582 47.7451 30.3008 47.2295 29.5859C46.7139 28.8711 46.4561 27.8809 46.4561 26.6152C46.4561 25.3438 46.6963 24.3564 47.1768 23.6533C47.6631 22.9502 48.4336 22.5986 49.4883 22.5986ZM49.5059 24.4355C49.2188 24.4355 49.0078 24.6172 48.873 24.9805C48.7383 25.3438 48.6709 25.8945 48.6709 26.6328C48.6709 27.3711 48.7383 27.9248 48.873 28.2939C49.0078 28.6631 49.2188 28.8477 49.5059 28.8477C49.793 28.8477 50.0039 28.666 50.1387 28.3027C50.2793 27.9336 50.3496 27.377 50.3496 26.6328C50.3496 25.8945 50.2793 25.3438 50.1387 24.9805C50.0039 24.6172 49.793 24.4355 49.5059 24.4355Z" fill="#686868"/>
<path d="M14.9012 38.4993C14.9012 38.9415 14.8162 39.3112 14.6461 39.6084C14.4778 39.9038 14.2334 40.1267 13.9129 40.2771C13.5924 40.4257 13.2066 40.5 12.7555 40.5H11.6436V36.5737H12.8763C13.2881 36.5737 13.6453 36.6471 13.9478 36.7939C14.2504 36.939 14.4849 37.1547 14.6514 37.4412C14.818 37.7258 14.9012 38.0785 14.9012 38.4993ZM14.0365 38.5208C14.0365 38.2307 13.9935 37.9926 13.9076 37.8064C13.8234 37.6184 13.6981 37.4797 13.5316 37.3901C13.3669 37.3006 13.1628 37.2559 12.9193 37.2559H12.4762V39.8125H12.8333C13.2397 39.8125 13.5414 39.7042 13.7384 39.4875C13.9371 39.2709 14.0365 38.9486 14.0365 38.5208ZM17.9762 40.5H15.7149V36.5737H17.9762V37.2559H16.5474V38.1179H17.8768V38.8H16.5474V39.8125H17.9762V40.5ZM21.3707 36.5737C21.727 36.5737 22.0206 36.6167 22.2515 36.7026C22.4843 36.7886 22.6571 36.9184 22.7699 37.092C22.8826 37.2657 22.939 37.485 22.939 37.75C22.939 37.929 22.905 38.0857 22.837 38.22C22.769 38.3542 22.6794 38.4679 22.5684 38.561C22.4574 38.6541 22.3375 38.7302 22.2086 38.7893L23.3634 40.5H22.4395L21.5023 38.9934H21.0592V40.5H20.2266V36.5737H21.3707ZM21.3116 37.2559H21.0592V38.3167H21.3277C21.6034 38.3167 21.8004 38.271 21.9185 38.1797C22.0385 38.0866 22.0985 37.9505 22.0985 37.7715C22.0985 37.5853 22.034 37.4528 21.9051 37.374C21.778 37.2952 21.5802 37.2559 21.3116 37.2559ZM26.1187 40.5H23.8575V36.5737H26.1187V37.2559H24.69V38.1179H26.0194V38.8H24.69V39.8125H26.1187V40.5ZM30.1981 38.4993C30.1981 38.9415 30.113 39.3112 29.943 39.6084C29.7747 39.9038 29.5303 40.1267 29.2098 40.2771C28.8893 40.4257 28.5035 40.5 28.0523 40.5H26.9405V36.5737H28.1732C28.585 36.5737 28.9421 36.6471 29.2447 36.7939C29.5473 36.939 29.7818 37.1547 29.9483 37.4412C30.1148 37.7258 30.1981 38.0785 30.1981 38.4993ZM29.3333 38.5208C29.3333 38.2307 29.2904 37.9926 29.2044 37.8064C29.1203 37.6184 28.995 37.4797 28.8284 37.3901C28.6637 37.3006 28.4596 37.2559 28.2161 37.2559H27.773V39.8125H28.1302C28.5366 39.8125 28.8383 39.7042 29.0352 39.4875C29.234 39.2709 29.3333 38.9486 29.3333 38.5208ZM34.2076 36.5737V39.1143C34.2076 39.3846 34.1476 39.629 34.0277 39.8474C33.9095 40.064 33.7296 40.2359 33.4879 40.363C33.248 40.4902 32.9454 40.5537 32.5802 40.5537C32.061 40.5537 31.6653 40.4212 31.3931 40.1562C31.121 39.8913 30.9849 39.5404 30.9849 39.1035V36.5737H31.8148V38.9773C31.8148 39.3014 31.881 39.5287 32.0135 39.6594C32.146 39.7901 32.342 39.8555 32.6016 39.8555C32.7843 39.8555 32.932 39.8241 33.0448 39.7615C33.1593 39.6988 33.2435 39.6021 33.2972 39.4714C33.3509 39.3407 33.3778 39.1742 33.3778 38.9719V36.5737H34.2076ZM36.8368 37.2102C36.6774 37.2102 36.536 37.2415 36.4124 37.3042C36.2907 37.3651 36.1877 37.4537 36.1036 37.5701C36.0212 37.6864 35.9586 37.827 35.9156 37.9917C35.8726 38.1564 35.8512 38.3417 35.8512 38.5476C35.8512 38.8251 35.8852 39.0623 35.9532 39.2593C36.023 39.4544 36.1305 39.6039 36.2755 39.7078C36.4205 39.8098 36.6076 39.8608 36.8368 39.8608C36.9961 39.8608 37.1554 39.8429 37.3148 39.8071C37.4759 39.7713 37.6505 39.7203 37.8385 39.6541V40.3523C37.6648 40.4239 37.4938 40.4749 37.3255 40.5054C37.1572 40.5376 36.9683 40.5537 36.7589 40.5537C36.3542 40.5537 36.0212 40.4705 35.7598 40.304C35.5002 40.1357 35.3078 39.9011 35.1825 39.6003C35.0571 39.2978 34.9945 38.9451 34.9945 38.5422C34.9945 38.245 35.0347 37.9729 35.1153 37.7258C35.1959 37.4788 35.314 37.2648 35.4698 37.084C35.6256 36.9032 35.818 36.7635 36.0472 36.665C36.2764 36.5666 36.5395 36.5173 36.8368 36.5173C37.0319 36.5173 37.227 36.5424 37.4222 36.5925C37.6191 36.6409 37.8071 36.708 37.9862 36.7939L37.7176 37.4707C37.5708 37.4009 37.4231 37.34 37.2745 37.2881C37.1259 37.2362 36.98 37.2102 36.8368 37.2102ZM40.191 40.5H39.3585V37.2666H38.2923V36.5737H41.2572V37.2666H40.191V40.5ZM41.8614 40.5V36.5737H42.6939V40.5H41.8614ZM47.2459 38.5315C47.2459 38.8341 47.2083 39.1098 47.1331 39.3586C47.0579 39.6057 46.9434 39.8188 46.7894 39.9978C46.6372 40.1768 46.4438 40.3147 46.2093 40.4114C45.9748 40.5063 45.6973 40.5537 45.3768 40.5537C45.0563 40.5537 44.7788 40.5063 44.5443 40.4114C44.3097 40.3147 44.1155 40.1768 43.9615 39.9978C43.8093 39.8188 43.6956 39.6048 43.6204 39.356C43.5452 39.1071 43.5076 38.8305 43.5076 38.5261C43.5076 38.1197 43.5739 37.7661 43.7064 37.4653C43.8407 37.1628 44.0465 36.9282 44.3241 36.7617C44.6016 36.5952 44.9543 36.512 45.3822 36.512C45.8083 36.512 46.1583 36.5952 46.4322 36.7617C46.7079 36.9282 46.912 37.1628 47.0445 37.4653C47.1788 37.7679 47.2459 38.1233 47.2459 38.5315ZM44.3805 38.5315C44.3805 38.8054 44.4145 39.0417 44.4825 39.2405C44.5523 39.4374 44.6606 39.5896 44.8075 39.697C44.9543 39.8027 45.144 39.8555 45.3768 39.8555C45.6131 39.8555 45.8047 39.8027 45.9515 39.697C46.0983 39.5896 46.2048 39.4374 46.2711 39.2405C46.3391 39.0417 46.3731 38.8054 46.3731 38.5315C46.3731 38.1197 46.2961 37.7957 46.1422 37.5593C45.9882 37.323 45.7349 37.2048 45.3822 37.2048C45.1476 37.2048 44.9561 37.2585 44.8075 37.366C44.6606 37.4716 44.5523 37.6238 44.4825 37.8225C44.4145 38.0194 44.3805 38.2558 44.3805 38.5315ZM51.5428 40.5H50.4847L48.7767 37.5298H48.7525C48.7597 37.6533 48.7659 37.7778 48.7713 37.9031C48.7767 38.0284 48.7821 38.1537 48.7874 38.2791C48.7928 38.4026 48.7982 38.527 48.8035 38.6523V40.5H48.0597V36.5737H49.1097L50.815 39.5144H50.8338C50.8302 39.3927 50.8258 39.2718 50.8204 39.1519C50.815 39.0319 50.8097 38.9119 50.8043 38.792C50.8007 38.672 50.7971 38.5521 50.7935 38.4321V36.5737H51.5428V40.5ZM21.0216 45.5315C21.0216 45.8341 20.984 46.1098 20.9088 46.3586C20.8336 46.6057 20.719 46.8188 20.565 46.9978C20.4128 47.1768 20.2195 47.3147 19.9849 47.4114C19.7504 47.5063 19.4729 47.5537 19.1524 47.5537C18.8319 47.5537 18.5544 47.5063 18.3199 47.4114C18.0854 47.3147 17.8911 47.1768 17.7371 46.9978C17.585 46.8188 17.4713 46.6048 17.3961 46.356C17.3209 46.1071 17.2833 45.8305 17.2833 45.5261C17.2833 45.1197 17.3495 44.7661 17.482 44.4653C17.6163 44.1628 17.8222 43.9282 18.0997 43.7617C18.3772 43.5952 18.7299 43.512 19.1578 43.512C19.5839 43.512 19.9339 43.5952 20.2078 43.7617C20.4836 43.9282 20.6877 44.1628 20.8201 44.4653C20.9544 44.7679 21.0216 45.1233 21.0216 45.5315ZM18.1561 45.5315C18.1561 45.8054 18.1901 46.0417 18.2581 46.2405C18.328 46.4374 18.4363 46.5896 18.5831 46.697C18.7299 46.8027 18.9197 46.8555 19.1524 46.8555C19.3888 46.8555 19.5803 46.8027 19.7271 46.697C19.8739 46.5896 19.9805 46.4374 20.0467 46.2405C20.1147 46.0417 20.1488 45.8054 20.1488 45.5315C20.1488 45.1197 20.0718 44.7957 19.9178 44.5593C19.7638 44.323 19.5105 44.2048 19.1578 44.2048C18.9233 44.2048 18.7317 44.2585 18.5831 44.366C18.4363 44.4716 18.328 44.6238 18.2581 44.8225C18.1901 45.0194 18.1561 45.2558 18.1561 45.5315ZM25.0311 43.5737V46.1143C25.0311 46.3846 24.9711 46.629 24.8512 46.8474C24.733 47.064 24.5531 47.2359 24.3114 47.363C24.0715 47.4902 23.7689 47.5537 23.4036 47.5537C22.8844 47.5537 22.4888 47.4212 22.2166 47.1562C21.9445 46.8913 21.8084 46.5404 21.8084 46.1035V43.5737H22.6383V45.9773C22.6383 46.3014 22.7045 46.5287 22.837 46.6594C22.9695 46.7901 23.1655 46.8555 23.4251 46.8555C23.6077 46.8555 23.7555 46.8241 23.8682 46.7615C23.9828 46.6988 24.067 46.6021 24.1207 46.4714C24.1744 46.3407 24.2013 46.1742 24.2013 45.9719V43.5737H25.0311ZM29.0889 44.2102C28.9296 44.2102 28.7882 44.2415 28.6646 44.3042C28.5429 44.3651 28.4399 44.4537 28.3558 44.5701C28.2734 44.6864 28.2108 44.827 28.1678 44.9917C28.1248 45.1564 28.1034 45.3417 28.1034 45.5476C28.1034 45.8251 28.1374 46.0623 28.2054 46.2593C28.2752 46.4544 28.3826 46.6039 28.5277 46.7078C28.6727 46.8098 28.8598 46.8608 29.0889 46.8608C29.2483 46.8608 29.4076 46.8429 29.567 46.8071C29.7281 46.7713 29.9027 46.7203 30.0907 46.6541V47.3523C29.917 47.4239 29.746 47.4749 29.5777 47.5054C29.4094 47.5376 29.2205 47.5537 29.0111 47.5537C28.6064 47.5537 28.2734 47.4705 28.012 47.304C27.7524 47.1357 27.56 46.9011 27.4347 46.6003C27.3093 46.2978 27.2467 45.9451 27.2467 45.5422C27.2467 45.245 27.2869 44.9729 27.3675 44.7258C27.4481 44.4788 27.5662 44.2648 27.722 44.084C27.8778 43.9032 28.0702 43.7635 28.2994 43.665C28.5286 43.5666 28.7917 43.5173 29.0889 43.5173C29.2841 43.5173 29.4792 43.5424 29.6744 43.5925C29.8713 43.6409 30.0593 43.708 30.2384 43.7939L29.9698 44.4707C29.823 44.4009 29.6753 44.34 29.5267 44.2881C29.3781 44.2362 29.2322 44.2102 29.0889 44.2102ZM32.0726 43.5737C32.4289 43.5737 32.7225 43.6167 32.9534 43.7026C33.1862 43.7886 33.359 43.9184 33.4718 44.092C33.5846 44.2657 33.6409 44.485 33.6409 44.75C33.6409 44.929 33.6069 45.0857 33.5389 45.22C33.4709 45.3542 33.3813 45.4679 33.2703 45.561C33.1593 45.6541 33.0394 45.7302 32.9105 45.7893L34.0653 47.5H33.1414L32.2042 45.9934H31.7611V47.5H30.9285V43.5737H32.0726ZM32.0135 44.2559H31.7611V45.3167H32.0296C32.3053 45.3167 32.5023 45.271 32.6204 45.1797C32.7404 45.0866 32.8004 44.9505 32.8004 44.7715C32.8004 44.5853 32.7359 44.4528 32.607 44.374C32.4799 44.2952 32.2821 44.2559 32.0135 44.2559ZM36.8206 47.5H34.5594V43.5737H36.8206V44.2559H35.3919V45.1179H36.7213V45.8H35.3919V46.8125H36.8206V47.5ZM40.9 45.4993C40.9 45.9415 40.8149 46.3112 40.6449 46.6084C40.4766 46.9038 40.2322 47.1267 39.9117 47.2771C39.5912 47.4257 39.2054 47.5 38.7542 47.5H37.6424V43.5737H38.8751C39.2869 43.5737 39.644 43.6471 39.9466 43.7939C40.2492 43.939 40.4837 44.1547 40.6502 44.4412C40.8167 44.7258 40.9 45.0785 40.9 45.4993ZM40.0352 45.5208C40.0352 45.2307 39.9923 44.9926 39.9063 44.8064C39.8222 44.6184 39.6969 44.4797 39.5304 44.3901C39.3656 44.3006 39.1615 44.2559 38.918 44.2559H38.4749V46.8125H38.8321C39.2385 46.8125 39.5402 46.7042 39.7371 46.4875C39.9359 46.2709 40.0352 45.9486 40.0352 45.5208ZM41.7137 47.5V43.5737H42.5462V47.5H41.7137ZM45.0492 47.5H44.2166V44.2666H43.1505V43.5737H46.1153V44.2666H45.0492V47.5ZM22.9014 52.4993C22.9014 52.9415 22.8164 53.3112 22.6463 53.6084C22.478 53.9038 22.2336 54.1267 21.9132 54.2771C21.5927 54.4257 21.2069 54.5 20.7557 54.5H19.6439V50.5737H20.8765C21.2883 50.5737 21.6455 50.6471 21.9481 50.7939C22.2506 50.939 22.4852 51.1547 22.6517 51.4412C22.8182 51.7258 22.9014 52.0785 22.9014 52.4993ZM22.0367 52.5208C22.0367 52.2307 21.9937 51.9926 21.9078 51.8064C21.8236 51.6184 21.6983 51.4797 21.5318 51.3901C21.3671 51.3006 21.163 51.2559 20.9195 51.2559H20.4764V53.8125H20.8336C21.24 53.8125 21.5417 53.7042 21.7386 53.4875C21.9373 53.2709 22.0367 52.9486 22.0367 52.5208ZM24.3114 50.5737L24.349 50.6328C24.3167 50.7635 24.2747 50.9032 24.2227 51.0518C24.1726 51.1986 24.1171 51.3463 24.0562 51.4949C23.9972 51.6435 23.9372 51.7849 23.8763 51.9192H23.2882C23.3132 51.8118 23.3383 51.699 23.3634 51.5808C23.3902 51.4626 23.4153 51.3445 23.4386 51.2263C23.4636 51.1082 23.486 50.9936 23.5057 50.8826C23.5254 50.7716 23.5424 50.6686 23.5567 50.5737H24.3114ZM24.9076 54.5V50.5737H25.7401V54.5H24.9076ZM28.3907 54.5L27.4454 51.4197H27.4212C27.4248 51.4931 27.4302 51.6041 27.4373 51.7527C27.4463 51.8995 27.4543 52.0562 27.4615 52.2227C27.4687 52.3892 27.4722 52.5396 27.4722 52.6738V54.5H26.7284V50.5737H27.8617L28.7909 53.5762H28.807L29.7926 50.5737H30.9259V54.5H30.1497V52.6416C30.1497 52.5181 30.1515 52.3757 30.1551 52.2146C30.1605 52.0535 30.1667 51.9004 30.1739 51.7554C30.1811 51.6086 30.1864 51.4985 30.19 51.425H30.1659L29.1534 54.5H28.3907ZM33.171 50.5737C33.6777 50.5737 34.0474 50.6829 34.2801 50.9014C34.5129 51.118 34.6292 51.417 34.6292 51.7983C34.6292 51.9702 34.6033 52.1349 34.5513 52.2925C34.4994 52.4482 34.4144 52.587 34.2962 52.7087C34.1798 52.8305 34.0241 52.9272 33.8289 52.9988C33.6338 53.0686 33.393 53.1035 33.1065 53.1035H32.7493V54.5H31.9168V50.5737H33.171ZM33.128 51.2559H32.7493V52.4214H33.0233C33.179 52.4214 33.3142 52.4008 33.4288 52.3596C33.5434 52.3184 33.632 52.254 33.6947 52.1663C33.7573 52.0785 33.7887 51.9657 33.7887 51.8279C33.7887 51.6345 33.7349 51.4913 33.6275 51.3982C33.5201 51.3033 33.3536 51.2559 33.128 51.2559ZM38.9342 52.5315C38.9342 52.8341 38.8966 53.1098 38.8214 53.3586C38.7462 53.6057 38.6316 53.8188 38.4776 53.9978C38.3254 54.1768 38.1321 54.3147 37.8975 54.4114C37.663 54.5063 37.3855 54.5537 37.065 54.5537C36.7445 54.5537 36.467 54.5063 36.2325 54.4114C35.998 54.3147 35.8037 54.1768 35.6497 53.9978C35.4976 53.8188 35.3839 53.6048 35.3087 53.356C35.2335 53.1071 35.1959 52.8305 35.1959 52.5261C35.1959 52.1197 35.2621 51.7661 35.3946 51.4653C35.5289 51.1628 35.7348 50.9282 36.0123 50.7617C36.2898 50.5952 36.6425 50.512 37.0704 50.512C37.4965 50.512 37.8465 50.5952 38.1204 50.7617C38.3962 50.9282 38.6003 51.1628 38.7327 51.4653C38.867 51.7679 38.9342 52.1233 38.9342 52.5315ZM36.0687 52.5315C36.0687 52.8054 36.1027 53.0417 36.1707 53.2405C36.2406 53.4374 36.3489 53.5896 36.4957 53.697C36.6425 53.8027 36.8323 53.8555 37.065 53.8555C37.3013 53.8555 37.4929 53.8027 37.6397 53.697C37.7865 53.5896 37.8931 53.4374 37.9593 53.2405C38.0273 53.0417 38.0614 52.8054 38.0614 52.5315C38.0614 52.1197 37.9844 51.7957 37.8304 51.5593C37.6764 51.323 37.4231 51.2048 37.0704 51.2048C36.8359 51.2048 36.6443 51.2585 36.4957 51.366C36.3489 51.4716 36.2406 51.6238 36.1707 51.8225C36.1027 52.0194 36.0687 52.2558 36.0687 52.5315ZM41.2625 54.5H40.43V51.2666H39.3638V50.5737H42.3287V51.2666H41.2625V54.5ZM45.2506 53.4097C45.2506 53.6424 45.1942 53.8447 45.0814 54.0166C44.9686 54.1885 44.8039 54.321 44.5872 54.4141C44.3724 54.5072 44.111 54.5537 43.8031 54.5537C43.667 54.5537 43.5336 54.5448 43.4029 54.5269C43.274 54.509 43.1496 54.483 43.0296 54.449C42.9115 54.4132 42.7987 54.3693 42.6912 54.3174V53.5439C42.8774 53.6263 43.0708 53.7006 43.2713 53.7668C43.4718 53.8331 43.6706 53.8662 43.8675 53.8662C44.0036 53.8662 44.1128 53.8483 44.1951 53.8125C44.2793 53.7767 44.3402 53.7275 44.3778 53.6648C44.4154 53.6021 44.4342 53.5305 44.4342 53.45C44.4342 53.3515 44.401 53.2673 44.3348 53.1975C44.2686 53.1277 44.1772 53.0623 44.0609 53.0015C43.9463 52.9406 43.8165 52.8752 43.6715 52.8054C43.5802 52.7625 43.4808 52.7105 43.3734 52.6497C43.2659 52.587 43.1639 52.5109 43.0672 52.4214C42.9705 52.3319 42.8909 52.2236 42.8282 52.0964C42.7673 51.9675 42.7369 51.8136 42.7369 51.6345C42.7369 51.4 42.7906 51.1995 42.898 51.033C43.0055 50.8665 43.1585 50.7393 43.3573 50.6516C43.5578 50.5621 43.7941 50.5173 44.0662 50.5173C44.2703 50.5173 44.4646 50.5415 44.649 50.5898C44.8352 50.6364 45.0295 50.7044 45.2318 50.7939L44.9632 51.4412C44.7824 51.3678 44.6204 51.3114 44.4771 51.272C44.3339 51.2308 44.188 51.2102 44.0394 51.2102C43.9355 51.2102 43.8469 51.2272 43.7735 51.2612C43.7001 51.2935 43.6446 51.34 43.607 51.4009C43.5694 51.46 43.5506 51.5289 43.5506 51.6077C43.5506 51.7008 43.5775 51.7795 43.6312 51.844C43.6867 51.9067 43.769 51.9675 43.8783 52.0266C43.9893 52.0857 44.1271 52.1546 44.2918 52.2334C44.4923 52.3283 44.6633 52.4277 44.8048 52.5315C44.948 52.6335 45.0581 52.7544 45.1351 52.894C45.2121 53.0319 45.2506 53.2038 45.2506 53.4097Z" fill="#686868"/>
</svg>
