<svg width="71" height="65" viewBox="0 0 71 65" fill="none" xmlns="http://www.w3.org/2000/svg">
<g clip-path="url(#clip0_8_4521)">
<path d="M2.5289 50.5378C2.35969 50.3997 2.23894 50.1999 2.1875 49.9729C2.7193 49.0411 2.61425 47.9992 2.61425 46.9794C2.61425 41.3153 2.61425 35.6561 2.61425 30.0018C2.60724 28.7472 2.71948 27.4953 2.94908 26.2673C3.15906 25.0197 3.72931 23.8834 4.57244 23.0326C5.41558 22.1819 6.48508 21.6635 7.61706 21.557C10.8997 21.0678 14.1627 20.432 17.406 19.6494C17.5252 19.6108 17.6509 19.604 17.7729 19.6295C17.8949 19.655 18.0098 19.712 18.1085 19.7961C18.2214 19.8917 18.321 20.0054 18.404 20.1336C19.6054 21.601 21.2139 21.9825 22.8816 22.1366C23.7219 22.21 24.5689 22.0926 25.4092 22.1953C25.9541 22.342 26.2562 22.8556 26.6501 23.2371C27.006 23.649 27.4686 23.9258 27.9727 24.0285C28.4768 24.1312 28.997 24.0545 29.4601 23.8094C29.917 23.626 30.305 23.2755 30.5612 22.8147C30.8175 22.3539 30.9268 21.8098 30.8716 21.2708C30.8281 21.0196 30.8509 20.7596 30.9371 20.5226C31.0234 20.2855 31.1694 20.0816 31.3574 19.9355C32.7139 18.9697 33.8404 17.6504 34.6401 16.091C34.7218 16.0417 34.8108 16.0094 34.9028 15.9956C39.0389 15.2619 43.1489 14.3081 47.2785 13.5304C52.1894 12.6059 57.1156 11.8111 62.0571 11.1459C63.7766 10.9688 65.4299 10.3185 66.8695 9.25295C67.2635 8.95213 67.6771 8.51925 68.2483 8.81273C68.5038 8.98934 68.7088 9.24391 68.8392 9.54642C68.7079 9.94262 68.3862 10.082 68.0841 10.2801C67.5528 10.6339 66.9974 10.9406 66.4231 11.1972C64.25 12.0263 63.3046 13.9633 62.7793 16.2377C61.6895 20.8893 60.8491 25.607 60.0416 30.3246C59.6279 32.7384 59.2275 35.145 58.827 37.5515C58.7482 37.999 58.7285 38.5126 58.2623 38.7474C57.8816 38.7474 57.6452 38.3439 57.271 38.3439C56.3567 38.0128 55.3885 37.9101 54.4347 38.043C53.9343 38.0418 53.4523 38.2534 53.0865 38.635C52.7206 39.0166 52.4985 39.5394 52.4651 40.0974C52.1991 41.864 52.087 43.6552 52.1303 45.446C52.301 46.5025 52.6621 46.9134 53.555 46.9134C54.4479 46.9134 55.3342 47.2142 56.2336 46.9794C56.3837 46.9231 56.5464 46.925 56.6954 46.9849C56.8443 47.0448 56.9708 47.1592 57.0543 47.3096C57.1269 47.986 57.0082 48.6708 56.7151 49.2681C56.4219 49.8654 55.9689 50.3453 55.4195 50.6405C53.4482 51.8202 51.2411 52.4211 49.0052 52.3867C45.2892 52.4748 41.5797 52.2253 37.844 52.1519C35.7103 52.1519 33.57 52.0419 31.4362 52.0346C27.6677 52.0346 23.8926 51.9098 20.1307 51.7778C16.3687 51.6457 12.6461 51.7778 8.90388 51.6457C7.92098 51.6356 6.94174 51.5102 5.98229 51.2715C4.85304 50.8973 3.66471 50.9047 2.5289 50.5378Z" fill="#1E3D59"/>
<path d="M5.56852 53.3258C4.98335 53.1279 4.45406 52.7639 4.03223 52.2693C4.19636 51.609 4.64281 51.8658 4.97107 51.9685C6.35526 52.3782 7.76717 52.6603 9.19261 52.8123C10.3415 52.937 11.4971 53.025 12.6394 53.069C16.3226 53.2084 19.9861 53.5606 23.6627 53.8027C26.5777 54.0082 29.4927 54.2356 32.4078 54.4484C35.3228 54.6612 38.3166 54.9106 41.3235 55.1087C44.7704 55.3435 48.2237 55.659 51.6837 55.5489C52.6431 55.5027 53.5842 55.2403 54.4507 54.7776C55.3171 54.3149 56.091 53.6614 56.7259 52.8563C57.4678 51.9979 58.1703 51.0954 58.8531 50.171C59.5242 49.1977 60.0415 48.1034 60.3828 46.9354C61.5908 43.2229 62.1555 39.3343 62.9367 35.5044C64.1842 29.3194 65.3528 23.0977 66.7315 16.9347C67.1534 15.3321 67.9224 13.8705 68.9703 12.6793C69.2461 12.3198 69.594 11.9456 70.1258 12.2024C70.5404 13.4854 70.6043 14.8772 70.3097 16.201C70.1652 16.0909 70.1127 15.8928 69.9157 15.6581C69.5218 16.876 69.2198 18.0426 68.9441 19.2091C67.1977 26.6414 65.8189 34.1691 64.2761 41.6455C63.9034 43.6483 63.4344 45.6272 62.8711 47.5737C62.5257 48.7788 61.9164 49.8683 61.0984 50.7432C60.2559 51.6697 59.4871 52.6762 58.8006 53.7514C58.0608 54.8717 57.0993 55.7858 55.9912 56.4222C54.883 57.0585 53.6582 57.4 52.4124 57.4198C50.4428 57.5005 48.4732 57.2217 46.5036 57.1264C44.3699 57.0236 42.2361 56.8549 40.1089 56.6715C37.555 56.4587 35.0011 56.2533 32.4537 55.9965C30.1558 55.7617 27.858 55.5929 25.5601 55.3582C22.9339 55.0867 20.3472 54.8666 17.7407 54.6245C15.6661 54.4631 13.5914 54.2796 11.5102 54.1769C9.87671 54.1236 8.25177 53.8926 6.65838 53.4872C6.30422 53.3736 5.93695 53.3192 5.56852 53.3258V53.3258Z" fill="#1E3D59"/>
<path d="M70.1262 12.2391C69.8414 12.257 69.5736 12.3962 69.3777 12.6279C68.4192 13.8458 67.4081 15.0344 67.0602 16.6926C65.5567 23.2298 64.3684 29.8477 63.0159 36.4289C62.4082 39.9291 61.6391 43.3919 60.7114 46.8033C60.1698 48.5853 59.2922 50.2166 58.1378 51.587C57.2695 52.7738 56.2625 53.825 55.144 54.7125C54.0885 55.4338 52.8815 55.8312 51.6447 55.8644C49.2023 55.9965 46.76 55.769 44.3243 55.6516C41.5865 55.5122 38.8487 55.2701 36.1176 55.0794C33.6052 54.9131 31.0929 54.7272 28.5805 54.5218C25.2978 54.2576 22.0151 53.9935 18.7324 53.7881C16.6315 53.6413 14.5372 53.5386 12.4428 53.3992C9.90859 53.2305 7.35466 53.1424 4.89921 52.262C4.61033 52.1593 4.32146 51.9538 4.05884 52.328C3.79889 52.1911 3.57333 51.9844 3.4023 51.7264C3.22504 51.1835 3.56644 51.2275 3.85532 51.2495C4.4131 51.3186 4.96308 51.4513 5.49666 51.6457C6.58337 51.9641 7.69667 52.1559 8.81874 52.218C12.3837 52.4894 15.9553 52.5041 19.5203 52.7315C22.1464 52.893 24.7726 53.0397 27.4381 53.1864C30.1037 53.3332 32.7758 53.4212 35.4348 53.6853C36.7478 53.8101 38.0215 53.8101 39.3149 53.8614C42.9915 54.0082 46.6681 54.3824 50.3578 54.2943C53.588 54.2209 56.0369 52.5114 57.9934 49.7748C58.3804 49.1046 58.6479 48.3572 58.7812 47.5737C59.6355 44.2137 60.3367 40.8074 60.8821 37.368C62.1493 30.596 63.3507 23.8021 64.7229 17.0521C65.2809 14.3081 66.9617 12.6499 69.0363 11.344C69.1472 11.2444 69.2825 11.1847 69.4244 11.1729C69.5662 11.1611 69.7079 11.1978 69.8307 11.2779C70.0285 11.5487 70.1333 11.8896 70.1262 12.2391Z" fill="#1E3D59"/>
<path d="M64.716 47.1262C64.9326 47.5737 65.3725 47.3756 65.7008 47.6104C67.3093 48.821 68.7668 50.171 69.292 52.3941C69.5855 53.414 69.6407 54.5009 69.4522 55.5514C69.2637 56.6019 68.8379 57.581 68.2153 58.3957C65.6117 61.7337 61.9783 63.853 58.039 64.3312C55.4128 64.7348 52.7867 64.2359 50.1605 63.9644C48.4273 63.7956 46.7334 63.5975 45.0133 63.3774C42.6235 63.084 40.2402 62.7685 37.8505 62.475C36.1303 62.2622 34.4036 62.0935 32.6835 61.866C30.576 61.5872 28.4751 61.2571 26.3676 60.9636C24.4308 60.6921 22.4809 60.4794 20.5441 60.1639C17.0907 59.6063 13.5848 59.2908 10.3481 57.728C9.21027 57.2502 8.22218 56.4112 7.5053 55.3142C7.38331 55.1624 7.31052 54.9692 7.29861 54.7656C7.2867 54.562 7.33637 54.3599 7.43965 54.1916C7.89266 53.7294 8.35223 54.1109 8.81181 54.1916C9.11499 54.265 9.39432 54.4299 9.61935 54.6685C10.5301 55.7542 11.7213 56.4954 13.0268 56.7889C16.2666 57.6627 19.5574 58.2805 22.8748 58.6378C26.8141 59.2101 30.7795 59.7457 34.7713 60.2446C39.1307 60.7948 43.4901 61.4038 47.8561 61.8734C50.8499 62.2035 53.8371 62.7098 56.8572 62.6071C60.3061 62.4768 63.5858 60.906 66.0487 58.2049C68.5895 55.5049 68.189 51.9612 65.2609 49.7088C64.8538 49.3933 64.322 49.2098 64.2236 48.5495C64.2432 47.9919 64.1251 47.3976 64.716 47.1262Z" fill="#DDE5F1"/>
<path d="M64.7158 47.1261C64.5318 47.5424 64.4162 47.9922 64.3744 48.4541C64.2825 48.9017 64.3744 49.3932 64.1183 49.8041C64.079 49.9215 64.0396 50.0389 63.9936 50.149C63.8934 50.3615 63.8078 50.5822 63.7376 50.8093C63.7125 50.9277 63.6773 51.0432 63.6325 51.1541C63.5209 51.4182 63.4158 51.6824 63.2845 51.9318C63.1532 52.1813 62.9366 52.5114 62.7724 52.8049C61.8526 54.3364 60.6558 55.6355 59.2593 56.6187C57.8628 57.6018 56.2975 58.2471 54.6642 58.5131C52.6929 58.6298 50.7163 58.5611 48.7554 58.3076C46.1292 58.1022 43.5031 57.8796 40.8769 57.64C38.2508 57.4003 35.6837 57.1557 33.1757 56.9063C32.0896 56.7221 30.9914 56.6411 29.8931 56.6641C27.2669 56.3927 24.6408 56.1432 22.0146 55.9305C21.2674 55.8035 20.5117 55.7494 19.7561 55.769C18.2921 55.769 16.8477 55.4389 15.3836 55.3802C14.3988 55.4242 13.4665 54.9326 12.4751 55.006C11.8186 55.0427 11.2343 54.7052 10.5974 54.8152C9.96059 54.9253 9.38941 54.3824 8.746 54.3897C8.27329 54.4557 7.85967 54.0595 7.38697 54.1989C6.75374 53.984 6.14381 53.6911 5.56836 53.3258C5.93602 52.9517 6.34307 53.1864 6.70417 53.2671C8.49062 53.6476 10.298 53.8927 12.114 54.0008C14.924 54.2356 17.7471 54.3897 20.5571 54.6832C22.2247 54.8593 23.9054 54.9767 25.5796 55.1234C28.0022 55.3215 30.4183 55.6076 32.8409 55.8571C34.3444 56.0038 35.8544 56.1359 37.3579 56.2533C40.5684 56.5101 43.7723 56.8622 46.9827 56.987C49.274 57.0603 51.5785 57.5152 53.8698 56.987C55.6736 56.5911 57.2891 55.4814 58.4196 53.8614C59.156 52.7149 59.9727 51.6354 60.8619 50.6332C62.28 49.2539 62.7593 47.3316 63.1926 45.4166C65.1622 36.6123 66.692 27.6393 68.7798 18.8423C69.0227 17.8151 69.3247 16.8026 69.607 15.7828C69.6858 15.504 69.712 15.0491 70.0797 15.1298C70.4474 15.2105 70.257 15.592 70.2898 15.8635C70.2965 15.9881 70.2965 16.1131 70.2898 16.2377C70.0337 18.8937 69.4823 21.4983 68.9767 24.1102C67.5717 31.7039 66.1208 39.2903 64.6895 46.8547C64.6889 46.946 64.6977 47.0371 64.7158 47.1261V47.1261Z" fill="#1E3D59"/>
<path d="M2.52832 50.5378C3.28694 50.4336 4.05609 50.4808 4.79994 50.6772C6.35299 51.09 7.94377 51.2993 9.54014 51.3008C11.8249 51.3008 14.1359 51.2201 16.3878 51.3008C19.8412 51.4402 23.3077 51.3008 26.7545 51.521C29.9322 51.697 33.1098 51.4549 36.2743 51.6897C38.9005 51.8951 41.566 51.6897 44.1987 51.8878C45.8499 52.032 47.5069 52.0737 49.1622 52.0125C51.1274 51.9852 53.0669 51.5083 54.8609 50.6112C55.4885 50.3306 56.0234 49.8404 56.3923 49.2075C56.7613 48.5745 56.9464 47.8297 56.9224 47.0748C56.9224 46.7299 57.1719 46.5465 57.2835 46.2751C57.579 45.5927 57.3557 45.1745 56.627 45.0498C55.7275 45.0498 54.8412 45.534 53.9286 45.1672C53.7487 45.0178 53.6266 44.7974 53.5872 44.5509C53.4428 43.8172 53.7842 43.377 54.4538 43.5384C56.9159 44.1253 58.5441 42.8781 58.1173 39.261C58.1173 39.0482 58.0188 38.8281 58.1764 38.6447C58.6032 38.2631 58.5506 37.6909 58.636 37.1773C59.8112 30.1558 60.9536 23.1271 62.5227 16.1937C62.8269 14.9204 63.3147 13.7111 63.9671 12.6132C64.2219 12.1945 64.5768 11.8641 64.9913 11.6594C66.3043 10.9257 67.5583 10.2361 68.8386 9.51706L69.436 10.4929C69.1471 10.9844 68.6416 11.0652 68.2083 11.2706C67.233 11.7094 66.362 12.3949 65.6637 13.2733C64.9654 14.1517 64.4588 15.199 64.1837 16.3331C63.0413 21.0434 62.2798 25.8344 61.4 30.5814C60.3561 36.2748 59.5617 42.0343 58.3143 47.6837C58.1343 48.6369 57.759 49.5305 57.2179 50.2943C56.6768 51.0582 55.9846 51.6714 55.1957 52.0859C53.4648 53.0827 51.5492 53.6129 49.602 53.634C46.4178 53.678 43.2468 53.5313 40.0691 53.3992C36.7864 53.2598 33.4447 53.1571 30.1291 53.025C25.6319 52.8489 21.1411 52.6288 16.6504 52.4161C13.9849 52.2913 11.3128 52.4161 8.64725 52.1446C6.98621 51.9758 5.36456 51.4989 3.76918 51.1688C3.44747 51.1101 3.11264 51.1688 2.80407 50.9046C2.7366 50.8702 2.67684 50.8195 2.62914 50.756C2.58144 50.6926 2.547 50.618 2.52832 50.5378V50.5378Z" fill="#1E3D59"/>
<path d="M2.80469 50.9413C3.47272 50.9047 4.14094 51.0093 4.7743 51.2495C6.43051 51.7121 8.12918 51.9583 9.8362 51.9832C12.3048 52.1299 14.7799 52.1006 17.2485 52.1593C21.0696 52.2473 24.8775 52.5261 28.692 52.6215C32.06 52.7022 35.428 52.8049 38.7895 53.003C42.6893 53.2231 46.5892 53.4066 50.489 53.3185C52.784 53.2165 54.9822 52.2582 56.7327 50.5965C57.3674 49.914 57.7945 49.0261 57.9538 48.0579C59.1225 43.2596 59.7396 38.3292 60.6325 33.4648C61.6042 28.1675 62.543 22.8703 63.5869 17.5877C64.0144 15.1754 65.2407 13.0321 67.0206 11.5861C67.7639 11.0711 68.5813 10.7038 69.4367 10.5002C69.5614 10.7497 69.8306 10.9111 69.8109 11.2339C67.257 12.4518 65.4121 14.3154 64.8672 17.551C64.3813 20.4197 63.7248 23.2445 63.193 26.0838C62.1097 31.858 61.0921 37.6542 59.9694 43.421C59.5492 45.6221 59.3129 47.9699 58.1508 49.8261C57.2964 51.2527 56.1439 52.4252 54.7929 53.2421C53.4419 54.059 51.9331 54.4957 50.3971 54.5144C47.8103 54.6025 45.2301 54.3824 42.6499 54.2797C40.2733 54.1916 37.89 54.0302 35.5134 53.9128C33.3337 53.8028 31.1474 53.6633 28.948 53.5386C25.7572 53.3479 22.573 53.1424 19.3823 52.9737C16.6117 52.8196 13.8345 52.7095 11.0639 52.5848C8.84407 52.6121 6.63246 52.2785 4.49855 51.5943C4.18342 51.4769 3.69758 51.0514 3.35618 51.6677L2.80469 50.9413Z" fill="#1E3D59"/>
<path d="M0.65101 34.5213C0.482959 33.8864 0.431595 33.22 0.500007 32.5624C0.500007 30.1779 0.38183 27.7933 0.605052 25.4015C0.708067 23.8871 1.18137 22.4334 1.97329 21.199C2.76522 19.9647 3.84534 18.9972 5.09577 18.4021C7.17043 17.2795 9.42235 16.8833 11.6611 16.3624L14.2873 15.7314C14.3699 15.7529 14.4473 15.7942 14.5142 15.8525C14.5811 15.9108 14.6359 15.9846 14.6746 16.0689C14.9454 16.5847 15.2528 17.0754 15.5938 17.5363C15.7776 17.8078 16.0271 18.0499 15.9155 18.4461C15.6266 18.9817 15.108 18.9744 14.6549 19.0771C12.6853 19.5246 10.6501 19.7521 8.6739 20.229C7.18552 20.532 5.76739 21.1684 4.50488 22.0999C3.69892 22.7387 3.03237 23.5725 2.55492 24.5393C2.07748 25.506 1.80146 26.5807 1.74743 27.6833C1.62925 28.9893 1.66208 30.3099 1.00554 31.5058C0.742925 31.9827 0.933321 32.621 0.900494 33.186C0.867667 33.7509 1.00554 34.1398 0.65101 34.5213Z" fill="#1E3D59"/>
<path d="M15.2129 5.22496C17.0315 2.68595 19.6699 1.04703 22.5595 0.661398C24.4678 0.320575 26.4221 0.517277 28.2452 1.23368C28.495 1.28779 28.7241 1.42604 28.9017 1.62987C28.6352 2.53861 28.2762 3.41009 27.8315 4.22714C28.1992 4.68203 28.9345 4.08774 29.0987 4.8948C29.0422 5.02285 28.9467 5.12428 28.8295 5.18094C28.294 5.32119 27.7408 5.35595 27.1947 5.28366C26.6038 5.28366 26.2427 5.47442 26.1771 6.16409C26.0786 6.42822 25.9079 6.4649 25.7437 6.25947C25.4417 5.87061 25.2448 6.09806 25.0347 6.37686C24.5882 6.37686 24.4635 5.93665 24.2075 5.64317C24.067 5.44572 23.8805 5.29538 23.6686 5.20866C23.4566 5.12193 23.2273 5.10219 23.006 5.1516C21.857 4.79081 20.6466 4.74859 19.4797 5.02857C18.3127 5.30856 17.2245 5.90231 16.3093 6.75838C15.6002 6.56762 15.6659 5.63583 15.2129 5.22496Z" fill="#E6ECF5"/>
<path d="M46.3001 9.02549C50.0096 8.24778 53.719 7.5581 57.4613 6.9418C57.6648 7.29398 57.4613 7.52876 57.2577 7.76354C57.0018 8.09442 56.6922 8.36825 56.3452 8.5706C54.0276 10.038 51.71 11.4247 49.0839 12.0263C44.7442 13.0168 40.3979 13.9853 36.0647 14.9611C35.7634 15.049 35.4469 15.049 35.1456 14.9611C35.0587 14.9251 34.9818 14.8644 34.9224 14.785C34.8946 14.7144 34.8847 14.6367 34.894 14.5603C34.9033 14.4839 34.9313 14.4118 34.9749 14.3521C36.3273 13.8092 37.752 13.6184 39.1373 13.1929C41.1164 12.6893 43.0053 11.8162 44.7245 10.6103C45.3389 10.2046 45.8746 9.66576 46.3001 9.02549V9.02549Z" fill="#1E3D59"/>
<path d="M68.242 8.81273C67.8222 8.89286 67.4271 9.08965 67.0931 9.38501C65.1628 11.0138 62.8781 11.3 60.5999 11.6374C58.3217 11.9749 55.886 12.2904 53.5421 12.694C50.01 13.3103 46.4844 13.9853 42.9588 14.6603C40.6149 15.1152 38.2842 15.6214 35.9469 16.091C35.5784 16.2384 35.1801 16.2664 34.798 16.1717C34.6753 15.9933 34.6024 15.7784 34.5884 15.554C34.5744 15.3295 34.6199 15.1054 34.7192 14.9097C34.7462 14.8621 34.789 14.8283 34.8383 14.8159C34.8875 14.8036 34.9392 14.8135 34.9818 14.8437V14.8437C35.0606 14.9575 35.1485 15.0631 35.2444 15.1592C36.5023 15.1359 37.7519 14.9262 38.9604 14.5355C45.4383 13.1415 51.9314 11.8355 58.4399 10.6176C59.8252 10.3535 61.1974 9.99398 62.5761 9.7005C63.8113 9.45617 64.9538 8.80758 65.8588 7.83692C66.0119 7.6481 66.2138 7.5173 66.4365 7.46274C67.1466 7.6984 67.7762 8.1691 68.242 8.81273Z" fill="#1E3D59"/>
<path d="M46.2997 9.02548C46.2832 9.3054 46.2043 9.57626 46.0702 9.81335C45.936 10.0504 45.7508 10.2462 45.5316 10.3828C42.9776 12.4958 39.997 13.3176 36.9966 14.0513C36.3646 14.305 35.6985 14.4365 35.027 14.4401C34.6068 13.7064 34.5083 12.8627 33.9962 12.2391C33.9109 12.0116 33.8058 11.7768 34.0356 11.5714L46.2997 9.02548Z" fill="#1E3D59"/>
<path d="M34.9814 15.2252C34.9814 15.0931 34.9814 14.9684 34.9814 14.8437C36.5647 14.6693 38.1325 14.3503 39.6691 13.8899C43.1816 13.1562 46.6941 12.4225 50.1737 11.4393C52.4913 10.801 54.5331 9.45104 56.5684 8.13039C56.7859 8.01725 56.9786 7.85218 57.1329 7.64683C57.2871 7.44147 57.3992 7.20081 57.4613 6.94181C59.2791 6.48869 61.1411 6.29638 63.0024 6.36953C63.3084 6.32947 63.6182 6.38803 63.8953 6.53828C62.4838 7.44072 61.1838 8.53392 59.7329 9.37033C58.2752 10.176 56.7305 10.7679 55.1371 11.1312C53.115 11.6448 51.0732 12.063 49.0313 12.4739C45.2431 13.2442 41.4615 14.1026 37.6732 14.873C37.0167 15.0124 36.3011 15.1738 35.6183 15.3499C35.5115 15.3923 35.3968 15.4031 35.2852 15.3812C35.1736 15.3594 35.0689 15.3056 34.9814 15.2252V15.2252Z" fill="#1E3D59"/>
<path d="M34.9814 15.2252L41.4024 13.8679C45.4532 12.9728 49.504 12.0923 53.568 11.2779C56.6717 10.6959 59.6298 9.38566 62.2474 7.43339C62.7661 7.04453 63.1206 6.32552 63.8953 6.52361C64.7838 6.64314 65.6415 6.96261 66.4164 7.46274C65.3397 9.14289 63.7443 9.73719 62.0373 10.1187C56.181 11.4247 50.2656 12.3198 44.4159 13.6771C41.4943 14.3521 38.553 14.9097 35.6183 15.526C35.336 15.5847 35.0405 15.7168 34.9814 15.2252Z" fill="#1E3D59"/>
<path d="M17.5695 19.7447C16.4337 20.4124 15.1535 20.4344 13.9323 20.6839C11.6016 21.1754 9.25776 21.601 6.91392 21.9825C4.94431 22.298 3.16509 24.6898 3.03378 27.3531C2.68582 34.3819 2.955 41.418 2.88934 48.4541C2.9295 48.7567 2.884 49.0658 2.75922 49.3381C2.63444 49.6105 2.43661 49.8324 2.19342 49.9729C1.72044 49.2676 1.42363 48.4346 1.33335 47.559C1.29662 47.4915 1.27297 47.4161 1.26392 47.3378C1.25488 47.2594 1.26063 47.1798 1.28083 47.1041C2.03585 44.7343 1.79949 42.2544 1.98332 39.8259C2.23281 36.5243 1.98332 33.2227 2.16059 29.9284C2.23281 28.1895 2.16059 26.3773 2.955 24.7925C4.1302 22.342 6.05385 21.1974 8.46335 20.8306C11.2517 20.4551 14.0182 19.899 16.7488 19.1651C17.1625 19.0991 17.4973 19.1871 17.5695 19.7447Z" fill="#1E3D59"/>
<path d="M16.9138 19.1945C16.5593 19.7888 15.9552 19.6347 15.4694 19.7374C12.8432 20.2803 10.2171 20.7572 7.53843 21.2708C6.15614 21.5739 4.90673 22.392 3.99443 23.5915C3.08213 24.7909 2.56089 26.3007 2.51592 27.8741C2.33865 31.3004 2.51592 34.7268 2.34522 38.1458C2.19422 40.7357 2.273 43.333 1.89877 45.9082C1.81342 46.5245 1.30789 46.9207 1.34728 47.559C1.04762 46.3316 0.925717 45.0584 0.986187 43.7879C0.907879 43.3532 0.892363 42.9073 0.940229 42.4672C1.55737 41.5207 1.54424 40.3909 1.59677 39.305C1.75434 36.1134 1.78716 32.9145 1.81999 29.7156C1.77677 28.2687 1.95665 26.8243 2.35178 25.4455C3.31033 22.5548 5.36529 21.1021 7.89296 20.5298C10.611 19.9208 13.375 19.5687 16.0931 18.9377C16.2039 18.9158 16.3157 18.9011 16.4279 18.8937C16.5277 18.8708 16.6315 18.8885 16.7206 18.9437C16.8097 18.9988 16.8783 19.0878 16.9138 19.1945V19.1945Z" fill="#1E3D59"/>
<path d="M13.4931 12.2391C13.1386 11.0652 13.5325 9.94994 13.6966 8.82006C14.0511 8.48256 14.3138 8.77603 14.5501 9.01815C14.8467 9.34103 15.2168 9.56688 15.6203 9.67114C15.7288 9.73931 15.8211 9.83547 15.8897 9.9516C15.9582 10.0677 16.0009 10.2005 16.0142 10.3388C16.3359 11.3513 17.1631 11.6448 17.9444 11.9823C18.7249 12.2413 19.5215 12.435 20.3276 12.5619C20.8463 12.7013 21.3978 12.8113 21.5882 13.501C21.6015 13.7715 21.522 14.0375 21.3658 14.2448C21.2097 14.452 20.9886 14.5849 20.7478 14.6162C19.941 14.8688 19.0845 14.8406 18.2924 14.5355C18.1414 14.4401 18.2924 14.2127 18.2924 14.22C17.406 14.3154 16.7955 13.6257 16.0667 13.2662C15.4694 12.808 14.8515 12.3843 14.2153 11.9969C13.8673 11.7181 13.7032 12.0483 13.4931 12.2391Z" fill="#AFC1DF"/>
<path d="M0.650593 34.5213C0.650593 33.8977 0.650593 33.2667 0.650593 32.6357C0.561801 31.9641 0.7153 31.2806 1.07734 30.7354C1.53692 30.1338 1.43187 29.2094 1.445 28.461C1.52379 23.0684 4.84587 20.7792 8.73257 19.9502C10.8663 19.4879 13.0132 19.0844 15.1535 18.6589C15.4292 18.6075 15.7247 18.6075 15.8494 18.248C15.8861 18.2165 15.9312 18.1994 15.9775 18.1994C16.0238 18.1994 16.0688 18.2165 16.1055 18.248C16.1918 18.3088 16.255 18.4031 16.2829 18.5128C16.3107 18.6225 16.3013 18.7399 16.2565 18.8423C15.5146 19.4586 14.602 19.3705 13.7748 19.576C11.8774 20.0089 9.94716 20.207 8.04977 20.6545C4.49134 21.4983 2.14093 23.9268 1.99649 28.1455C1.90458 30.8895 1.91114 33.6849 1.81266 36.4509C1.76014 37.6835 1.15613 38.652 0.854119 39.7965C0.678915 38.0454 0.610915 36.2828 0.650593 34.5213V34.5213Z" fill="#1E3D59"/>
<path d="M0.821519 39.8186C0.499816 38.652 1.6028 37.9183 1.59623 36.7811C1.59623 36.561 1.67502 36.3482 1.68158 36.1354C1.74067 33.5675 1.7735 30.9996 1.85885 28.439C2.00329 24.0735 3.82846 21.6083 7.87929 20.5371C10.3938 19.8841 12.974 19.5026 15.528 19.0184C15.8168 18.9597 16.0926 18.9597 16.2239 18.6148C16.4865 18.5806 16.5981 18.7053 16.5587 18.989C14.9249 19.4956 13.2622 19.878 11.5822 20.1336C9.3762 20.6032 7.06519 20.6032 5.09558 22.0705C4.28798 22.6384 3.60803 23.4062 3.10827 24.3145C2.60852 25.2229 2.30233 26.2474 2.21338 27.3091C1.9442 29.7156 2.08207 32.1368 2.02298 34.5506C1.96389 36.7884 1.82602 39.0262 1.67502 41.2639C1.64219 41.7115 1.67502 42.3278 1.01848 42.4232C0.847781 42.2764 0.985654 42.027 0.867477 41.8582L0.821519 39.8186Z" fill="#1E3D59"/>
<path d="M29.0664 4.8361C28.6987 4.47659 28.2523 4.71871 27.8518 4.638C27.6548 4.638 27.2478 4.638 27.517 4.27116C28.1144 3.47143 28.2195 2.35622 28.8957 1.62253C30.1405 2.11102 31.2417 2.97121 32.0799 4.10975C31.6335 4.77007 31.5678 5.69452 30.9178 6.21544C30.2876 5.77523 29.7229 5.22496 29.0664 4.8361Z" fill="#C6D3E8"/>
<path d="M30.9106 6.1641C31.1339 5.64318 31.3833 5.13693 31.5672 4.60134C31.6722 4.3152 31.7641 4.09509 32.0727 4.10976C32.7899 4.95498 33.3126 5.98226 33.5959 7.10323C33.2369 7.35805 32.9589 7.73288 32.8015 8.17442C32.3091 9.34833 31.3899 10.1847 30.8319 11.3073C30.6809 11.6154 30.5233 11.454 30.4248 11.2046C30.4293 9.51009 30.5921 7.82077 30.9106 6.1641V6.1641Z" fill="#8BA6D0"/>
<path d="M30.6018 11.4614C30.7807 10.9049 31.0729 10.4026 31.4553 9.99398C32.0096 9.17365 32.5182 8.31607 32.9784 7.42605C33.136 7.13991 33.2542 6.86111 33.5956 7.14725C33.7269 7.96165 34.1011 8.73203 33.9567 9.59778C33.2265 10.9001 32.3433 12.0871 31.3305 13.1268C31.0482 13.3983 30.7593 13.9046 30.2866 13.413C30.1989 13.0828 30.1817 12.7342 30.2364 12.3953C30.2911 12.0563 30.4163 11.7364 30.6018 11.4614V11.4614Z" fill="#6085BF"/>
<path d="M30.4381 13.5304C31.5404 12.6864 32.482 11.6066 33.2086 10.3535C33.4056 10.0453 33.4844 9.5611 33.9571 9.5611C33.9571 10.2361 33.9571 10.9038 34.0031 11.5788C33.9706 11.794 34.0078 12.0151 34.1081 12.2024C34.0279 12.3579 33.9124 12.4869 33.7733 12.5766C32.9868 13.592 32.1065 14.5118 31.1471 15.3206C30.832 15.57 30.4906 16.0029 30.0835 15.46C30.0044 15.1297 29.9953 14.7833 30.0569 14.4484C30.1184 14.1134 30.2489 13.7991 30.4381 13.5304V13.5304Z" fill="#58648C"/>
<path d="M15.6004 9.70784C15.167 9.96463 14.8979 9.6418 14.6221 9.34833C14.3464 9.05485 14.1494 8.72469 13.7227 8.81273C14.0066 7.51481 14.5225 6.29444 15.2393 5.22498C15.968 5.39372 15.8958 6.17878 16.1912 6.69236C16.216 6.71967 16.2358 6.75222 16.2492 6.78812C16.2627 6.82401 16.2696 6.86254 16.2696 6.90146C16.2696 6.94038 16.2627 6.97891 16.2492 7.01481C16.2358 7.05071 16.216 7.08326 16.1912 7.11057C15.7669 7.89108 15.5611 8.7956 15.6004 9.70784Z" fill="#CDD9EB"/>
<path d="M13.4926 12.2391C13.4926 11.4027 13.7749 11.2559 14.3067 11.8135C14.8385 12.3711 15.6986 12.3418 16.0465 13.1562C16.145 13.3176 16.3485 13.4056 16.296 13.6624C16.1778 14.1834 16.4273 14.719 16.2566 15.2399C16.1913 15.2915 16.1134 15.3196 16.0334 15.3206C15.3769 14.5429 14.4446 14.3228 13.7027 13.7285C13.5217 13.2596 13.4495 12.7474 13.4926 12.2391Z" fill="#90AAD2"/>
<path d="M13.7031 13.7065C14.6354 13.9339 15.5414 14.2127 16.0732 15.2179C16.3358 15.6581 16.8348 15.9515 16.7298 16.6265C15.8828 17.1988 15.2591 16.4505 14.5566 16.1643C14.4844 16.0102 14.4122 15.8635 14.3334 15.7168C14.0509 15.0778 13.8393 14.4027 13.7031 13.7065V13.7065Z" fill="#698CC3"/>
<path d="M0.868137 41.8582C1.03884 42.005 0.999445 42.2251 1.01914 42.4232C1.01914 42.878 1.01914 43.3256 0.986314 43.7805C0.835691 43.1544 0.795552 42.5015 0.868137 41.8582V41.8582Z" fill="#8F9EAC"/>
<path d="M51.7096 33.4355C51.3064 31.8709 51.3803 30.2009 51.9197 28.6885C52.3793 27.3825 53.456 27.045 54.618 27.0743C55.0377 27.074 55.456 27.1257 55.8655 27.2284C56.8962 27.5072 56.8897 27.5219 56.7912 26.2453C56.3973 25.4162 55.6948 25.4676 55.0185 25.5116C54.43 25.5877 53.8535 25.753 53.305 26.0031C53.1426 26.0958 52.9573 26.1259 52.778 26.0887C52.5988 26.0516 52.4355 25.9493 52.3136 25.7977C52.2414 24.4257 52.6025 23.736 53.758 23.5453C55.1761 23.3105 56.6139 23.0317 58.0386 23.5453C58.4184 23.8475 58.7121 24.2658 58.8845 24.7499C59.0568 25.234 59.1005 25.7634 59.0103 26.2746C58.8461 28.4757 58.6557 30.6768 58.3537 32.8045C58.183 34.1545 57.5987 34.5947 56.4366 34.1325C56.2917 34.0799 56.1386 34.0619 55.987 34.0796C55.8355 34.0973 55.689 34.1503 55.5569 34.2352C54.8241 34.5724 54.0232 34.6815 53.2393 34.5507C52.9158 34.5467 52.6001 34.4396 52.3291 34.2421C52.0581 34.0445 51.8432 33.7647 51.7096 33.4355V33.4355Z" fill="#FEFEFE"/>
<path d="M35.6509 33.8316C35.5334 31.6128 35.6104 29.3865 35.8807 27.1844C35.8924 26.6047 36.1037 26.0524 36.4705 25.6424C36.8374 25.2325 37.3316 24.9964 37.8503 24.9833C38.8338 24.7459 39.8524 24.7584 40.831 25.02C41.147 25.1951 41.4078 25.4735 41.579 25.8181C41.7502 26.1627 41.8236 26.5573 41.7895 26.9496C41.7906 27.6361 41.7357 28.3212 41.6254 28.9966C41.2774 30.8528 39.9841 31.5278 38.3427 31.4471C37.9882 31.4471 37.4761 30.9482 37.3054 31.4471C37.1733 31.743 37.1345 32.0801 37.1953 32.4037C37.256 32.7273 37.4128 33.0184 37.6402 33.23C38.6644 33.2814 39.6098 32.8705 40.634 32.7604C40.7945 32.8822 40.9216 33.0512 41.0013 33.2488C41.0811 33.4463 41.1103 33.6647 41.0859 33.8796C41.0614 34.0946 40.9841 34.2978 40.8627 34.4668C40.7412 34.6357 40.5803 34.7638 40.3977 34.8368C39.2166 35.3639 37.9184 35.469 36.6817 35.1376C36.1105 35.0569 35.8282 34.4553 35.6509 33.8316Z" fill="#FEFEFE"/>
<path d="M42.4137 34.2058C42.3611 32.7384 42.4925 32.6357 43.7727 32.8925C44.0789 32.9476 44.3883 32.977 44.6984 32.9805C46.0772 32.9805 46.2675 32.8045 46.3923 31.227C46.3923 30.8015 46.1953 30.6181 45.8211 30.6107C45.3832 30.5914 44.9446 30.6037 44.508 30.6474C44.1631 30.7277 43.804 30.6732 43.4909 30.4928C43.1777 30.3125 42.9295 30.0174 42.7879 29.6569C42.5375 28.6288 42.5194 27.5472 42.7354 26.5094C42.8101 25.9293 43.0597 25.395 43.4428 24.9948C43.826 24.5946 44.3199 24.3524 44.8429 24.3083C45.8918 24.1068 46.958 24.0403 48.0205 24.1102C48.1514 24.169 48.2705 24.2562 48.3709 24.3669C48.4713 24.4776 48.551 24.6095 48.6054 24.7549C48.6598 24.9003 48.6877 25.0564 48.6876 25.214C48.6875 25.3716 48.6594 25.5276 48.6048 25.673C48.3553 26.4067 47.8038 26.4507 47.213 26.3186C46.6878 26.2245 46.1545 26.1999 45.6241 26.2452C44.5343 26.3113 44.0813 27.3238 44.6393 28.4463C45.5125 28.505 46.3857 28.0721 47.2655 28.4463C47.588 28.607 47.8582 28.8751 48.0392 29.2139C48.2202 29.5527 48.3031 29.9458 48.2766 30.3393C48.2912 31.1232 48.2229 31.9064 48.073 32.6724C47.968 33.3128 47.6641 33.8913 47.215 34.306C46.7658 34.7207 46.2002 34.945 45.6176 34.9395C44.9151 34.9395 44.2126 34.9395 43.5101 34.9395C43.2798 34.9756 43.0455 34.9225 42.846 34.789C42.6465 34.6555 42.4939 34.4497 42.4137 34.2058Z" fill="#FEFEFE"/>
<path d="M53.9032 45.0058C54.87 45.0143 55.8359 44.9383 56.792 44.7783C56.881 44.8046 56.9644 44.8505 57.0373 44.9133C57.1102 44.9762 57.1711 45.0547 57.2164 45.1443C57.2617 45.2339 57.2905 45.3327 57.301 45.435C57.3116 45.5372 57.3037 45.6407 57.2778 45.7395C57.2467 45.9748 57.1532 46.1944 57.0092 46.3697C56.8652 46.5449 56.6775 46.6679 56.4703 46.7226C55.9153 46.9435 55.3217 47.0163 54.737 46.9354C54.4056 46.8678 54.0694 46.8334 53.7325 46.8327C52.5114 46.8327 52.3013 46.6346 51.8745 45.3653C51.8405 43.4583 51.968 41.552 52.2553 39.6718C52.2864 39.161 52.4878 38.6817 52.8196 38.3285C53.1514 37.9754 53.5895 37.7741 54.0477 37.7642C55.174 37.5219 56.3381 37.6259 57.4157 38.065C57.6002 38.1481 57.758 38.2913 57.8687 38.4759C58.8732 40.2221 57.698 43.2156 55.8991 43.5384C55.4277 43.63 54.9458 43.63 54.4744 43.5384C53.6734 43.3696 53.3714 43.7732 53.6472 44.6609C53.7023 44.8002 53.7909 44.9196 53.9032 45.0058Z" fill="#FBFCFE"/>
<path d="M45.4463 46.0916C45.4463 43.6264 45.7417 41.1686 45.9321 38.7107C45.9846 37.977 46.5099 37.6542 47.0417 38.1458C47.5735 38.6373 47.7639 38.4099 48.1447 38.2045C48.47 38.0209 48.826 37.915 49.1899 37.8935C49.5539 37.872 49.9179 37.9354 50.2587 38.0797C50.5921 38.2182 50.873 38.4801 51.0545 38.8219C51.2361 39.1636 51.3074 39.5646 51.2566 39.958C51.0925 41.8509 51.0597 43.7658 50.738 45.6368C50.5541 46.7226 49.9567 46.9647 49.0901 46.3704C49.0244 44.5876 49.333 42.8414 49.4118 41.0732C49.4118 40.7577 49.4118 40.4495 49.4643 40.1414C48.985 39.6278 48.4073 39.8846 47.8689 39.8919C47.5932 39.8919 47.5735 40.2148 47.5341 40.4642C47.3689 41.6303 47.2659 42.8062 47.2255 43.9859C47.2243 44.6113 47.1356 45.2327 46.9629 45.8275C46.6543 46.7226 45.9846 46.796 45.4463 46.0916Z" fill="#FBFCFE"/>
<path d="M19.0075 35.6145L18.5939 34.7708C18.3182 34.2352 18.1869 33.5969 17.6551 33.2373C17.5828 33.8157 17.5543 34.3998 17.5697 34.9835C17.5641 35.2044 17.4925 35.4168 17.3664 35.587C17.2403 35.7571 17.0669 35.8753 16.8738 35.9227C16.3551 36.0401 16.2172 35.6218 16.0859 35.189C16.121 32.7433 16.156 30.327 16.191 27.9401C16.191 27.6026 16.1385 27.2064 16.493 27.0376C16.8475 26.8689 17.0839 27.1037 17.248 27.4192C17.4121 27.7347 17.5763 27.5219 17.7142 27.4192C17.9723 27.202 18.267 27.0452 18.5806 26.9582C18.8942 26.8712 19.2203 26.8558 19.5393 26.9129C19.8446 27.0431 20.107 27.2746 20.2913 27.5762C20.4755 27.8778 20.5728 28.2352 20.5701 28.6004C20.5701 29.8404 20.6883 31.139 19.7363 32.1075C19.6704 32.1653 19.6162 32.238 19.5771 32.3208C19.538 32.4035 19.5149 32.4946 19.5093 32.588C19.5038 32.6814 19.5158 32.7751 19.5447 32.8629C19.5737 32.9508 19.6188 33.0308 19.6772 33.0979C19.8939 33.4648 20.0843 33.8316 20.2812 34.2278C20.4083 34.439 20.4624 34.6946 20.4334 34.947C20.4044 35.1994 20.2943 35.4314 20.1236 35.5998C19.7363 36.0767 19.3686 35.9447 19.0075 35.6145Z" fill="#FBFCFE"/>
<path d="M39.5381 45.9082C39.6628 43.5677 39.7744 41.2199 39.9189 38.8794C39.9648 38.1017 40.3062 37.9036 40.9365 38.2558C41.0983 38.3731 41.285 38.4404 41.4776 38.4507C41.6702 38.461 41.8619 38.414 42.0329 38.3145C42.3424 38.1364 42.6841 38.0393 43.0321 38.0304C43.3802 38.0215 43.7255 38.1011 44.0419 38.2631C44.3593 38.4382 44.6183 38.7219 44.7813 39.0729C44.9443 39.424 45.0027 39.824 44.9479 40.2148C44.8757 41.8069 44.705 43.3917 44.6591 44.9911C44.6513 45.2749 44.5933 45.5542 44.4884 45.8128C44.1141 46.7153 43.4707 46.774 42.9193 45.9449L43.2344 40.1928C42.2233 39.4591 41.6062 39.7672 41.442 40.9998C41.2451 42.4305 41.3042 43.8832 41.1006 45.3139C41.0284 45.7982 40.9234 46.2604 40.4441 46.3778C40.3578 46.422 40.264 46.4448 40.169 46.4446C40.0741 46.4443 39.9803 46.4211 39.8942 46.3765C39.8081 46.3318 39.7316 46.2669 39.6702 46.186C39.6087 46.1052 39.5636 46.0104 39.5381 45.9082Z" fill="#FBFCFE"/>
<path d="M29.8403 34.4846C29.6624 32.2065 29.7087 29.9135 29.9782 27.6466C29.9808 27.3666 30.0328 27.0899 30.1313 26.8323C30.2298 26.5748 30.3728 26.3415 30.5521 26.1459C30.7314 25.9503 30.9435 25.7961 31.1763 25.6923C31.409 25.5885 31.6579 25.537 31.9084 25.5409C32.8932 25.4235 33.878 25.1154 34.8891 25.5996C34.9822 25.6429 35.0667 25.7064 35.1377 25.7864C35.2086 25.8664 35.2647 25.9614 35.3025 26.0658C35.3404 26.1703 35.3593 26.282 35.3583 26.3947C35.3572 26.5074 35.3361 26.6187 35.2962 26.7222C35.2463 26.9357 35.1401 27.1275 34.9914 27.2727C34.8427 27.418 34.6584 27.5099 34.4624 27.5366C34.0249 27.5936 33.5822 27.5762 33.1493 27.4852C31.9281 27.3165 31.7574 27.4852 31.5276 28.8059C31.3659 30.1699 31.3088 31.5469 31.3569 32.9219C31.3548 33.0476 31.38 33.172 31.4303 33.2844C31.4806 33.3969 31.5546 33.494 31.6458 33.5675C32.6241 33.7069 33.5235 33.208 34.4821 33.142C35.178 33.8757 35.1058 34.7928 34.2326 35.2037C33.0923 35.6433 31.8613 35.6969 30.6938 35.3577C30.2671 35.277 30.1555 34.7341 29.8403 34.4846Z" fill="#FBFCFE"/>
<path d="M34.0493 45.6294C33.8246 43.6781 33.8577 41.7004 34.1478 39.7599C34.1718 39.344 34.3326 38.9528 34.5993 38.6616C34.8659 38.3704 35.2196 38.1997 35.5922 38.1824C36.4259 38.0337 37.2774 38.0661 38.1001 38.2778C38.3458 38.4004 38.5543 38.6002 38.7 38.853C38.8458 39.1058 38.9225 39.4005 38.9208 39.7012C39.0054 41.3597 38.9217 43.0235 38.6713 44.6609C38.5006 45.9449 37.8507 46.4658 36.7017 46.4878C35.73 46.4878 34.7452 46.6052 34.0493 45.6294Z" fill="#FBFCFE"/>
<path d="M11.0045 34.7561C11.0045 33.2887 10.9717 31.8654 10.9717 30.4273C10.9717 27.6833 12.0484 26.7589 14.4645 27.4412L14.6286 27.4925C15.8235 28.3143 15.4164 29.6496 15.4164 30.8088C15.4183 31.2593 15.2921 31.6988 15.0561 32.064C14.8202 32.4293 14.4866 32.7014 14.1034 32.8412C13.7903 32.9877 13.4503 33.0481 13.112 33.0172C12.2322 32.9586 12.0484 33.23 12.3504 34.1618C12.4115 34.3044 12.5198 34.415 12.6524 34.47C13.3746 34.5507 14.0377 34.1471 14.7533 34.1178C15.4099 34.9248 15.2654 35.7172 14.4054 36.0694C13.6025 36.3608 12.7425 36.3939 11.9237 36.1648C11.2999 36.018 11.1424 35.3651 11.0045 34.7561Z" fill="#FBFCFE"/>
<path d="M26.4986 23.3545L25.5467 22.3787C25.4328 22.3069 25.3407 22.1986 25.2822 22.0679C25.2237 21.9372 25.2015 21.7899 25.2184 21.645C25.1871 20.8866 25.3787 20.1376 25.7639 19.5123C26.1492 18.8871 26.707 18.4198 27.3521 18.182C27.9541 18.0403 28.569 17.9788 29.1839 17.9986C29.2711 17.9878 29.3592 17.9878 29.4465 17.9986C29.8493 18.1687 30.2016 18.4609 30.4641 18.8423C30.7917 19.4753 30.9056 20.2184 30.7851 20.9371C30.6647 21.6559 30.3179 22.3026 29.8076 22.7602C29.4044 23.2746 28.8531 23.6154 28.249 23.7239C27.6448 23.8324 27.0258 23.7018 26.4986 23.3545V23.3545Z" fill="#FF6E40"/>
<path d="M24.6279 40.5229C24.6279 40.024 24.6279 39.5251 24.687 39.0555C24.7461 38.3218 25.1334 38.1164 25.5536 38.5786C25.5955 38.6455 25.6495 38.7018 25.7121 38.7438C25.7748 38.7857 25.8446 38.8124 25.9171 38.8221C25.9896 38.8318 26.0632 38.8243 26.1329 38.8C26.2026 38.7758 26.267 38.7353 26.3218 38.6814C26.7795 38.4379 27.2952 38.3659 27.7924 38.4759C28.0744 38.7125 28.3095 39.0117 28.4832 39.3546C28.6568 39.6975 28.7652 40.0769 28.8016 40.4688C28.838 40.8607 28.8015 41.2568 28.6945 41.6323C28.5875 42.0077 28.4123 42.3544 28.1798 42.6506C27.7727 43.2082 27.6677 43.6264 28.1141 44.1767C28.264 44.3992 28.3814 44.6469 28.4621 44.9104C28.5503 45.1105 28.5654 45.3411 28.5041 45.5533C28.4428 45.7656 28.31 45.9429 28.1338 46.0476C28.0643 46.115 27.9816 46.1633 27.8923 46.1887C27.8031 46.214 27.7098 46.2157 27.6199 46.1936C27.5299 46.1715 27.4459 46.1263 27.3744 46.0614C27.3029 45.9966 27.246 45.914 27.2081 45.8202V45.8202C26.9127 45.424 26.801 44.9031 26.5516 44.4922C26.3629 44.2327 26.1589 43.9876 25.941 43.7585C25.8753 44.2941 25.941 44.7857 25.8753 45.2699C25.8569 45.4574 25.7818 45.6323 25.6625 45.7657C25.5431 45.8991 25.3866 45.983 25.2188 46.0036C24.7986 46.0696 24.6082 45.8055 24.5623 45.3946V43.1936C24.649 42.7074 24.6355 42.2056 24.5229 41.7262C24.4495 41.5317 24.4206 41.3198 24.439 41.1097C24.4573 40.8996 24.5222 40.6979 24.6279 40.5229V40.5229Z" fill="#FBFCFE"/>
<path d="M23.1441 35.1376C22.4875 32.9365 21.831 30.6914 21.1745 28.461C20.8593 27.3531 21.0629 26.8689 21.9098 26.5828C22.2512 26.7442 22.3562 27.0817 22.4744 27.4485C22.8224 28.4904 23.1047 29.5542 23.4789 30.5814C23.5511 30.7942 23.4789 31.1317 23.8728 30.9629C24.3105 29.6129 24.7482 28.2605 25.1859 26.9056C25.35 26.37 25.5667 25.9738 26.151 26.348C26.3631 26.4825 26.5204 26.7035 26.5902 26.9646C26.6599 27.2257 26.6366 27.5069 26.5252 27.7493C25.8687 30.1705 25.0612 32.5623 24.2602 34.9395C23.9516 35.7172 23.6102 35.7172 23.1441 35.1376Z" fill="#FBFCFE"/>
<path d="M20.0381 45.0718C19.9177 43.3342 19.9419 41.5879 20.1104 39.8552C20.1161 39.6586 20.1572 39.4653 20.2312 39.2868C20.3052 39.1082 20.4106 38.9482 20.541 38.8161C20.6715 38.684 20.8244 38.5825 20.9907 38.5178C21.1569 38.453 21.3331 38.4263 21.5088 38.4392C22.0406 38.4392 22.5724 38.4392 23.1042 38.4392C23.436 38.5285 23.7289 38.7462 23.9308 39.0538C24.1327 39.3613 24.2306 39.7388 24.2072 40.1194C24.2072 40.4936 24.2072 40.8531 24.2072 41.2419C24.2193 41.5562 24.1669 41.8693 24.0541 42.1574C23.9412 42.4456 23.7708 42.701 23.556 42.9043C23.3412 43.1075 23.0877 43.2531 22.8148 43.3299C22.5418 43.4068 22.2568 43.4128 21.9815 43.3476C21.7583 43.3476 21.4497 43.0982 21.3249 43.509C21.2002 43.9199 21.1936 44.2427 21.6204 44.4408L23.4784 44.2647C23.6006 44.3567 23.6989 44.483 23.7637 44.6308C23.8284 44.7787 23.8572 44.943 23.8473 45.1072C23.8373 45.2714 23.7889 45.4298 23.7068 45.5666C23.6248 45.7033 23.5121 45.8135 23.3799 45.8862C22.8163 46.1556 22.1915 46.222 21.5925 46.076C20.9936 45.93 20.4502 45.579 20.0381 45.0718V45.0718Z" fill="#FBFCFE"/>
<path d="M15.5605 46.5245L15.659 39.5838C15.659 38.5419 15.7969 38.4466 16.5716 38.9235C16.6362 38.9771 16.7144 39.006 16.7948 39.006C16.8752 39.006 16.9535 38.9771 17.0181 38.9235C17.2887 38.7338 17.5993 38.6272 17.9186 38.6143C18.2378 38.6014 18.5545 38.6827 18.8367 38.8501C19.0626 38.9827 19.2466 39.1896 19.364 39.4428C19.4814 39.696 19.5265 39.9834 19.4932 40.2661C19.4932 41.4914 19.5326 42.7093 19.4932 43.9346C19.5149 44.2237 19.4778 44.5146 19.3846 44.7854C19.2914 45.0562 19.1445 45.2999 18.955 45.4983C18.7655 45.6966 18.5383 45.8445 18.2904 45.9307C18.0425 46.0169 17.7804 46.0394 17.5236 45.9963C17.1297 45.9963 16.9524 46.0476 16.9064 46.4952C16.9034 46.7032 16.8299 46.9021 16.7007 47.0519C16.5716 47.2017 16.3964 47.2911 16.2105 47.3022C15.7444 47.3022 15.659 46.884 15.5605 46.5245Z" fill="#FBFCFE"/>
<path d="M29.1511 45.1085C29.2364 44.4995 29.4859 44.2134 30.0637 44.4922C30.2749 44.5794 30.4958 44.6337 30.7202 44.6536C31.751 44.8003 31.9217 44.6536 31.9348 43.4137C31.6525 42.9001 31.1864 43.0908 30.799 43.0688C29.7354 43.0028 29.591 42.8927 29.243 41.7775C29.1183 38.5933 29.5713 38.1091 32.4338 38.2265H32.9393C33.0589 38.2772 33.1671 38.3565 33.2564 38.4588C33.3457 38.5611 33.414 38.6839 33.4565 38.8187C33.499 38.9535 33.5147 39.0971 33.5024 39.2393C33.4902 39.3816 33.4504 39.5192 33.3858 39.6425C33.1691 40.2001 32.7292 40.1194 32.3025 39.9726C32.0858 39.8919 31.856 39.9139 31.6459 39.8552C31.498 39.7974 31.3376 39.7925 31.187 39.8411C31.0364 39.8898 30.9031 39.9896 30.8056 40.1267C30.6931 40.2909 30.6407 40.4967 30.6589 40.7024C30.6772 40.9081 30.7649 41.0984 30.904 41.2346H32.2762C32.6227 41.341 32.9232 41.5837 33.1223 41.918C33.3213 42.2524 33.4056 42.6559 33.3595 43.0541C33.4016 43.6817 33.3438 44.3127 33.1888 44.9177C33.0892 45.2984 32.8832 45.6335 32.6008 45.8738C32.3184 46.1141 31.9746 46.247 31.6197 46.253C31.147 46.253 30.6677 46.253 30.1884 46.253C29.5319 46.2384 29.1314 45.9009 29.1511 45.1085Z" fill="#FBFCFE"/>
<path d="M6.50762 32.2249C6.46166 31.4471 6.36975 30.6694 6.38945 29.8917C6.38945 28.4977 6.83589 28.0061 8.08988 27.8154C8.58885 27.742 9.09438 27.742 9.59991 27.7126C9.83411 27.8219 10.0268 28.0191 10.1448 28.2703C10.2202 28.3943 10.2644 28.5387 10.2727 28.6883C10.281 28.838 10.2532 28.9874 10.1921 29.1209C10.131 29.2544 10.039 29.3671 9.92553 29.4472C9.81211 29.5273 9.68151 29.5719 9.54739 29.5762C9.29394 29.5883 9.04016 29.5636 8.79237 29.5029C8.42471 29.4442 8.00453 29.4001 7.79443 29.7963C7.67421 29.9948 7.62138 30.2346 7.64545 30.4728C7.66953 30.7109 7.76893 30.9315 7.92574 31.095H9.35699C9.5549 31.1742 9.73128 31.309 9.86923 31.4862C10.0072 31.6635 10.1021 31.8774 10.1448 32.1075C10.4263 33.1278 10.3893 34.2246 10.0398 35.2183C9.52113 36.6417 7.52525 36.9645 6.51419 35.8273C6.35005 34.7561 6.57328 34.4773 7.47273 34.6607C8.78581 34.9322 9.00903 34.7121 8.94994 33.2374C8.89217 33.0932 8.78708 32.9793 8.65635 32.9192C8.52563 32.8592 8.37925 32.8575 8.24745 32.9145C7.92949 33.021 7.58947 33.0115 7.27665 32.8875C6.96384 32.7635 6.69448 32.5314 6.50762 32.2249V32.2249Z" fill="#FBFCFE"/>
<path d="M9.86847 39.5031C10.177 38.5933 10.8533 38.652 11.5361 38.718L12.5997 38.8207C12.8611 38.9763 13.0758 39.2144 13.217 39.5053C13.3583 39.7962 13.4198 40.1271 13.3941 40.4569C13.4597 41.9243 13.4532 43.3403 13.3941 44.7783C13.3941 45.6074 13.1446 45.7835 12.3896 45.6514C12.1114 45.6524 11.8348 45.6994 11.5689 45.7908C11.3256 45.8629 11.07 45.8659 10.8254 45.7995C10.5808 45.733 10.3549 45.5993 10.1683 45.4105C9.98171 45.2217 9.84032 44.9837 9.757 44.7183C9.67367 44.4528 9.65106 44.1683 9.6912 43.8906C9.6912 43.421 9.6912 42.9514 9.6912 42.4819C9.7082 42.1523 9.80355 41.8337 9.96742 41.559C10.1313 41.2843 10.3578 41.0634 10.6235 40.9191L10.6957 40.8164C11.0305 40.5009 11.4967 41.0292 11.8118 40.6036C11.5755 40.0387 11.1553 40.2368 10.7942 40.3248C10.0063 40.5229 9.96038 40.4862 9.86847 39.5031Z" fill="#FBFCFE"/>
<path d="M26.499 23.3545C27.0558 23.5795 27.6589 23.6196 28.2356 23.4699C28.8123 23.3202 29.3379 22.987 29.7489 22.5108C30.1964 22.0562 30.4898 21.4429 30.5795 20.7745C30.6692 20.1061 30.5497 19.4236 30.2413 18.8423C30.7417 17.9409 31.4143 17.1742 32.2109 16.5972C32.7164 16.4651 33.2154 16.3111 33.7144 16.135C34.0229 16.0249 34.3709 15.8929 34.6335 16.201C34.1359 17.7487 33.1447 19.0367 31.8498 19.8181C31.5924 19.9666 31.3816 20.1992 31.2456 20.485C31.1095 20.7707 31.0546 21.0961 31.0882 21.4176C31.136 22.0021 31.0058 22.5875 30.7186 23.0789C30.4314 23.5703 30.0041 23.9389 29.506 24.1249C28.9942 24.3543 28.432 24.4034 27.8946 24.2657C27.3572 24.128 26.8702 23.8101 26.499 23.3545V23.3545Z" fill="#1E3D59"/>
<path d="M16.5591 18.989L16.2571 18.6148L16.0732 18.248C16.4212 17.8885 16.8151 18.0426 17.1894 18.1379C20.111 18.8611 23.156 18.6475 25.9738 17.5216C26.6304 17.2649 27.1687 16.6999 27.8647 16.5018C28.3374 16.5018 28.8363 16.3331 29.2434 16.7659C29.1794 17.0097 29.0447 17.2227 28.8604 17.3715C28.6762 17.5203 28.4529 17.5963 28.2257 17.5877C28.055 17.5877 28.0879 17.7271 28.0879 17.5877C28.0879 17.5877 28.0879 17.5877 28.1667 17.5877C28.3702 17.6464 28.7116 17.3896 28.7444 17.8738C28.6983 17.9324 28.6402 17.9777 28.575 18.0058C28.5099 18.0339 28.4396 18.044 28.3702 18.0352C27.8969 17.9802 27.4189 18.0619 26.9821 18.2726C26.5452 18.4833 26.1641 18.8159 25.8753 19.2385C25.7676 19.3856 25.6162 19.4846 25.4486 19.5173C23.4421 20.116 21.3646 20.3635 19.2903 20.251C18.8691 20.29 18.4469 20.1906 18.0757 19.9648L17.5701 19.7447L16.9136 19.1945L16.5591 18.989Z" fill="#4A5882"/>
<path d="M27.0244 34.9835C27.0901 32.3569 27.1492 29.7303 27.2345 27.111C27.2673 26.0985 27.4971 25.9224 28.4622 25.9885C28.8758 26.1865 28.9021 26.5974 28.889 27.0156C28.8036 29.4368 28.7445 31.8507 28.6198 34.2645C28.6441 34.5018 28.5982 34.7414 28.4891 34.9468C28.38 35.1521 28.2138 35.3119 28.0158 35.4017C27.9266 35.4503 27.8295 35.4779 27.7304 35.483C27.6312 35.4881 27.5323 35.4706 27.4394 35.4314C27.3466 35.3922 27.2619 35.3323 27.1906 35.2553C27.1192 35.1783 27.0627 35.0858 27.0244 34.9835V34.9835Z" fill="#FBFCFE"/>
<path d="M51.71 33.4354C52.2384 33.9512 52.896 34.273 53.5937 34.3569C54.2913 34.4409 54.9951 34.2832 55.6098 33.905C55.9578 33.7289 56.1941 33.5161 56.5815 33.9857C56.9688 34.4553 58.0193 34.0517 58.1046 33.252C58.3541 30.7941 58.5708 28.3363 58.7612 25.8711C58.7878 25.4478 58.7362 25.0229 58.6097 24.6228C58.4832 24.2227 58.2845 23.8559 58.0259 23.5453C58.8465 23.8754 59.3389 24.8219 59.2667 26.2232C59.1945 27.6246 59.0303 29.158 58.899 30.6254C58.8203 31.4911 58.6955 32.3569 58.6299 33.23C58.5183 34.5947 57.6582 35.189 56.5946 34.5213C56.2335 34.2939 56.0234 34.4699 55.7542 34.5873C54.7811 35.0205 53.7026 35.0568 52.7079 34.69C52.4412 34.6327 52.1989 34.4787 52.0185 34.2519C51.8381 34.0251 51.7296 33.7381 51.71 33.4354V33.4354Z" fill="#FF6E40"/>
<path d="M6.59961 44.8003C6.59961 43.1128 6.59961 41.4253 6.59961 39.7379C6.59961 39.3196 6.59961 38.9161 7.00666 38.718C7.58442 38.718 7.75512 39.0849 7.78794 39.6865C7.86673 40.8457 7.8536 42.005 7.86016 43.1642C7.86016 43.509 7.86016 43.8979 8.14904 44.0886L9.23232 44.1253C9.39052 44.1769 9.5256 44.293 9.61074 44.4506C9.69588 44.6083 9.72485 44.796 9.6919 44.9764C9.65389 45.1602 9.56362 45.3253 9.43461 45.447C9.30561 45.5687 9.1448 45.6404 8.97627 45.6514C8.42737 45.7358 7.87071 45.7358 7.3218 45.6514C6.87536 45.6221 6.68496 45.2552 6.59961 44.8003Z" fill="#FAFBFD"/>
<path d="M18.0752 19.9428C20.4781 19.9428 22.8876 20.1116 25.2249 19.2605C25.2786 19.2419 25.3363 19.2441 25.3887 19.2667C25.4412 19.2894 25.4852 19.3311 25.5138 19.3852C25.5081 20.0077 25.3874 20.6222 25.1592 21.1901C23.8462 21.8138 22.5331 21.579 21.1806 21.3882C20.1302 21.2341 19.0534 21.0727 18.2525 20.1409L18.0752 19.9428Z" fill="#2A3A6C"/>
<path d="M6.59897 44.8003C6.96007 45.402 8.86403 45.8202 9.3236 45.3506C9.78318 44.881 9.52713 44.5069 9.21856 44.1253C9.57965 44.1253 9.665 43.9126 9.65844 43.5531C9.65187 43.1935 9.70439 42.8194 9.73066 42.4819C9.73066 43.0762 9.73065 43.6704 9.816 44.2574C9.84452 44.6362 10.0035 44.9879 10.2595 45.2384C10.5154 45.4888 10.8484 45.6185 11.1882 45.6001C11.7068 45.6001 12.1927 45.0645 12.7507 45.6001C12.8886 45.7248 13.1972 45.402 13.1972 45.0645C13.1972 43.377 13.3088 41.6821 13.1446 40.002C13.0806 39.5639 12.8891 39.1616 12.5997 38.8574C13.486 38.9895 13.6042 39.8332 13.6436 40.5376C13.729 42.093 13.6961 43.6631 13.6436 45.2332C13.6444 45.3732 13.6134 45.5112 13.5536 45.6342C13.4938 45.7572 13.4071 45.8613 13.3016 45.9367C13.196 46.0122 13.0751 46.0566 12.9501 46.0657C12.8251 46.0748 12.7 46.0484 12.5866 45.9889C12.1008 45.7908 11.6674 46.1723 11.2013 45.9889C10.4791 45.7615 9.78974 45.4533 9.00846 45.9229C8.6605 46.1357 8.1287 45.9229 7.69539 45.9229C6.9535 45.9889 6.58584 45.6221 6.59897 44.8003Z" fill="#FF6E40"/>
<path d="M18.2266 20.1409C20.3917 21.2328 22.8022 21.5653 25.1399 21.0947C25.2194 21.1471 25.2816 21.2269 25.3172 21.3222C25.3527 21.4174 25.3596 21.523 25.3369 21.623C25.4025 21.8724 25.4616 22.1292 25.5207 22.3567C23.3082 22.4594 21.0956 22.5254 19.0932 21.1681C18.7387 20.9333 18.3185 20.7205 18.2266 20.1409Z" fill="#1E3D59"/>
<path d="M37.6536 33.2887C36.7738 33.2447 37.0956 32.467 36.9971 31.9534C36.892 31.1683 36.9971 30.8162 37.89 31.095C39.9581 31.7113 41.2908 30.6181 41.514 28.2482C41.6191 27.111 41.7964 25.9151 40.8181 25.0493C41.711 25.2254 41.9408 26.0031 42.0261 26.8249C42.0957 27.6026 42.0536 28.3878 41.9014 29.1507C41.5009 31.3004 40.3848 31.748 38.6187 31.7993C38.2511 31.7993 37.7455 31.3591 37.5617 31.7553C37.4688 32.0012 37.4288 32.2679 37.4448 32.5342C37.4607 32.8005 37.5322 33.0589 37.6536 33.2887V33.2887Z" fill="#FF6E40"/>
<path d="M34.0488 45.6294C34.8167 46.141 35.7159 46.3503 36.6028 46.2237C37.7977 46.2237 38.3951 45.6661 38.5002 44.3528C38.6183 42.8854 38.6512 41.418 38.7168 39.9506C38.7381 39.6362 38.6934 39.3206 38.5862 39.0289C38.4791 38.7372 38.3125 38.4775 38.0997 38.2705C38.9466 38.4246 39.1239 39.1729 39.1764 39.9286C39.2313 41.5221 39.161 43.1179 38.9663 44.6976C38.835 46.231 38.1391 46.7887 36.7472 46.774C35.7296 46.7226 34.6397 47.0014 34.0488 45.6294Z" fill="#FF6E40"/>
<path d="M42.4132 34.2058C42.536 34.3959 42.7013 34.5467 42.8925 34.6433C43.0837 34.7398 43.2942 34.7787 43.503 34.7561C44.2318 34.7561 44.9605 34.7561 45.6893 34.6974C46.0843 34.6792 46.4676 34.5423 46.7988 34.3012C48.217 33.2887 48.4796 29.6863 47.2256 28.4317C47.5464 28.4621 47.846 28.6231 48.0675 28.8842C48.289 29.1452 48.4169 29.4881 48.4271 29.8477C48.6307 31.1856 48.4777 32.5608 47.9872 33.8023C47.8467 34.1659 47.6273 34.4845 47.3486 34.7293C47.07 34.974 46.7411 35.1371 46.3918 35.2037C45.3347 35.3724 44.263 35.3946 43.201 35.2697C43.0858 35.2607 42.9733 35.2256 42.8706 35.1665C42.7678 35.1075 42.6769 35.0258 42.6032 34.9263C42.5295 34.8269 42.4747 34.7117 42.442 34.5879C42.4094 34.464 42.3996 34.334 42.4132 34.2058V34.2058Z" fill="#FF6E40"/>
<path d="M31.6326 33.5675C31.1074 33.6409 31.1008 33.2007 31.0943 32.8338C31.0481 31.3244 31.1074 29.8133 31.2715 28.3143C31.2754 28.1363 31.3146 27.9615 31.3862 27.8025C31.4578 27.6435 31.5601 27.5042 31.6857 27.3948C31.8113 27.2853 31.9571 27.2083 32.1125 27.1694C32.268 27.1305 32.4292 27.1306 32.5846 27.1697C33.031 27.2137 33.484 27.2724 33.9305 27.3091C35.1188 27.4045 35.4143 26.8909 34.9153 25.6069C35.6309 25.6876 35.6506 26.3406 35.5718 26.8542C35.4931 27.3678 35.2961 27.9768 34.6396 27.8961C34.0552 27.8227 33.4644 27.7713 32.88 27.7126C32.7487 27.6801 32.6125 27.6805 32.4813 27.7137C32.3501 27.7469 32.227 27.8121 32.121 27.9046C32.015 27.9972 31.9286 28.1148 31.868 28.249C31.8074 28.3833 31.7741 28.5308 31.7705 28.6811C31.5771 30.3005 31.5309 31.9377 31.6326 33.5675V33.5675Z" fill="#FF6E40"/>
<path d="M15.561 46.5245C15.7054 46.8327 15.8433 47.2068 16.2175 47.0821C16.9529 46.8253 16.5195 46.0476 16.7362 45.5193C16.9791 45.4093 17.1761 45.6514 17.3927 45.7028C17.5939 45.7805 17.8085 45.8048 18.0195 45.7738C18.2306 45.7429 18.4323 45.6575 18.6087 45.5244C18.7851 45.3913 18.9314 45.2142 19.036 45.007C19.1406 44.7998 19.2006 44.5683 19.2113 44.3308C19.2901 42.8634 19.2639 41.396 19.2704 39.9286C19.2404 39.5178 19.0797 39.1325 18.8174 38.8427C19.5987 38.9601 19.7038 39.6718 19.73 40.3101C19.7825 41.6308 19.776 42.9514 19.73 44.2721C19.6841 45.5927 19.0341 46.2824 17.7604 46.2457C17.4387 46.2457 17.0448 46.077 17.1039 46.7153C17.163 47.3536 16.8609 47.6617 16.3685 47.6324C16.243 47.6441 16.1169 47.6215 16.001 47.5664C15.885 47.5113 15.7829 47.4255 15.7034 47.3164C15.6238 47.2073 15.5693 47.0781 15.5445 46.9401C15.5197 46.8022 15.5253 46.6595 15.561 46.5245V46.5245Z" fill="#FF6E40"/>
<path d="M53.752 21.2488C53.8307 20.251 53.9949 20.0969 54.8418 20.317C55.7938 20.5591 56.7458 20.8233 57.6912 21.0507C58.1376 21.7257 57.9866 22.5181 57.3563 22.4814C56.1661 22.4586 54.9961 22.1324 53.9358 21.5276C53.8522 21.4559 53.7884 21.3593 53.752 21.2488V21.2488Z" fill="#FAFBFD"/>
<path d="M23.1435 35.1376C23.5178 35.6072 23.8001 35.5265 23.9905 34.9468C24.7521 32.5305 25.5158 30.1143 26.2818 27.698C26.3546 27.4766 26.3766 27.2383 26.3456 27.005C26.3146 26.7717 26.2317 26.5508 26.1045 26.3626C26.8924 26.502 26.9449 27.2137 26.7611 27.7787C26.006 30.3539 25.1722 32.9145 24.3647 35.4678C24.3362 35.6251 24.2568 35.7652 24.1418 35.8612C24.0268 35.9573 23.8841 36.0027 23.741 35.9887C23.6502 35.9809 23.5619 35.9521 23.4817 35.9041C23.4014 35.8561 23.3309 35.79 23.2747 35.71C23.2186 35.63 23.1779 35.5378 23.1553 35.4392C23.1327 35.3407 23.1287 35.238 23.1435 35.1376Z" fill="#FF6E40"/>
<path d="M53.9026 45.0058C53.4693 45.0865 53.3642 44.7783 53.3511 44.3968C53.3019 43.9464 53.3354 43.4896 53.4496 43.0542C54.8349 43.4137 56.2595 43.8906 57.3428 42.4305C57.7358 41.8016 57.9524 41.0563 57.9653 40.2894C57.9782 39.5225 57.7866 38.7687 57.415 38.1237C57.8155 38.0504 57.9403 38.4466 58.1701 38.674C58.5348 39.6513 58.5721 40.7427 58.2751 41.7482C57.8746 43.465 56.5944 44.2427 54.7889 43.8906C53.6794 43.6778 53.6203 43.7218 53.9026 45.0058Z" fill="#FF6E40"/>
<path d="M45.4463 46.0916C46.3523 46.6492 46.7594 46.4658 46.871 45.3579C47.0351 43.6778 47.173 41.9976 47.2583 40.3028C47.3043 39.5691 47.7573 39.5031 48.184 39.5691C48.6108 39.6351 49.3921 39.0188 49.4971 40.1487C47.7507 40.024 47.7704 40.024 47.6654 41.9829C47.5997 43.3256 47.4684 44.6609 47.3437 45.9962C47.3438 46.1243 47.3207 46.2511 47.2757 46.3689C47.2307 46.4867 47.1647 46.5931 47.0819 46.6815C46.999 46.77 46.9009 46.8388 46.7936 46.8837C46.6862 46.9286 46.5718 46.9487 46.4574 46.9427C45.8993 46.9647 45.4726 46.8106 45.4463 46.0916Z" fill="#FF6E40"/>
<path d="M27.0244 34.9835C27.8779 35.5778 28.3375 35.3357 28.3966 34.2499C28.4951 31.8507 28.5804 29.4515 28.6723 27.0523C28.7204 26.6786 28.6457 26.2981 28.4622 25.9811C29.0006 25.9811 29.1188 26.3993 29.0859 26.8762C29.0203 29.4735 28.9612 32.0635 28.8693 34.6534C28.8693 35.2477 28.6329 35.7686 27.9895 35.82C27.4512 35.864 27.0441 35.7172 27.0244 34.9835Z" fill="#FF6E40"/>
<path d="M19.0078 35.6145C19.3952 35.6145 19.8219 35.9006 20.1174 35.365C20.2229 35.1606 20.2677 34.924 20.2453 34.6894C20.2229 34.4547 20.1344 34.234 19.9926 34.0591C19.8679 33.8463 19.7628 33.6262 19.6447 33.4208C19.3164 32.8411 18.9422 32.4303 19.7497 31.7699C20.7608 30.9335 20.5178 27.8667 19.5396 26.9129C19.8814 26.9517 20.1973 27.1337 20.4239 27.4223C20.6505 27.7108 20.7708 28.0846 20.7608 28.4683C20.8133 29.9357 21.1153 31.4618 19.8416 32.5477C19.5593 32.7971 19.8416 32.9952 19.9204 33.186C20.1568 33.6849 20.4391 34.1544 20.6426 34.6534C20.7121 34.7794 20.7559 34.9211 20.7708 35.0682C20.7857 35.2153 20.7712 35.3643 20.7286 35.5045C20.6859 35.6447 20.6161 35.7727 20.524 35.8792C20.432 35.9857 20.32 36.0682 20.1961 36.1207C20.0938 36.203 19.9748 36.2556 19.8499 36.2739C19.7249 36.2921 19.5978 36.2754 19.48 36.2252C19.3622 36.175 19.2574 36.093 19.175 35.9864C19.0926 35.8798 19.0351 35.752 19.0078 35.6145Z" fill="#FF6E40"/>
<path d="M49.084 46.3851C50.338 46.5905 50.4562 46.5098 50.594 45.0718C50.7516 43.4577 50.8632 41.8362 51.0076 40.2221C51.0782 39.8217 51.0445 39.4071 50.9107 39.0274C50.7769 38.6477 50.5485 38.3188 50.2526 38.0797C50.4481 38.1153 50.6354 38.1937 50.8037 38.3105C50.972 38.4272 51.118 38.58 51.2333 38.76C51.3486 38.9399 51.431 39.1436 51.4756 39.3593C51.5203 39.575 51.5263 39.7984 51.4935 40.0167C51.3884 42.049 51.1915 44.074 51.0011 46.099C51.0047 46.3078 50.9399 46.511 50.8191 46.6704C50.6982 46.8298 50.5295 46.9344 50.3445 46.9647C49.8456 47.0308 49.3203 47.0968 49.084 46.3851Z" fill="#FF6E40"/>
<path d="M39.5381 45.9082C40.4244 46.5245 40.8512 46.3044 40.9102 45.1745C41.0153 43.5751 41.1466 41.983 41.2057 40.3835C41.2021 40.2688 41.2227 40.1547 41.2658 40.0505C41.3089 39.9463 41.3732 39.8548 41.4537 39.7835C41.5342 39.7121 41.6285 39.6628 41.7291 39.6396C41.8297 39.6164 41.9338 39.6199 42.0329 39.6498C42.4531 39.7232 43.1884 39.1142 43.2475 40.2074H43.1622C41.7309 40.1267 41.7112 40.1267 41.5996 41.6748C41.5077 42.9808 41.4749 44.3014 41.383 45.6074C41.3436 46.2017 41.1597 46.7373 40.5032 46.774C39.9714 46.796 39.5512 46.6272 39.5381 45.9082Z" fill="#FF6E40"/>
<path d="M12.6654 34.4699C12.127 34.6093 12.1467 34.1471 12.1008 33.7876C11.9789 33.4051 11.993 32.9849 12.1402 32.6137C12.1796 32.5477 12.4487 32.6137 12.6063 32.6724C14.2214 33.0392 15.1143 32.3129 15.2325 30.4713C15.285 29.4221 15.4229 28.3216 14.6285 27.4705C15.4491 27.6466 15.5607 28.3803 15.6592 29.114C15.7824 29.8733 15.7623 30.653 15.6001 31.4031C15.5694 31.6931 15.4873 31.9734 15.3587 32.2275C15.23 32.4817 15.0574 32.7048 14.8509 32.8837C14.6443 33.0626 14.408 33.1938 14.1557 33.2696C13.9033 33.3454 13.64 33.3644 13.381 33.3254C12.3831 33.2887 12.3503 33.3401 12.6654 34.4699Z" fill="#FF6E40"/>
<path d="M29.1512 45.1085C29.1533 45.2502 29.1835 45.3896 29.2394 45.5167C29.2954 45.6438 29.3758 45.7556 29.4749 45.8439C29.5741 45.9323 29.6894 45.995 29.8128 46.0277C29.9362 46.0604 30.0645 46.0622 30.1886 46.0329H30.3527C32.3945 46.2237 33.143 46.0329 33.1561 43.0248C33.1928 42.6674 33.1258 42.3063 32.9651 41.9946C32.8043 41.6829 32.5583 41.437 32.2632 41.2933C32.538 41.2836 32.8072 41.3807 33.0251 41.568C33.2429 41.7553 33.396 42.0212 33.4581 42.3205C33.6333 42.8974 33.6981 43.5089 33.6483 44.1156C33.5986 44.7223 33.4353 45.3105 33.1692 45.8422C33.0445 46.0904 32.8607 46.2952 32.6382 46.4337C32.4157 46.5723 32.1632 46.6393 31.9087 46.6272C31.3506 46.6272 30.7926 46.6272 30.2345 46.6272C29.3876 46.5172 29.1053 46.1137 29.1512 45.1085Z" fill="#FF6E40"/>
<path d="M42.9316 45.9449C43.7654 46.6786 44.2775 46.4365 44.376 45.2919C44.5205 43.553 44.6255 41.8069 44.7371 40.068C44.7794 39.7292 44.741 39.3839 44.6257 39.067C44.5105 38.7501 44.3224 38.4728 44.0806 38.2631C44.398 38.3193 44.6844 38.5082 44.8819 38.7916C45.0793 39.0749 45.1731 39.4315 45.1442 39.7892C45.139 41.8621 45.0184 43.9327 44.7831 45.9889C44.779 46.1165 44.7519 46.2419 44.7033 46.3574C44.6547 46.473 44.5857 46.5764 44.5005 46.6614C44.4152 46.7464 44.3155 46.8112 44.2072 46.852C44.0989 46.8928 43.9844 46.9087 43.8705 46.8987C43.3715 46.884 42.9316 46.6492 42.9316 45.9449Z" fill="#FF6E40"/>
<path d="M21.6338 44.4555C20.7409 44.4555 21.0823 43.6558 21.0954 43.2156C21.0954 42.4819 21.555 43.0468 21.7519 43.0908C23.1438 43.3623 23.9054 42.7387 23.9973 41.1392C24.0564 40.112 24.1877 39.0335 23.111 38.4686C24.2927 38.5346 24.3256 39.6498 24.621 40.5229C24.6692 41.4094 24.6384 42.2991 24.5291 43.1789V42.0563C24.2402 42.5626 24.0958 43.1495 23.5705 43.3916C23.1134 43.6363 22.6001 43.7183 22.0999 43.6264C21.2464 43.4283 21.4302 43.9199 21.6338 44.4555Z" fill="#FF6E40"/>
<path d="M27.208 45.8055C27.5494 45.9522 27.8645 46.143 28.1994 45.7321C28.3156 45.5725 28.3791 45.373 28.3791 45.1672C28.3791 44.9614 28.3156 44.7619 28.1994 44.6022C28.0812 44.3895 27.9827 44.162 27.8514 43.9566C27.5297 43.4577 27.3393 43.1275 27.9893 42.6066C28.9084 41.8729 28.718 39.349 27.8186 38.4539C28.2219 38.5446 28.5775 38.8079 28.8093 39.1877C29.0412 39.5675 29.131 40.0335 29.0594 40.4862C29.0004 41.4767 29.0594 42.5919 28.1928 43.2889C27.8974 43.5237 28.0878 43.7071 28.1928 43.9199C28.3935 44.3187 28.5733 44.7303 28.7312 45.1525C28.7875 45.2718 28.8191 45.4038 28.8234 45.5386C28.8277 45.6734 28.8047 45.8075 28.756 45.931C28.7074 46.0545 28.6345 46.1641 28.5426 46.2516C28.4508 46.3391 28.3424 46.4023 28.2256 46.4365C27.7332 46.6639 27.3196 46.5025 27.208 45.8055Z" fill="#FF6E40"/>
<path d="M44.6063 28.439C44.3437 28.5124 44.1795 28.439 44.1073 28.1162C44.0364 27.8801 44.016 27.6287 44.0478 27.3822C44.0796 27.1358 44.1627 26.901 44.2904 26.697C44.4181 26.4929 44.5868 26.3251 44.7831 26.2072C44.9793 26.0892 45.1976 26.0244 45.4204 26.0178C45.9522 26.0178 46.484 26.0178 47.0158 26.0178C47.5476 26.0178 47.9612 26.4507 48.2895 25.7757C48.4286 25.4988 48.4727 25.1747 48.4135 24.8641C48.3543 24.5535 48.1958 24.2777 47.9678 24.0882C48.1369 24.1275 48.2967 24.2068 48.4363 24.3206C48.5759 24.4345 48.6921 24.5803 48.7772 24.7484C48.8624 24.9164 48.9144 25.1029 48.93 25.2952C48.9455 25.4875 48.9241 25.6814 48.8672 25.8637C48.644 26.7368 48.1319 26.8395 47.436 26.5974C47.0536 26.5117 46.6635 26.4772 46.2739 26.4947C44.7835 26.5534 44.6128 26.7515 44.6063 28.439Z" fill="#FF6E40"/>
<path d="M6.51367 35.8273C7.30808 36.4216 8.16815 36.2015 9.01508 36.0841C9.15172 36.0504 9.28062 35.9855 9.39363 35.8933C9.50664 35.8011 9.6013 35.6837 9.67162 35.5485C10.3282 34.5066 10.164 32.0047 9.34991 31.095C10.1181 31.1904 10.3741 31.8287 10.4398 32.5257C10.512 33.3013 10.512 34.0832 10.4398 34.8588C10.4362 35.1192 10.3846 35.3759 10.2882 35.6129C10.1918 35.85 10.0526 36.0622 9.87948 36.2364C9.70633 36.4107 9.50288 36.5431 9.28185 36.6254C9.06082 36.7078 8.82696 36.7383 8.5949 36.7151C7.83988 36.7004 6.85507 37.1846 6.51367 35.8273Z" fill="#FF6E40"/>
<path d="M35.6513 33.8316C35.7938 34.2657 36.0711 34.6281 36.4325 34.853C36.794 35.0779 37.2157 35.1502 37.6209 35.0569C38.3694 34.9762 39.1244 34.9909 39.8794 34.8882C40.09 34.8788 40.294 34.8029 40.4676 34.6694C40.6413 34.5359 40.7775 34.3502 40.8607 34.1337C40.9438 33.9172 40.9703 33.6789 40.9373 33.4463C40.9042 33.2136 40.8129 32.9962 40.6738 32.8192C41.3304 32.8192 41.4157 33.3914 41.4223 33.9417C41.4474 34.2484 41.373 34.5549 41.2127 34.8054C41.0524 35.056 40.8169 35.2337 40.5491 35.3064C39.3572 35.6803 38.1058 35.753 36.8856 35.5191C36.5316 35.4534 36.211 35.2459 35.9839 34.9354C35.7567 34.6248 35.6385 34.2325 35.6513 33.8316V33.8316Z" fill="#FF6E40"/>
<path d="M51.874 45.3946C52.0071 45.797 52.2577 46.1376 52.5853 46.3612C52.9129 46.5849 53.2984 46.6786 53.6795 46.6272C54.5165 46.6969 55.357 46.6969 56.194 46.6272C57.1526 46.4365 57.3889 45.7248 56.8112 44.815C57.3167 44.727 57.5006 45.1525 57.6056 45.5487C57.796 46.2824 57.3824 46.7006 56.9491 47.1041C55.7625 47.3107 54.5558 47.3305 53.3644 47.1628C52.5174 47.0894 52.0382 46.4658 51.874 45.3946Z" fill="#FF6E40"/>
<path d="M29.8408 34.4846C31.0095 35.7979 32.467 35.3064 33.78 35.1303C34.7452 34.9982 34.9552 34.1618 34.4366 33.142C34.6212 33.2131 34.7858 33.3375 34.9137 33.5024C35.0415 33.6674 35.1282 33.8672 35.1648 34.0816C35.2014 34.296 35.1868 34.5174 35.1223 34.7234C35.0579 34.9295 34.9459 35.1128 34.7977 35.255C34.4362 35.6149 33.9687 35.8134 33.4846 35.8126C32.8609 35.8126 32.2437 35.8126 31.6266 35.8126C31.2375 35.8556 30.8471 35.7468 30.5216 35.5048C30.1962 35.2627 29.9556 34.9023 29.8408 34.4846Z" fill="#FF6E40"/>
<path d="M30.8914 41.2713C30.4318 41.4107 30.3662 41.1172 30.3859 40.7137C30.4055 40.3101 30.3859 39.7085 30.9964 39.6718C31.4155 39.6758 31.8342 39.7052 32.2504 39.7599C32.5918 39.7599 33.0251 40.2294 33.2681 39.5984C33.3657 39.3682 33.3856 39.1062 33.3241 38.8608C33.2626 38.6154 33.1238 38.4031 32.9332 38.2631C33.0845 38.2836 33.2297 38.3414 33.3584 38.4326C33.4871 38.5237 33.596 38.6457 33.6771 38.7898C33.7583 38.9339 33.8096 39.0964 33.8274 39.2655C33.8453 39.4346 33.8291 39.606 33.7801 39.7672C33.6094 40.5009 33.2155 40.6329 32.6246 40.3468C32.4134 40.2611 32.1924 40.2092 31.9681 40.1927C31.0424 40.0607 30.9176 40.1927 30.8914 41.2713Z" fill="#FF6E40"/>
<path d="M53.7517 21.2488C54.8449 21.8631 56.0368 22.2273 57.2576 22.32C57.9141 22.43 57.9142 21.6743 57.6909 21.08C58.4197 21.1387 58.3475 21.733 58.2818 22.254C58.2647 22.3722 58.2253 22.485 58.1662 22.5849C58.1071 22.6848 58.0296 22.7695 57.939 22.8334C57.8483 22.8972 57.7465 22.9388 57.6403 22.9553C57.5342 22.9717 57.4261 22.9628 57.3233 22.929C56.3319 22.7015 55.3536 22.4374 54.3754 22.1366C54.1917 22.1008 54.0263 21.9903 53.9112 21.8264C53.796 21.6625 53.7392 21.4567 53.7517 21.2488V21.2488Z" fill="#FF6E40"/>
<path d="M11.0043 34.7561C11.2866 35.233 11.3851 35.952 12.0285 35.9813C12.9148 36.0254 13.8603 36.2235 14.6547 35.6879C15.2062 35.3137 15.0945 34.6754 14.7794 34.1178C15.3769 34.2131 15.4359 34.7047 15.4359 35.2256C15.4562 35.4654 15.402 35.7057 15.2824 35.9061C15.1629 36.1065 14.9853 36.2548 14.7794 36.3262C13.9003 36.6538 12.957 36.702 12.0548 36.4656C11.7258 36.3679 11.439 36.1417 11.2463 35.8282C11.0537 35.5146 10.9678 35.1343 11.0043 34.7561V34.7561Z" fill="#FF6E40"/>
<path d="M20.0381 45.0718C20.8916 46.2017 22.0405 45.8715 23.1041 45.8055C23.7607 45.7468 23.8526 45.1378 23.4652 44.2868C23.9773 44.0667 24.0233 44.5802 24.1217 44.8811C24.1877 45.0679 24.2036 45.2721 24.1675 45.4688C24.1313 45.6656 24.0447 45.8463 23.9182 45.9889C23.091 46.9647 20.4648 46.3338 20.0381 45.0718Z" fill="#FF6E40"/>
<path d="M7.92589 31.095C7.42036 31.2637 7.42036 30.8748 7.42693 30.5153C7.42693 30.0311 7.34158 29.4588 7.95216 29.2974C8.31276 29.2277 8.6814 29.2277 9.04201 29.2974C9.36371 29.2974 9.77076 29.7083 9.99399 29.1213C10.0844 28.9058 10.107 28.6624 10.0581 28.4307C10.0093 28.199 9.89182 27.9925 9.72481 27.8447L9.60006 27.72C9.77044 27.7522 9.93181 27.8281 10.0714 27.9419C10.2111 28.0557 10.3252 28.2041 10.4047 28.3755C10.4843 28.5469 10.5271 28.7367 10.5299 28.9297C10.5327 29.1228 10.4953 29.314 10.4207 29.4882C10.3778 29.6566 10.2774 29.7995 10.141 29.886C10.0047 29.9725 9.84343 29.9956 9.69198 29.9504C9.52785 29.9064 9.37028 29.8403 9.20614 29.811C8.07033 29.5982 7.89963 29.7816 7.92589 31.095Z" fill="#FF6E40"/>
<path d="M35.0736 16.5201C33.9997 16.4337 33.1088 17.5463 32.019 17.3519C31.9554 16.4229 32.4724 15.9152 32.8145 15.2779C32.901 15.2031 32.9947 15.1449 33.0929 15.1051C33.8884 15.1051 34.4691 14.0789 35.2964 14.5758V16.5201H35.0736Z" fill="#1E3D59"/>
<path d="M52.3135 25.805C52.6167 25.9288 52.9511 25.9156 53.2458 25.7684C54.0062 25.3716 54.8443 25.1974 55.6815 25.2621C56.2199 25.3135 56.7517 25.4529 56.7911 26.2453C55.6881 25.3722 54.6048 25.9078 53.5478 26.3553C52.9241 26.6195 52.5367 26.5094 52.3135 25.805Z" fill="#FF6E40"/>
<path d="M8.1351 44.0887C7.63614 44.2354 7.59674 43.9126 7.59674 43.4797C7.59674 42.2104 7.59674 40.9338 7.59674 39.6645C7.59674 39.1803 7.50483 38.7987 7.00586 38.718C7.6624 38.5346 7.95127 38.9235 7.97753 39.6058C8.03006 41.0952 8.07602 42.5919 8.1351 44.0887Z" fill="#FF6E40"/>
<path d="M16.0668 35.211C16.2244 35.5998 16.4214 35.9447 16.8809 35.7833C17.3405 35.6218 17.3339 35.2697 17.3339 34.8808C17.3257 34.0774 17.3563 33.274 17.4259 32.4743C17.8854 33.208 18.4632 33.8536 18.5945 34.7708L17.7541 33.4721C17.7541 34.2058 17.7541 34.668 17.7541 35.1449C17.7541 35.7833 17.5834 36.2968 16.9597 36.3409C16.336 36.3849 16.0274 35.9227 16.0668 35.211Z" fill="#FF6E40"/>
<path d="M24.51 45.3946C24.5706 45.5693 24.6887 45.7114 24.84 45.7919C24.9914 45.8724 25.1646 45.8851 25.3241 45.8275C25.6917 45.6881 25.6852 45.3139 25.6917 44.9764C25.6917 44.3674 25.6917 43.7585 25.6917 42.8781C26.0894 43.3408 26.3801 43.9049 26.5387 44.5215C26.3351 44.4482 26.1644 44.4115 26.1776 44.771C26.1816 45.0689 26.1574 45.3665 26.1054 45.6587C26.0938 45.7751 26.0606 45.8874 26.0081 45.9887C25.9555 46.0899 25.8847 46.1778 25.8001 46.2468C25.7155 46.3158 25.619 46.3644 25.5167 46.3895C25.4144 46.4145 25.3086 46.4156 25.2059 46.3924C25.0974 46.3901 24.9908 46.3607 24.8938 46.3065C24.7968 46.2522 24.7119 46.1745 24.6452 46.0788C24.5785 45.9832 24.5317 45.8722 24.5084 45.7538C24.485 45.6354 24.4855 45.5127 24.51 45.3946V45.3946Z" fill="#FF6E40"/>
<path d="M23.8461 30.9776C23.8578 31.1003 23.8388 31.2242 23.7913 31.3356C23.7438 31.447 23.6696 31.5415 23.5769 31.6086C23.1633 30.2512 22.7628 28.9232 22.3689 27.5806C22.295 27.2152 22.1467 26.8737 21.9355 26.5828C22.4411 26.5828 22.5921 26.979 22.7037 27.3972C23.0216 28.6146 23.403 29.8101 23.8461 30.9776V30.9776Z" fill="#FF6E40"/>
<path d="M42.7549 29.6569C43.5033 30.7648 44.5472 30.3906 45.5123 30.2879C46.1689 30.2145 46.5431 30.398 46.3921 31.227C46.2871 30.8382 46.0047 30.8675 45.7356 30.8822C45.2103 30.8822 44.6851 30.9629 44.1599 30.9262C43.8248 30.9558 43.4924 30.8406 43.231 30.6045C42.9696 30.3684 42.7992 30.0292 42.7549 29.6569Z" fill="#FF6E40"/>
<path d="M29.2363 41.7775C29.558 42.7753 30.2474 42.9001 31.0746 42.834C31.4226 42.834 32.0135 42.5479 31.9281 43.4137L30.7464 43.377C29.7813 43.3476 29.3873 42.9074 29.2363 41.7775Z" fill="#FF6E40"/>
<path d="M9.86891 39.5031C9.86891 40.2368 10.1381 40.3835 10.7618 40.1194C11.3855 39.8553 11.9961 39.7452 12.1537 40.7724C11.6547 40.9118 11.1163 40.5156 10.6371 40.9264C9.928 40.7724 9.69164 40.2735 9.86891 39.5031Z" fill="#FF6E40"/>
<path d="M6.50684 32.2249C6.7608 32.4595 7.06237 32.621 7.38515 32.6952C7.70792 32.7694 8.04205 32.754 8.35827 32.6504C8.75876 32.5183 9.01481 32.7164 8.94915 33.2373C8.70734 33.2007 8.46221 33.2007 8.2204 33.2373C8.04872 33.306 7.86613 33.334 7.68424 33.3195C7.50235 33.305 7.32516 33.2483 7.16396 33.1531C7.00276 33.0578 6.86107 32.9261 6.74794 32.7663C6.6348 32.6065 6.55269 32.4221 6.50684 32.2249V32.2249Z" fill="#FF6E40"/>
<path d="M26.5312 44.5215C26.8707 44.8751 27.1006 45.3402 27.1878 45.8495C27.0046 45.6884 26.8521 45.4878 26.7393 45.2598C26.6266 45.0317 26.5558 44.7807 26.5312 44.5215V44.5215Z" fill="#FF6E40"/>
<path d="M63.9015 49.7821L64.3742 48.4541C64.3742 48.931 64.7615 49.0117 65.0307 49.1878C66.7311 50.4277 67.9917 51.9978 67.9195 54.441C67.868 55.274 67.658 56.0852 67.3036 56.8202C66.9493 57.5553 66.4586 58.1975 65.8645 58.7038C63.5938 60.9322 60.7707 62.3369 57.7694 62.7318C56.4097 62.8981 55.0374 62.8907 53.6792 62.7097C52.2085 62.5043 50.7313 62.4163 49.2541 62.2475C47.2845 62.0201 45.374 61.7633 43.4306 61.5138C41.2969 61.2497 39.1566 61.0002 37.0228 60.7214C34.7775 60.4353 32.5387 60.1125 30.2933 59.819C28.2121 59.5475 26.1243 59.3348 24.0496 59.0119C20.1958 58.4617 16.3025 58.0948 12.5668 56.8696C11.3522 56.4734 10.1114 55.9818 9.36947 54.6685C9.27099 54.4997 8.98212 54.4704 8.78516 54.375L10.6432 54.5658C11.1373 54.6148 11.6141 54.7933 12.035 55.0867C13.4881 55.8353 15.0401 56.316 16.6308 56.51C21.069 57.2951 25.5269 57.8527 29.9847 58.447C33.5497 58.9239 37.1147 59.4155 40.6797 59.863C44.1134 60.2959 47.5405 60.7214 50.9742 61.0883C52.8697 61.3386 54.7775 61.4538 56.6861 61.4331C59.7248 61.3175 62.632 60.0201 64.906 57.7647C65.3406 57.3845 65.7036 56.9119 65.974 56.3742C66.2445 55.8365 66.417 55.2444 66.4816 54.6318C66.6458 52.9003 65.8251 51.697 64.6959 50.7139C64.3939 50.4424 64.0393 50.237 63.9015 49.7821Z" fill="#B9CAE3"/>
<path d="M62.7006 52.6288L63.1405 51.8584C63.4819 51.6383 63.7248 51.8584 63.9678 52.0932C64.464 52.5242 64.7987 53.1462 64.9067 53.838C65.0148 54.5298 64.8883 55.2418 64.5521 55.8351C63.8042 57.1064 62.7247 58.0899 61.4598 58.6524C59.1052 59.8887 56.4794 60.3323 53.903 59.9291C52.0056 59.6943 50.1017 59.4962 48.2043 59.3054C45.2958 59.0266 42.3939 58.6378 39.492 58.2636C37.0957 57.9554 34.6928 57.684 32.3161 57.2217C31.6775 57.0028 31.0143 56.8867 30.3465 56.8769C30.2899 56.8866 30.232 56.8815 30.1775 56.8618C30.123 56.8421 30.0734 56.8085 30.0326 56.7636C29.9918 56.7187 29.9609 56.6638 29.9425 56.6032C29.924 56.5426 29.9185 56.4781 29.9263 56.4147C31.7777 56.356 33.6029 56.7448 35.4478 56.8329C37.0891 56.9136 38.7305 57.1704 40.3652 57.3171C43.2081 57.5813 46.0443 57.8747 48.9002 58.0508C50.9097 58.2648 52.9294 58.3359 54.9469 58.2636C56.7302 58.5192 58.5422 58.2433 60.1992 57.4639C60.879 57.1637 61.5211 56.7667 62.1098 56.2826C63.2259 55.4022 63.4228 54.5071 62.8385 53.1351C62.7848 53.0664 62.7448 52.9857 62.721 52.8985C62.6973 52.8112 62.6903 52.7193 62.7006 52.6288V52.6288Z" fill="#4C76B7"/>
<path d="M63.9019 49.7821C64.4336 50.237 65.0048 50.6112 65.5235 51.1174C65.9109 51.5092 66.2223 51.9856 66.4384 52.5172C66.6546 53.0488 66.7708 53.6243 66.7801 54.2081C66.7893 54.7919 66.6913 55.3716 66.4921 55.9114C66.2929 56.4512 65.9968 56.9396 65.622 57.3465C63.7107 59.5575 61.2042 61.0084 58.4854 61.4772C56.0854 61.8331 53.6511 61.7862 51.2635 61.3378C48.8803 61.0223 46.4774 60.8609 44.0876 60.5307C41.4286 60.1639 38.7565 59.9144 36.1041 59.4668C33.8915 59.1 31.6593 58.9459 29.4336 58.6525C27.4115 58.3883 25.3894 58.0728 23.3738 57.772C21.1547 57.4419 18.9356 57.1337 16.7297 56.7669C15.1804 56.5464 13.6584 56.1304 12.193 55.5269C11.6284 55.2848 11.3132 54.5731 10.6436 54.5731C11.268 54.593 11.8908 54.6567 12.5081 54.7639C13.9728 55.3043 15.4718 55.7212 16.9923 56.0112C19.7957 56.5101 22.6122 56.8916 25.4222 57.2804C28.5429 57.7158 31.6637 58.1413 34.7844 58.5571C37.4106 58.9092 40.0892 59.188 42.7351 59.5549C45.7486 59.9658 48.7621 60.2886 51.7822 60.6408C54.2639 60.9269 56.7784 61.2204 59.247 60.4867C61.5318 59.8043 63.6589 58.7332 65.1558 56.5981C66.423 54.8006 66.121 52.7242 64.4993 51.3008C64.1776 51.0147 63.6392 50.8313 63.8428 50.149L63.9019 49.7821Z" fill="#94ADD4"/>
<path d="M63.8621 50.1196C63.9081 50.6039 64.302 50.7653 64.5712 50.9927C67.02 53.0837 66.4817 55.8938 64.5252 57.7427C62.5731 59.5979 60.1664 60.7535 57.6184 61.059C56.1924 61.2301 54.7531 61.2104 53.3312 61.0003C51.9788 60.8022 50.6066 60.7068 49.2476 60.5454C46.8315 60.2593 44.4155 59.9584 42.0257 59.665C40.3318 59.4595 38.6379 59.2614 36.9441 59.034C34.7315 58.7479 32.5124 58.425 30.2999 58.1316C28.2187 57.8601 26.1309 57.64 24.0562 57.3318C21.5089 56.9503 18.9549 56.5981 16.4273 56.1212C15.0644 55.9621 13.7456 55.49 12.5537 54.7346C13.5254 54.6759 14.4577 55.0574 15.4162 55.1014C16.7693 55.4901 18.1481 55.7575 19.5393 55.9011C23.9446 56.6348 28.3828 57.1851 32.8079 57.7867C36.5633 58.3003 40.3318 58.7332 44.0938 59.2027C47.7113 59.6503 51.3157 60.1125 54.966 60.428C58.2224 60.7369 61.4577 59.6098 63.9803 57.2878C64.405 56.9179 64.7561 56.4531 65.011 55.9231C65.3994 55.2563 65.5437 54.4482 65.4142 53.6658C65.2847 52.8835 64.8912 52.1866 64.3151 51.7191C63.9882 51.471 63.7273 51.1288 63.5601 50.7286L63.8621 50.1196Z" fill="#8BA6D0"/>
<path d="M29.906 56.4294C30.0111 56.5247 30.1096 56.7008 30.2212 56.7008C32.3877 56.7815 34.4887 57.4345 36.6487 57.6326C38.3754 57.7794 40.0889 58.0655 41.809 58.2856L47.2123 58.9679C48.4072 59.122 49.6021 59.3275 50.797 59.3861C52.5303 59.4742 54.2439 59.8264 55.9837 59.8044C58.6422 59.8449 61.2328 58.8661 63.3238 57.031C64.9782 55.5636 65.3328 53.7074 63.6652 52.1006C63.5218 51.9499 63.3363 51.8592 63.1399 51.8438L63.5273 51.0441C63.7655 51.1966 63.9861 51.3815 64.1838 51.5943C65.7792 53.0617 65.9105 55.1014 64.4465 56.7302C62.5725 58.7995 60.1114 60.0735 57.4872 60.3326C55.209 60.6408 52.9702 60.1932 50.7117 59.9951C48.8406 59.8337 46.9826 59.5696 45.118 59.3641C43.2534 59.1587 41.5661 58.9166 39.7935 58.6891C38.1587 58.469 36.5108 58.2783 34.8826 58.0655L28.3172 57.1777C26.7415 56.9576 25.1615 56.7473 23.577 56.5468C22.4609 56.4074 21.3579 56.1946 20.2549 55.9818C19.9857 55.9305 19.756 55.8277 19.7691 55.4536C21.4433 55.3875 23.0977 55.7324 24.7653 55.8424C26.4329 55.9525 28.1925 56.2606 29.906 56.4294Z" fill="#6D8FC4"/>
<path d="M19.7689 55.4829C20.6156 55.9112 21.5261 56.16 22.4542 56.2166C25.9929 56.7669 29.5316 57.2584 33.0769 57.728C35.7687 58.0875 38.4671 58.359 41.1589 58.6965C43.982 59.056 46.8051 59.5109 49.6348 59.7897C51.4206 59.9584 53.1998 60.1418 54.9921 60.2519C57.4255 60.4285 59.8555 59.8549 62.0171 58.5937C62.9607 58.0375 63.8042 57.2913 64.5054 56.3927C64.751 56.1103 64.9433 55.7755 65.0707 55.4083C65.1982 55.0411 65.2581 54.6489 65.2471 54.2553C65.2361 53.8616 65.1543 53.4745 65.0065 53.1169C64.8588 52.7593 64.6482 52.4386 64.3872 52.1739C64.0852 51.8218 63.6059 51.6457 63.5074 51.0881C63.5074 50.978 63.5074 50.8753 63.56 50.7726C64.4269 51.3562 65.1139 52.2213 65.5296 53.2525C65.9891 54.6685 65.326 56.5467 63.9736 57.6546C61.4805 59.8438 58.3534 60.9303 55.1891 60.7068C52.563 60.5087 49.8974 60.2299 47.2647 59.8337C45.0193 59.5035 42.7609 59.3128 40.5089 59.034C38.257 58.7552 36.0707 58.4617 33.8516 58.1462C31.2977 57.8087 28.7438 57.5079 26.1899 57.141C22.8218 56.6568 19.4341 56.1285 16.0595 55.6003C15.9171 55.5854 15.78 55.5323 15.66 55.4454C15.5399 55.3586 15.4405 55.2405 15.3701 55.1014L19.7689 55.4829Z" fill="#6E90C5"/>
<path d="M62.7001 52.6288C63.7702 54.1769 63.5601 55.4315 62.1223 56.5761C60.5527 57.743 58.7475 58.4541 56.87 58.6451C56.1964 58.8065 55.4931 58.6781 54.9004 58.2856C56.2554 57.9546 57.5617 57.4112 58.7805 56.6715C60.3034 55.6121 61.6333 54.2405 62.7001 52.6288V52.6288Z" fill="#4F5C85"/>
<path d="M27.8974 16.7219C26.7611 17.5246 25.5045 18.0913 24.1879 18.3947C21.8344 19.011 19.3852 19.011 17.0317 18.3947C16.7085 18.2979 16.3749 18.251 16.0403 18.2553H15.8762C15.3696 17.6151 14.9189 16.9223 14.5303 16.1863C14.9256 16.1594 15.3184 16.2724 15.653 16.5092C15.815 16.5993 15.9919 16.6511 16.1727 16.6612C16.3535 16.6713 16.5342 16.6395 16.7034 16.5679C16.7494 16.5312 16.8216 16.4871 16.8544 16.5092C18.5286 17.7197 20.3866 17.4483 22.2249 17.3236C23.538 17.6244 24.746 17.0007 25.9672 16.5899C26.288 16.4026 26.6378 16.2856 26.9979 16.245C27.3196 16.3331 27.7726 16.1717 27.8974 16.7219Z" fill="#616D92"/>
<path d="M16.1784 15.2325C16.1784 14.6456 15.8567 14.0586 16.1784 13.479C16.874 13.7141 17.5578 13.9909 18.2268 14.3081C19.0009 14.5682 19.8223 14.5985 20.6101 14.3961C21.0828 14.3081 21.5095 14.0293 21.4504 13.3396C20.9843 12.3785 20.0914 12.4518 19.3298 12.3051C18.4431 12.1811 17.583 11.883 16.789 11.4247C16.382 11.1605 15.9552 10.9037 15.8567 10.3168L15.6007 9.70783C15.0361 8.52658 15.7779 7.66083 16.1916 6.7217C18.1874 4.60133 20.5444 4.16845 23.1509 5.00486C23.702 5.18475 24.1693 5.59636 24.4545 6.15321C24.7398 6.71005 24.8208 7.36878 24.6806 7.99099C24.5296 8.64397 24.1882 8.43854 23.8599 8.24778C22.9324 7.71541 21.8937 7.4721 20.853 7.54344C20.5738 7.55393 20.2964 7.59821 20.0257 7.6755C19.6318 7.80756 19.1197 7.85892 19.1132 8.46055C19.1066 9.06218 19.6121 9.0475 19.9667 9.19424C20.9021 9.35484 21.8243 9.60022 22.7241 9.92794C23.9518 10.5516 24.8841 11.4907 24.8579 13.1122C24.8554 13.8883 24.6478 14.6464 24.2612 15.2912C23.8746 15.936 23.3261 16.4389 22.6847 16.7366C21.924 17.1494 21.097 17.3881 20.2525 17.4385C19.408 17.4889 18.563 17.35 17.7673 17.0301C17.3816 16.9192 17.0302 16.6935 16.7503 16.3769C16.4705 16.0603 16.2729 15.6648 16.1784 15.2325V15.2325Z" fill="#FF6E40"/>
<path d="M25.9996 6.36951C26.0718 4.98283 26.0718 4.9755 27.3127 4.98283C27.8379 4.98283 28.3631 4.98283 28.8884 4.98283C30.0898 5.12957 30.6479 5.7899 30.556 7.05918C30.359 9.61977 30.1292 12.195 29.9322 14.7336C29.8009 16.3551 29.3676 16.6779 27.9626 16.3551C27.3725 16.2757 26.8204 15.9878 26.3869 15.5333C25.9903 15.0356 25.7789 14.3873 25.7961 13.7211C25.7961 12.804 25.7501 11.8942 25.7961 10.9844C25.842 9.81787 25.7501 8.65863 25.7961 7.4994C25.7339 7.10757 25.8066 6.70397 25.9996 6.36951V6.36951Z" fill="#FF6E40"/>
<path d="M25.9995 6.36952C25.9995 7.94696 25.9995 9.51706 25.9995 11.0872C25.5334 10.9551 25.6778 10.5075 25.6516 10.1774C25.6122 9.62711 25.389 9.54641 24.995 9.76651C24.6011 9.98662 24.2597 10.2141 23.8921 10.4342C23.4259 10.5956 23.1173 10.0233 22.6643 10.126L19.9266 9.39233C19.769 9.09885 19.2306 9.13554 19.3423 8.59261C19.3925 8.37539 19.5014 8.18072 19.6541 8.03502C19.8068 7.88933 19.9959 7.79967 20.1958 7.77821C20.8578 7.58419 21.5481 7.54202 22.2252 7.65424C22.9022 7.76647 23.5518 8.03077 24.135 8.43119C24.6405 8.7907 24.7456 8.55592 24.89 8.08636C25.0344 7.61679 24.6733 6.89778 25.0082 6.34751C25.0082 6.03936 25.0082 5.68718 25.3627 5.61381C25.7172 5.54044 25.7238 6.17142 25.9995 6.36952Z" fill="#D6DFEE"/>
<path d="M26.519 15.4086C27.2937 16.1423 28.226 16.1423 29.1452 16.1863C29.4931 16.1863 29.5588 16.0249 29.585 15.6948C29.828 12.76 30.0971 9.82523 30.3335 6.89046C30.4057 5.95867 29.979 5.42307 28.8891 4.9902L29.0598 4.83612C29.4393 4.87902 29.8043 5.02172 30.125 5.25254C30.4456 5.48335 30.7128 5.79573 30.9047 6.1641C30.9468 7.59403 30.8566 9.02499 30.6355 10.4342C30.6355 10.7717 30.6355 11.1165 30.5961 11.4614C30.4921 12.145 30.4372 12.8369 30.432 13.5304C30.3142 14.2147 30.2548 14.9099 30.2547 15.6067C30.3747 15.7989 30.4287 16.0329 30.407 16.266C30.3853 16.499 30.2893 16.7155 30.1365 16.876C30.0864 16.9505 30.0214 17.0109 29.9468 17.0524C29.8722 17.094 29.7899 17.1157 29.7065 17.1157C29.6231 17.1157 29.5409 17.094 29.4662 17.0524C29.3916 17.0109 29.3266 16.9505 29.2765 16.876C28.8254 16.7396 28.358 16.6826 27.8912 16.7073C27.6483 16.3918 27.2346 16.7073 26.9786 16.3551C26.6897 16.1643 26.2761 16.1056 26.2695 15.6214C26.3089 15.46 26.368 15.3573 26.519 15.4086Z" fill="#FAFBFD"/>
<path d="M25.0015 6.36951C25.1517 7.03416 25.1741 7.72683 25.0672 8.40184C24.8899 9.06217 24.6995 9.13553 24.2071 8.78336C23.6338 8.35785 22.9865 8.07252 22.3077 7.94608C21.6288 7.81964 20.9337 7.85494 20.2679 8.04967C19.8937 8.13771 19.4735 8.21108 19.4604 8.69532C19.4472 9.17956 19.9659 9.14287 20.4058 9.33363L19.8871 9.42901C19.3619 9.33363 18.7513 9.27494 18.7579 8.47521C18.7644 7.67549 19.3159 7.61679 19.8215 7.48473C21.3632 7.08874 22.9825 7.38374 24.3319 8.30646C24.693 6.83908 24.4566 6.21544 23.1304 5.04887C23.6688 4.66001 23.9445 5.19561 24.2531 5.49642C24.519 5.76926 24.769 6.06089 25.0015 6.36951V6.36951Z" fill="#F6F8FB"/>
<path d="M34.8177 14.851C34.1612 14.9097 33.6425 15.504 32.9531 15.4086C33.0068 14.3471 33.2931 13.3166 33.7869 12.4078C33.8165 12.342 33.8628 12.2874 33.92 12.2508C33.9773 12.2143 34.0429 12.1974 34.1086 12.2024C34.6554 12.7894 34.9738 13.5931 34.995 14.4401C34.995 14.5649 34.995 14.6969 34.995 14.8217L34.8177 14.851Z" fill="#1E3D59"/>
<path d="M15.8568 10.3168C16.6775 11.454 17.8264 11.7842 19.0476 12.0043C19.6025 12.0958 20.1526 12.2207 20.6955 12.3785C21.1025 12.5105 21.503 12.716 21.4505 13.3396C20.7877 12.8834 20.0292 12.6304 19.2511 12.6059C18.0153 12.501 16.8525 11.911 15.9684 10.9404C15.8634 10.7717 15.6007 10.6029 15.8568 10.3168Z" fill="#F4F7FB"/>
<path d="M18.2263 14.3081C17.4968 14.235 16.7972 13.9491 16.1976 13.479C16.2435 13.3102 15.8627 13.391 16.0466 13.1488C16.8804 13.3763 17.5566 14.0293 18.4167 14.1687C18.4167 14.1687 18.4167 14.2347 18.3839 14.242L18.2263 14.3081Z" fill="#E6ECF5"/>
<path d="M33.7863 12.4078C33.6276 13.4447 33.3472 14.4537 32.9525 15.4086H32.7752C31.7182 16.3844 30.7531 17.4996 29.4269 18.0426L29.3875 18.1086C29.2643 18.143 29.1346 18.1331 29.0168 18.0805C28.8989 18.0278 28.7989 17.9349 28.7309 17.8151C28.5602 17.5583 28.2582 17.7418 27.9365 17.4923C28.5931 17.617 28.7375 16.7953 29.2496 16.876C30.2935 17.1328 30.09 16.201 30.2344 15.592C31.4818 15.0344 32.3156 13.9045 33.202 12.848C33.3923 12.6646 33.4843 12.3858 33.7863 12.4078Z" fill="#354574"/>
<path d="M22.6451 10.0967C23.1112 9.67847 23.4001 10.3828 23.8137 10.3241C25.1596 11.0578 25.4944 12.3198 25.3894 13.8532C25.3069 14.5785 25.0506 15.2655 24.6475 15.8415C23.991 16.5752 23.3344 17.4189 22.2905 17.4556C21.0188 17.8306 19.6842 17.8508 18.4038 17.5143C17.785 17.3286 17.2064 17.0041 16.7034 16.5605C16.4999 16.113 16.0797 15.8268 16.0469 15.2325C16.0812 15.2435 16.1176 15.2435 16.1519 15.2325C16.3466 15.7218 16.6693 16.1336 17.0776 16.4138C18.7846 17.6317 21.9951 17.3382 23.4986 15.8121C25.3237 13.9999 24.9364 11.5054 22.6451 10.0967Z" fill="#FAFBFD"/>
<path d="M56.555 29.767C56.4303 32.3422 56.1808 32.577 53.7451 32.4009C53.5672 32.0302 53.4698 31.6179 53.4607 31.1973C53.4515 30.7768 53.531 30.3597 53.6925 29.9797C53.7519 29.8028 53.8571 29.6496 53.9945 29.5395C54.4048 29.3373 54.8535 29.2522 55.3005 29.2919C55.7474 29.3316 56.1785 29.4949 56.555 29.767V29.767Z" fill="#445E75"/>
<path d="M56.5552 29.767C55.8396 29.3341 55.0845 29.5762 54.3427 29.6056C53.9947 29.6056 53.9225 29.9651 53.8437 30.2659C53.706 30.9667 53.6727 31.688 53.7452 32.4009C53.6599 32.4009 53.5482 32.4376 53.4957 32.4009C52.9442 31.902 53.1806 29.3561 53.8437 29.1287C54.5646 28.8593 55.3398 28.8287 56.0759 29.0406C56.3714 29.114 56.6537 29.3121 56.5552 29.767Z" fill="#FF6E40"/>
<path d="M40.0238 27.4925C40.0764 29.3194 39.8466 29.5249 37.8244 29.4662C37.7045 29.3222 37.6118 29.1527 37.5516 28.9678C37.4915 28.7829 37.4653 28.5864 37.4744 28.39C37.4836 28.1936 37.5281 28.0012 37.6051 27.8243C37.6822 27.6475 37.7902 27.4897 37.9229 27.3605C38.2267 27.0908 38.6085 26.9553 38.9959 26.9797C39.3832 27.004 39.749 27.1865 40.0238 27.4925V27.4925Z" fill="#445E75"/>
<path d="M40.024 27.4925C39.7303 27.2423 39.3678 27.1142 38.9987 27.1303C38.6297 27.1463 38.2772 27.3056 38.0018 27.5806C37.47 27.9841 37.5751 28.7985 37.8246 29.4662C37.5619 29.5102 37.2205 29.4662 37.168 29.2094C37.0339 28.5361 37.1103 27.8317 37.3847 27.2137C37.6933 26.6781 39.2492 26.4067 39.7154 26.7735C39.8307 26.8384 39.9235 26.9442 39.9793 27.0743C40.0351 27.2044 40.0508 27.3514 40.024 27.4925V27.4925Z" fill="#FF6E40"/>
<path d="M56.3055 39.9947C56.3515 41.5134 56.1874 41.7115 54.894 41.7042C54.6117 41.7042 54.3359 41.7042 54.0536 41.6528C53.594 40.5303 53.9683 39.7672 55.0253 39.6938C55.2454 39.6366 55.4741 39.6339 55.6952 39.6859C55.9164 39.7378 56.1247 39.8432 56.3055 39.9947V39.9947Z" fill="#445E75"/>
<path d="M56.3058 39.9946C56.0564 39.9946 55.8003 39.9506 55.5508 39.9433C54.113 39.9433 54.0408 40.0166 54.0539 41.6528C53.5287 41.4694 53.358 40.5156 53.7257 39.8626C54.0933 39.2096 55.9185 39.1876 56.3058 39.9946Z" fill="#FF6E40"/>
<path d="M19.0799 29.3928C19.0799 30.0825 19.2309 30.8602 18.3183 30.9556C17.8456 31.073 17.7143 30.7355 17.6618 30.3246C17.6093 29.9137 17.5633 29.3268 18.0294 29.0773C18.1147 29.012 18.2116 28.9681 18.3135 28.9487C18.4154 28.9293 18.5199 28.9347 18.6197 28.9647C18.7195 28.9947 18.8123 29.0485 18.8918 29.1224C18.9712 29.1963 19.0354 29.2885 19.0799 29.3928V29.3928Z" fill="#445E75"/>
<path d="M19.0802 29.3928C18.6666 29.158 18.1348 28.9306 17.9576 29.5249C17.8328 29.9284 17.5045 30.7134 18.3252 30.9556C17.9773 31.0216 17.498 31.1903 17.4192 30.6988C17.33 30.4063 17.2957 30.0964 17.3183 29.7884C17.3409 29.4804 17.4199 29.1809 17.5505 28.9086C17.8197 28.5197 18.3646 28.5637 18.8045 28.7105C19.0934 28.8058 19.1328 29.114 19.0802 29.3928Z" fill="#FF6E40"/>
<path d="M37.4436 41.2493C37.4042 41.8729 37.3713 42.5039 37.3319 43.1275C37.2269 44.815 37.2072 44.837 35.6643 44.6756C35.2278 43.3192 35.2278 41.8353 35.6643 40.4789C35.835 39.8479 36.4325 39.8332 36.9774 39.9359C37.5223 40.0387 37.4436 40.4642 37.4304 40.8751C37.4283 41 37.4326 41.1249 37.4436 41.2493V41.2493Z" fill="#445E75"/>
<path d="M37.4431 41.2493C37.3709 40.6476 37.4431 40.0093 36.5371 40.1267C35.9987 40.2001 35.7821 40.4128 35.7361 40.9484C35.6104 42.1858 35.5862 43.4333 35.6639 44.6756C35.224 44.7563 35.1518 44.4408 35.1387 44.0593C35.0904 42.8129 35.1541 41.5643 35.3291 40.3321C35.4604 39.283 36.2351 39.6792 36.7932 39.5984C37.3512 39.5177 37.4497 39.98 37.4497 40.4935C37.476 40.7577 37.4563 41.0071 37.4431 41.2493Z" fill="#FF6E40"/>
<path d="M14.0312 29.6202C14.1166 31.1683 14.0312 31.2857 12.5474 31.2344C12.1667 30.5007 12.1929 29.767 12.6656 29.4148C13.1383 29.0626 13.6307 28.9526 14.0312 29.6202Z" fill="#445E75"/>
<path d="M14.0313 29.6202C12.948 29.0626 12.239 29.4662 12.5475 31.2344C12.193 31.2784 12.0026 31.1023 12.0289 30.7061C12.0683 30.1338 11.8582 29.4662 12.4162 29.0626C12.5429 28.9354 12.6969 28.8471 12.8632 28.8062C13.0296 28.7654 13.2025 28.7734 13.3653 28.8296C13.528 28.8858 13.6749 28.9882 13.7916 29.1267C13.9084 29.2653 13.9909 29.4353 14.0313 29.6202Z" fill="#FF6E40"/>
<path d="M29.4268 18.0499C30.5691 17.2135 31.5277 16.091 32.7751 15.416C32.6963 15.9515 32.309 16.2817 32.1186 16.7366C31.5616 17.5113 30.9321 18.2172 30.2409 18.8423L29.4268 18.0499Z" fill="#1A2B61"/>
<path d="M28.7314 17.8298L29.3879 18.1233C29.0793 18.3801 28.7314 18.2187 28.4031 18.226C28.0366 18.2033 27.6698 18.2626 27.3241 18.4004C26.9784 18.5382 26.6608 18.7517 26.3899 19.0285C26.119 19.3052 25.9003 19.6396 25.7466 20.0121C25.5928 20.3845 25.5072 20.7875 25.4946 21.1975C25.4637 21.3439 25.4197 21.4864 25.3633 21.623L25.1664 21.0947C25.1085 20.4975 25.2309 19.8957 25.5143 19.3852C25.8447 18.7904 26.3299 18.3226 26.9049 18.0446C27.4799 17.7666 28.1172 17.6916 28.7314 17.8298V17.8298Z" fill="#FFF1D2"/>
<path d="M26.374 41.7922C25.5468 41.8802 25.8816 41.1832 25.8422 40.765C25.8029 40.3468 25.8422 39.9139 26.3806 39.9506C26.7877 39.9506 27.3589 39.7305 27.326 40.5816C26.7023 40.6843 26.5841 41.2786 26.374 41.7922Z" fill="#FF6E40"/>
<path d="M26.3745 41.7922C26.2695 40.4422 26.276 40.4349 27.3265 40.5816C27.4184 41.3813 27.2346 41.9243 26.3745 41.7922Z" fill="#4B647A"/>
<path d="M21.6209 41.6748C21.2139 41.7555 21.0563 41.5501 21.0957 41.1099C21.1351 40.6696 20.9578 40.0974 21.5618 39.8699C22.5663 39.4957 23.0325 39.9726 22.8749 41.2346C22.5992 41.1172 22.6517 40.5449 22.2184 40.6403C21.7851 40.7357 21.831 41.3446 21.6209 41.6748Z" fill="#FF6E40"/>
<path d="M21.6211 41.6748C21.53 41.4832 21.4956 41.2643 21.5227 41.0494C21.5498 40.8346 21.6371 40.6349 21.7721 40.4789C21.8836 40.3855 22.0152 40.3267 22.1536 40.3087C22.292 40.2906 22.4322 40.3139 22.5599 40.3762C22.9801 40.5009 22.7766 40.9411 22.8488 41.2346C22.6322 42.0417 22.061 41.6235 21.6211 41.6748Z" fill="#496279"/>
<path d="M18.1219 43.9419C18.0562 44.6756 17.636 44.4702 17.2487 44.3748C17.0714 44.1693 16.8679 43.9859 16.9073 43.6411C17.0189 42.834 16.9532 42.0123 16.9926 41.2052C16.9926 40.7357 17.1436 40.3175 17.6492 40.3248C18.1547 40.3321 18.1481 40.7944 18.135 41.1979C18.135 42.1297 18.2269 43.0541 18.1219 43.9419Z" fill="#496279"/>
<path d="M18.1219 43.9419C18.1219 43.0028 18.1219 42.0637 18.1219 41.1245C18.1219 40.7724 18.076 40.5156 17.6755 40.5156C17.275 40.5156 17.1962 40.765 17.2225 41.1172C17.3209 42.2031 17.0058 43.3183 17.2619 44.3748C16.9467 44.3748 16.7104 44.2501 16.7169 43.8319C16.7169 42.7313 16.7169 41.6308 16.7498 40.5303C16.7498 39.7599 17.3341 40.0313 17.7017 39.958C18.0694 39.8846 18.2598 40.1267 18.2401 40.5596C18.2632 41.6887 18.2237 42.8183 18.1219 43.9419Z" fill="#FF6E40"/>
<path d="M11.3332 44.2647C10.4206 44.3308 10.7555 43.531 10.7161 43.0762C10.6767 42.6213 10.7161 42.2031 11.2741 42.2471C11.7074 42.2471 12.2458 42.1811 12.1605 42.9808C11.307 42.9514 11.3595 43.6411 11.3332 44.2647Z" fill="#FF6E40"/>
<path d="M11.3331 44.2648C11.2059 44.0785 11.1311 43.8542 11.1182 43.6204C11.1053 43.3865 11.155 43.1537 11.2609 42.9514C11.4644 42.6139 11.8649 42.768 12.1603 42.9955C12.2325 43.6998 12.3179 44.3968 11.3331 44.2648Z" fill="#425C74"/>
<path d="M10.6367 40.9264C10.8233 40.6878 11.085 40.5387 11.3674 40.51C11.6498 40.4813 11.9313 40.5753 12.1533 40.7724C12.2124 41.2786 11.8776 41.1539 11.674 41.0805C11.3359 40.9778 10.9871 40.926 10.6367 40.9264V40.9264Z" fill="#1E3D59"/>
<path d="M22.29 17.4556C23.1176 17.0716 23.8661 16.5023 24.4894 15.7828C25.0738 15.7828 25.5596 15.3793 26.1308 15.3132C26.1851 15.3424 26.2325 15.3855 26.269 15.439C26.3056 15.4926 26.3302 15.5551 26.3409 15.6214L26.9974 16.3551C25.9249 16.8912 24.8048 17.2994 23.6556 17.573C23.1829 17.6831 22.7102 17.8665 22.29 17.4556Z" fill="#527AB9"/>
<path d="M26.3411 15.6214L26.1442 15.438C25.9669 15.2839 25.8279 15.0816 25.7406 14.8504C25.6532 14.6192 25.6204 14.3668 25.6452 14.1173C25.6452 13.5157 25.3498 13.9632 25.1922 13.9119C25.2645 13.2312 25.1752 12.5413 24.9331 11.9115C24.6911 11.2817 24.3049 10.7342 23.8135 10.3241C23.9126 10.1791 24.0298 10.0506 24.1614 9.94261C25.6452 8.94479 25.6452 8.95213 25.875 10.823C25.875 10.9037 25.9538 10.9845 25.9932 11.0578C25.9932 11.8722 26.0391 12.6793 25.9932 13.4863C25.9575 14.1732 26.1361 14.8526 26.4987 15.4086L26.3411 15.6214Z" fill="#B9CAE3"/>
<path d="M25.1927 13.9119L25.2912 13.7651C25.4094 13.5817 25.2912 13.1709 25.6063 13.2075C25.9215 13.2442 25.8558 13.5891 25.8361 13.8092C25.8151 14.3724 25.9212 14.9325 26.1447 15.438C25.5998 15.5847 25.1468 16.3184 24.4902 15.7828C24.8281 15.2144 25.0665 14.5795 25.1927 13.9119V13.9119Z" fill="#7797C8"/>
</g>
<defs>
<clipPath id="clip0_8_4521">
<rect width="70" height="64" fill="white" transform="translate(0.5 0.5)"/>
</clipPath>
</defs>
</svg>
