<svg width="40" height="40" viewBox="0 0 40 40" fill="none" xmlns="http://www.w3.org/2000/svg">
<g clip-path="url(#clip0_0_853)">
<path d="M19.8029 39.9385C19.6819 39.8612 19.6039 39.6901 19.5845 39.4592C19.576 39.3585 19.5229 37.8847 19.4664 36.1841C19.4099 34.4835 19.3491 32.6787 19.3313 32.1734C19.3136 31.668 19.2825 30.7219 19.2624 30.0708C19.2422 29.4197 19.2167 28.7837 19.2058 28.6573L19.1858 28.4276L19.104 28.6573C18.8977 29.237 18.8808 29.3402 18.8307 30.3265C18.7567 31.7821 18.7159 31.9378 18.0462 33.3151C17.5605 34.314 17.4986 34.4683 17.3704 35.0003C17.2363 35.5562 17.2132 35.9715 17.2836 36.5566C17.3481 37.0925 17.3532 37.3959 17.3029 37.6883C17.1777 38.416 16.778 39.1321 16.3546 39.3875C16.0815 39.5522 15.7236 39.4937 15.6705 39.2756C15.6369 39.1381 15.6755 39.0429 15.8494 38.8339C16.0461 38.5976 16.157 38.3575 16.2275 38.0155C16.3012 37.6578 16.2745 36.8737 16.1695 36.3078C16.1107 35.9916 16.0911 35.7624 16.0922 35.4067C16.0945 34.6751 16.2119 34.2196 16.6435 33.2688C17.3457 31.7215 17.4015 31.4381 17.4172 29.3385L17.4249 28.3058L17.3331 28.4927C17.2538 28.6542 15.3769 32.7845 13.5248 36.8732C13.2079 37.5728 12.9005 38.2046 12.8417 38.2772C12.6725 38.4861 12.4103 38.5131 12.2411 38.339C12.1858 38.282 12.1712 38.2212 12.1712 38.0471C12.1712 37.8432 12.2514 37.613 13.2759 34.8766C14.4996 31.6082 15.5625 28.7669 15.8514 27.9919C15.9552 27.7134 16.0333 27.4785 16.0248 27.4698C16.0042 27.4486 15.5289 28.02 15.395 28.227C15.3361 28.3179 15.1774 28.6384 15.0423 28.9393C14.4413 30.2771 14.25 30.5299 13.0466 31.5757C12.4022 32.1358 12.022 32.5433 11.7419 32.9742C11.444 33.4326 11.3905 33.5544 11.1918 34.2264C10.9987 34.8795 10.8474 35.1952 10.5496 35.5672C9.94799 36.3187 9.05918 36.6629 8.75342 36.2629C8.6671 36.15 8.66725 36.006 8.75379 35.9104C8.79112 35.8692 8.93107 35.7763 9.06479 35.704C9.62138 35.403 9.95842 34.804 10.2648 33.5714C10.4562 32.8015 10.5313 32.601 10.7889 32.1734C11.0579 31.7267 11.3465 31.3924 11.9357 30.8451C12.6634 30.1691 12.8939 29.9192 13.1226 29.5584C13.3962 29.1268 13.7506 28.3992 14.0092 27.7386C14.1271 27.4373 14.2765 27.0819 14.3413 26.9487C14.4061 26.8155 14.453 26.7003 14.4456 26.6927C14.4383 26.6852 13.799 27.2712 13.0251 27.995C12.2512 28.7188 10.479 30.3765 9.08682 31.6786C7.69465 32.9808 6.49024 34.0832 6.41035 34.1284C6.14988 34.2758 5.86389 34.1651 5.81519 33.898C5.7684 33.6413 5.43477 34.0129 12.6623 26.2721C13.116 25.7862 13.4819 25.3832 13.4755 25.3765C13.469 25.3698 13.2617 25.4713 13.0147 25.6022C12.61 25.8165 12.519 25.8837 12.0937 26.282C11.2282 27.0924 10.8107 27.4011 10.2654 27.6334C10.1238 27.6937 9.64218 27.8679 9.19517 28.0205C8.30323 28.3249 7.96731 28.474 7.50126 28.7723C7.08783 29.0368 6.78188 29.316 6.48488 29.6998C6.15636 30.1242 5.99918 30.2918 5.73298 30.5012C5.25755 30.8753 4.65674 31.0977 4.11183 31.1013C3.75704 31.1037 3.54609 31.0201 3.43353 30.8327C3.34312 30.6822 3.34516 30.5915 3.44157 30.4761C3.50831 30.3963 3.56028 30.3781 3.80107 30.3504C4.51964 30.2677 5.05667 29.8589 5.82112 28.8128C6.03559 28.5193 6.31093 28.183 6.43299 28.0655C6.70506 27.8036 7.24689 27.4284 7.56993 27.2782C7.79241 27.1747 7.97958 27.1007 9.01212 26.7074C9.21986 26.6282 9.46374 26.5252 9.55407 26.4784C10.0452 26.2241 10.6016 25.7643 11.4501 24.9115C11.8089 24.5508 12.1609 24.2103 12.2322 24.1547C12.3035 24.0991 12.3558 24.0474 12.3483 24.0397C12.3409 24.032 11.9271 24.1787 11.4289 24.3656C8.52642 25.4544 4.06231 27.1285 3.18628 27.4567C2.22077 27.8185 2.0721 27.8619 1.84147 27.8497C1.70473 27.8425 1.54366 27.6682 1.54366 27.5275C1.54366 27.2593 1.67477 27.1443 2.30117 26.863C2.51721 26.766 3.4434 26.345 4.35936 25.9274C5.27531 25.5098 6.82051 24.8062 7.79313 24.3637C11.1371 22.8423 11.7182 22.5759 11.8073 22.5236C11.8893 22.4754 11.8702 22.4729 11.5703 22.492C11.1006 22.5219 10.7407 22.5966 10.3685 22.7415C8.82521 23.3423 8.46167 23.4053 7.08909 23.3093C6.04402 23.2362 5.68136 23.2352 5.23497 23.3044C4.63537 23.3974 4.29799 23.4997 3.93013 23.7C2.84796 24.2895 2.62419 24.3618 1.88704 24.3601C1.4412 24.3591 1.3601 24.3491 1.11133 24.2645C0.654824 24.1092 0.444856 23.9011 0.444856 23.6037C0.444856 23.4675 0.579051 23.3214 0.704081 23.3214C0.753943 23.3214 0.903508 23.3554 1.03644 23.397C1.23866 23.4602 1.33209 23.4693 1.60835 23.4529C2.17108 23.4194 2.63441 23.2296 3.59719 22.6382C4.10474 22.3265 4.36776 22.2166 4.9431 22.076C5.25268 22.0004 5.33842 21.9963 6.62564 21.9957C8.09094 21.9951 8.06729 21.9974 8.80678 21.7819C9.30987 21.6353 9.62167 21.5187 10.2483 21.2431C10.5127 21.1268 10.8526 20.9878 11.0037 20.9342C11.1548 20.8806 11.2931 20.8233 11.311 20.8069C11.3291 20.7904 11.2472 20.7772 11.1267 20.7772C10.933 20.7772 6.00504 20.6167 1.93348 20.4779C0.297746 20.4221 0.211393 20.4102 0.0664951 20.2206C-0.0766898 20.0333 0.0205169 19.7636 0.270348 19.6551C0.371496 19.6112 1.37552 19.5673 5.92172 19.4084C8.96233 19.3021 11.4733 19.2067 11.5016 19.1964C11.5678 19.1722 10.9093 18.9486 10.58 18.8835C10.4415 18.8561 10.1324 18.8334 9.89329 18.8331C9.35861 18.8324 8.73011 18.7814 8.34253 18.7073C7.94001 18.6303 7.5283 18.4656 6.62564 18.0206C5.72404 17.576 5.39571 17.4505 4.82209 17.331C4.32449 17.2273 3.96727 17.22 3.30183 17.3001C2.5264 17.3934 1.95181 17.2984 1.32832 16.9738C0.660064 16.6258 0.324612 16.0543 0.6139 15.7566C0.760289 15.606 0.875056 15.6193 1.11889 15.8154C1.52168 16.1393 1.82301 16.242 2.47078 16.276C2.80558 16.2935 2.97475 16.28 3.58267 16.187C4.42366 16.0584 4.75537 16.0512 5.28905 16.15C5.77688 16.2402 6.13846 16.3699 7.04941 16.7812C8.28186 17.3377 8.54677 17.387 10.419 17.4091C11.1173 17.4174 11.6813 17.4171 11.6723 17.4085C11.6584 17.3951 6.31332 14.9638 5.59551 14.6444C5.45387 14.5814 4.84352 14.304 4.23917 14.028C3.63483 13.752 2.89773 13.4171 2.60117 13.2837C1.67734 12.8683 1.58714 12.8053 1.55413 12.552C1.52002 12.2904 1.7084 12.1315 2.0162 12.1624C2.10936 12.1717 3.21368 12.5654 4.59972 13.0833C5.93116 13.5809 8.23351 14.4411 9.71604 14.995C11.1986 15.5489 12.4425 16.014 12.4802 16.0286C12.5428 16.0529 12.5444 16.0496 12.4986 15.9917C12.434 15.9101 12.011 15.5568 11.8106 15.4172C11.7257 15.3579 11.4166 15.2019 11.1239 15.0705C9.73667 14.4475 9.46539 14.2469 8.49568 13.1267C7.89055 12.4278 7.7249 12.2624 7.3124 11.9452C6.84694 11.5874 6.40589 11.3713 5.75726 11.1832C5.12421 10.9997 4.71828 10.7995 4.37141 10.4997C3.81971 10.0229 3.48695 9.38897 3.58256 8.99695C3.62102 8.83926 3.77009 8.69195 3.89121 8.69195C4.04591 8.69195 4.13395 8.76831 4.26014 9.01197C4.32368 9.13466 4.46042 9.31119 4.58421 9.43036C4.98525 9.81644 5.38426 9.99552 6.45396 10.2695C7.72574 10.5953 8.08114 10.8205 9.26965 12.0533C9.84481 12.6499 10.1493 12.9383 10.3299 13.0573C10.7502 13.3344 11.5169 13.7154 12.1712 13.9723C12.5111 14.1058 12.9037 14.2685 13.0435 14.3339C13.1833 14.3993 13.3023 14.4481 13.308 14.4423C13.3188 14.4311 13.1994 14.3026 9.83759 10.7068C8.66592 9.45355 7.30003 7.99249 6.80228 7.45999C6.30454 6.92748 5.87574 6.43873 5.84941 6.37388C5.77456 6.18952 5.78946 6.0567 5.89918 5.93034C5.98101 5.83608 6.02131 5.81791 6.14813 5.81806C6.40839 5.81837 6.25398 5.69114 8.22401 7.52861C8.75373 8.02268 10.3969 9.55594 11.8755 10.9358C13.3541 12.3158 14.5789 13.4504 14.5973 13.4573C14.6419 13.474 14.3751 12.9297 14.2189 12.685C14.1506 12.5781 13.8755 12.2572 13.6075 11.972C12.6308 10.9323 12.472 10.6644 12.0025 9.26516C11.6473 8.20662 11.5126 7.9112 11.1288 7.34915C10.8915 7.00175 10.702 6.80754 10.2311 6.42924C9.62142 5.93944 9.41159 5.69496 9.16142 5.18292C8.89778 4.64329 8.81339 4.00472 8.96356 3.68551C9.05102 3.49957 9.20935 3.37727 9.36261 3.37727C9.5427 3.37727 9.61458 3.47938 9.64928 3.7845C9.68688 4.11509 9.71793 4.21995 9.85871 4.49178C10.0714 4.90244 10.5926 5.40519 11.4014 5.97978C11.9604 6.37691 12.4723 7.01087 12.7673 7.67128C12.84 7.83423 12.9964 8.22992 13.1147 8.5506C13.3801 9.27015 13.5538 9.64399 13.767 9.95439C14.0345 10.344 14.5882 10.9802 15.0055 11.3776C15.2198 11.5816 15.5181 11.88 15.6684 12.0406C15.8187 12.2013 15.9468 12.3274 15.9531 12.3208C15.9595 12.3143 15.8427 11.9841 15.6936 11.5871C15.5445 11.19 15.1182 10.0542 14.7463 9.06299C14.3743 8.07179 13.6521 6.14769 13.1413 4.78722C12.6305 3.42675 12.1918 2.23524 12.1664 2.13942C12.109 1.92233 12.1514 1.73027 12.2797 1.62646C12.4459 1.49191 12.7296 1.55465 12.868 1.75654C12.9048 1.81028 13.2751 2.60163 13.6908 3.51509C14.1066 4.42855 15.1302 6.67863 15.9655 8.51527C16.8008 10.3519 17.4924 11.8626 17.5023 11.8723C17.5321 11.9015 17.4805 11.1536 17.4386 10.9493C17.4171 10.8447 17.2783 10.4314 17.1301 10.0309C16.6431 8.7148 16.5977 8.38265 16.7039 6.90923C16.7725 5.95724 16.7613 5.53205 16.6533 4.98699C16.543 4.42992 16.4602 4.20973 16.1488 3.64531C15.7519 2.92611 15.6222 2.48852 15.623 1.87192C15.6236 1.36177 15.7994 0.801199 16.0215 0.600433C16.2515 0.392648 16.5128 0.385132 16.6386 0.582679C16.6878 0.659979 16.6912 0.698471 16.6596 0.822783C16.5105 1.41023 16.5092 1.42026 16.5463 1.70393C16.6153 2.23167 16.8121 2.70492 17.27 3.44393C17.6224 4.01269 17.7304 4.23587 17.8379 4.6173C18.0069 5.21765 18.0272 5.46859 18.0175 6.84179L18.0086 8.10889L18.1698 8.6629C18.3243 9.19365 18.5592 9.83168 18.7172 10.1499C18.7581 10.2323 18.8813 10.5295 18.9909 10.8102C19.1006 11.0909 19.1973 11.2976 19.2059 11.2696C19.2144 11.2415 19.2466 10.4394 19.2774 9.48703C19.3081 8.5347 19.3786 6.43569 19.4339 4.82255C19.4893 3.20942 19.5436 1.58746 19.5547 1.21819C19.5658 0.848915 19.5909 0.471573 19.6105 0.379651C19.7009 -0.044085 20.1715 -0.136035 20.3455 0.236027C20.4115 0.377209 20.4215 0.567297 20.5304 3.76245C20.5516 4.38438 20.5986 5.75192 20.6348 6.80142C20.6711 7.85093 20.7184 9.29003 20.7401 9.99942C20.7617 10.7088 20.7899 11.3523 20.8027 11.4294C20.8254 11.5661 20.8295 11.5586 20.9698 11.1239C21.1283 10.6324 21.1375 10.5617 21.185 9.47794C21.2179 8.72774 21.2929 8.19709 21.4125 7.86842C21.4422 7.78689 21.6963 7.23518 21.9773 6.64241C22.5055 5.52769 22.5964 5.27405 22.7141 4.58619C22.7775 4.21547 22.7771 3.94276 22.7126 3.41042C22.6844 3.17793 22.6616 2.8758 22.6618 2.73902C22.6633 1.91991 23.1206 0.928826 23.6422 0.614242C23.915 0.449717 24.2771 0.507465 24.3299 0.723914C24.3635 0.861449 24.3249 0.956608 24.151 1.16561C23.8176 1.56628 23.7108 1.97583 23.7364 2.75534C23.7459 3.04402 23.7854 3.45287 23.8269 3.69177C23.9427 4.35815 23.9516 4.68172 23.8677 5.18618C23.7741 5.74916 23.6862 6.00572 23.2718 6.92433C22.6612 8.27827 22.6285 8.44427 22.5967 10.3528C22.5845 11.0816 22.5774 11.6832 22.5808 11.6897C22.5842 11.6962 22.6172 11.6326 22.6541 11.5483C22.6911 11.4641 23.4436 9.80506 24.3265 7.86153C25.2093 5.918 26.1392 3.86861 26.3929 3.30732C27.1719 1.58406 27.1908 1.55389 27.4865 1.55389C27.7104 1.55389 27.8182 1.66328 27.8376 1.9101C27.8518 2.09219 27.7999 2.24243 26.7831 4.9639C26.195 6.53816 25.6387 8.02497 25.5469 8.26791C25.0307 9.63456 23.9662 12.506 23.9663 12.5315C23.9663 12.5479 24.0436 12.4739 24.138 12.367C24.515 11.9401 24.6833 11.6784 24.9103 11.1655C25.5274 9.7719 25.733 9.49096 26.8506 8.51504C28.0914 7.43138 28.4813 6.89211 28.7919 5.82966C28.967 5.23085 29.0493 5.0294 29.2479 4.71333C29.6469 4.07828 30.3548 3.56809 30.8367 3.56809C31.0286 3.56809 31.1803 3.634 31.2609 3.75244C31.3856 3.93565 31.2865 4.11429 30.9711 4.2752C30.6353 4.44648 30.3663 4.74651 30.1463 5.19502C29.9756 5.54301 29.886 5.81214 29.7349 6.43039C29.5655 7.12399 29.4713 7.38683 29.2704 7.72748C28.9393 8.2886 28.6452 8.62487 27.812 9.39471C27.3126 9.85618 27.0318 10.182 26.7954 10.5747C26.5401 10.9984 26.2268 11.6492 26.0383 12.147C25.952 12.3749 25.8058 12.7269 25.7134 12.9292C25.6209 13.1316 25.5503 13.3023 25.5565 13.3086C25.5626 13.3149 26.2078 12.7218 26.9903 11.9906C27.7727 11.2594 29.0696 10.0476 29.8723 9.29764C30.6749 8.54772 31.807 7.48846 32.388 6.94374C32.969 6.39902 33.5098 5.91634 33.5898 5.87113C33.7862 5.76015 33.9733 5.78302 34.1044 5.93404C34.2155 6.06201 34.223 6.17981 34.1327 6.37738C34.0907 6.46913 32.7427 7.93847 30.2909 10.5648C28.2135 12.7902 26.5184 14.6158 26.524 14.6219C26.541 14.6401 27.269 14.2541 27.4217 14.146C27.4998 14.0907 27.7779 13.8432 28.0398 13.5959C29.0683 12.6247 29.2871 12.497 30.8166 11.9754C31.6801 11.6809 32.1547 11.4659 32.585 11.1742C32.9915 10.8987 33.1597 10.7379 33.5636 10.2391C33.7713 9.98247 34.0436 9.68444 34.1686 9.57678C34.6498 9.16228 35.2999 8.90275 35.866 8.89917C36.2154 8.89697 36.3608 8.94344 36.5074 9.10408C36.6438 9.25353 36.6629 9.39888 36.562 9.51962C36.4915 9.60389 36.4435 9.62104 36.1993 9.64916C35.4804 9.73193 34.9453 10.1395 34.176 11.1899C33.7287 11.8006 33.4611 12.0743 33.0163 12.3762C32.5809 12.6717 32.2768 12.8116 31.2286 13.1992C30.4817 13.4753 30.2315 13.6079 29.7693 13.9724C29.3478 14.3047 29.1329 14.5014 28.5503 15.0877C28.2292 15.4108 27.891 15.7418 27.7986 15.8232C27.7062 15.9047 27.6383 15.9714 27.6477 15.9714C27.6571 15.9714 28.0649 15.822 28.5539 15.6394C29.8579 15.1526 37.2252 12.3906 37.5482 12.2674C37.9715 12.1061 38.2059 12.1034 38.3563 12.2583C38.5186 12.4252 38.474 12.698 38.2588 12.8558C38.206 12.8944 37.0894 13.4142 35.7774 14.0108C34.4654 14.6075 32.8588 15.3388 32.2072 15.636C31.5557 15.9332 30.4067 16.4566 29.654 16.7991C28.9013 17.1416 28.2446 17.4455 28.1947 17.4745C28.111 17.523 28.1295 17.5254 28.4301 17.5052C28.9737 17.4686 29.2457 17.4039 29.9079 17.1533C31.2331 16.6518 31.5632 16.6024 32.9639 16.6952C34.0479 16.7671 34.5109 16.7556 35.071 16.6428C35.5314 16.5502 35.8828 16.4207 36.242 16.2114C36.7312 15.9263 36.9424 15.8293 37.282 15.7338C37.7083 15.614 38.405 15.5974 38.7657 15.6986C39.2714 15.8403 39.5139 16.0394 39.5468 16.3399C39.5614 16.4735 39.5511 16.5092 39.4754 16.5871C39.3674 16.6982 39.2785 16.7009 38.9639 16.6025C38.7626 16.5396 38.6669 16.5301 38.3908 16.5458C37.8331 16.5774 37.3694 16.7679 36.3989 17.364C36.0488 17.579 35.8079 17.6998 35.5779 17.7756C34.89 18.0023 34.8908 18.0023 33.3919 18.0034C31.947 18.0045 31.9281 18.0061 31.3083 18.1829C30.805 18.3265 30.3945 18.4767 29.8051 18.7331C29.4943 18.8683 29.1003 19.0297 28.9295 19.0918L28.619 19.2047L28.7735 19.2136C28.8585 19.2185 31.2767 19.3015 34.1473 19.3981C37.018 19.4946 39.4336 19.582 39.5154 19.5921C39.8293 19.631 40.0019 19.7888 40.0019 20.0368C40.0019 20.187 39.8448 20.3347 39.6328 20.3839C39.5431 20.4047 38.9598 20.4385 38.3365 20.4589C36.9089 20.5056 35.4091 20.5566 34.216 20.5991C33.7061 20.6172 32.2381 20.6658 30.9539 20.7071C29.6697 20.7483 28.5803 20.7909 28.5331 20.8016C28.4654 20.8169 28.5199 20.8465 28.7906 20.9414C29.244 21.1003 29.6252 21.1659 30.095 21.1659C30.5889 21.1659 31.285 21.2225 31.6578 21.2929C32.0588 21.3687 32.4695 21.5327 33.3747 21.9786C34.2499 22.4097 34.5112 22.5141 35.0229 22.6369C35.5319 22.7591 36.0214 22.7789 36.6708 22.7033C37.484 22.6088 37.9803 22.6864 38.618 23.0078C39.0053 23.203 39.3452 23.5004 39.4356 23.7231C39.5381 23.9754 39.4831 24.2393 39.313 24.3118C39.1754 24.3705 39.0328 24.3263 38.8625 24.1722C38.5431 23.8833 38.168 23.757 37.5296 23.7236C37.2009 23.7064 37.034 23.719 36.5338 23.7988C35.7453 23.9246 35.3085 23.9442 34.8512 23.8742C34.3833 23.8026 33.9906 23.6837 33.5075 23.4674C33.2928 23.3713 32.9169 23.2027 32.6721 23.0927C31.7334 22.671 31.3671 22.6116 29.5976 22.5943C28.3222 22.5819 28.3112 22.5824 28.4473 22.6472C28.5874 22.714 32.0581 24.2927 33.5808 24.9822C36.738 26.412 37.9541 26.9665 38.1004 27.0431C38.323 27.1597 38.4241 27.278 38.4462 27.4473C38.4685 27.6185 38.4196 27.72 38.2784 27.7951C38.1156 27.8817 37.8847 27.8438 37.3407 27.6411C37.0763 27.5426 35.2994 26.8787 33.3919 26.1657C29.4329 24.686 27.6191 24.0095 27.5201 23.9757C27.4182 23.9409 27.8271 24.3219 28.1039 24.5196C28.2361 24.614 28.5778 24.7953 28.8633 24.9224C29.8821 25.3761 30.3756 25.6744 30.7944 26.0898C30.8956 26.19 31.2214 26.5504 31.5186 26.8905C31.8157 27.2306 32.1511 27.5963 32.2638 27.7032C32.7734 28.1862 33.5028 28.6158 34.0615 28.7619C34.5429 28.8878 34.7843 28.9761 35.0973 29.1408C35.6173 29.4145 36.0736 29.8728 36.3038 30.3528C36.3966 30.5462 36.4136 30.6212 36.4136 30.8363C36.4136 31.0699 36.4053 31.0999 36.3128 31.1993C36.1257 31.4002 35.9115 31.3301 35.7577 31.0177C35.6465 30.792 35.4058 30.5255 35.154 30.3493C34.773 30.0827 34.3144 29.9128 33.3075 29.6653C32.7359 29.5248 32.3442 29.3464 31.8533 29.003C31.6195 28.8395 31.3285 28.5658 30.7307 27.9473C30.1359 27.3317 29.8516 27.0642 29.6491 26.9294C29.2604 26.6706 28.4279 26.2565 27.8635 26.0409C27.5991 25.94 27.2293 25.788 27.0417 25.7031C26.8541 25.6183 26.6964 25.5532 26.6912 25.5586C26.6818 25.5682 27.1961 26.1233 28.8414 27.8799C29.3056 28.3755 29.8858 28.9959 30.1308 29.2585C30.3758 29.5212 31.3696 30.5843 32.3393 31.6211C33.3722 32.7254 34.1224 33.5553 34.1506 33.6249C34.2258 33.81 34.211 33.9427 34.1012 34.0692C34.0194 34.1635 33.9791 34.1816 33.8522 34.1815C33.769 34.1814 33.6516 34.155 33.5914 34.1228C33.5312 34.0906 33.2144 33.8143 32.8875 33.5088C32.5606 33.2033 32.0536 32.7293 31.7609 32.4556C31.4681 32.1818 30.7342 31.497 30.1298 30.9338C28.5259 29.439 26.9712 27.9882 26.1295 27.2008C25.7234 26.821 25.3864 26.5146 25.3805 26.52C25.3617 26.5371 25.6522 27.1122 25.7818 27.3145C25.8503 27.4214 26.1418 27.7606 26.4296 28.0682C27.3441 29.0455 27.5506 29.3936 27.9841 30.6892C28.3036 31.644 28.4666 32.0219 28.7465 32.4567C29.0609 32.945 29.2627 33.1645 29.7678 33.568C30.0076 33.7595 30.2784 34.0011 30.3697 34.1049C31.1645 35.0089 31.3739 36.3955 30.7478 36.6082C30.5282 36.6827 30.3535 36.5155 30.3526 36.23C30.3507 35.6043 29.8535 34.9397 28.8247 34.1879C28.1963 33.7287 27.8759 33.4081 27.5669 32.9298C27.3025 32.5203 27.224 32.3514 26.912 31.5196C26.6366 30.7856 26.4485 30.3629 26.2916 30.1253C26.0413 29.7462 25.4314 29.0527 24.7675 28.3923C24.3572 27.9842 24.0305 27.6741 24.0414 27.7032C24.0523 27.7324 24.3861 28.6229 24.7832 29.6821C25.1802 30.7413 25.8092 32.4189 26.181 33.4101C26.5528 34.4013 27.0744 35.7927 27.3401 36.5021C27.6059 37.2115 27.8345 37.8534 27.8481 37.9286C27.8809 38.109 27.8306 38.2842 27.7204 38.3734C27.5545 38.5076 27.2708 38.4447 27.1322 38.243C27.0953 38.1893 26.4466 36.7857 25.6906 35.124C24.9346 33.4623 24.1675 31.7767 23.9858 31.3783C23.8041 30.9798 23.397 30.0849 23.0812 29.3895L22.5068 28.1251L22.4963 28.3281C22.4752 28.7355 22.5742 29.1724 22.8658 29.9583C23.3565 31.281 23.406 31.6388 23.2967 33.0744C23.1866 34.5201 23.3078 35.369 23.7337 36.1359C24.0813 36.7617 24.1377 36.8777 24.2218 37.1382C24.4409 37.8173 24.4278 38.5286 24.186 39.0832C24.0801 39.326 23.9237 39.4843 23.731 39.5437C23.5685 39.5938 23.4298 39.5388 23.3503 39.393C23.3062 39.3119 23.3051 39.2754 23.3431 39.1456C23.4658 38.727 23.4885 38.5468 23.4522 38.2788C23.382 37.7591 23.1833 37.2862 22.7245 36.5469C22.3611 35.9612 22.2379 35.6895 22.1027 35.1749L21.9918 34.7529L21.9998 33.4816C22.0044 32.7471 21.993 32.1129 21.9727 31.9797C21.8888 31.427 21.6237 30.6156 21.2435 29.7476C21.1214 29.4686 20.9771 29.1173 20.9228 28.9669C20.8686 28.8165 20.8156 28.6933 20.805 28.693C20.7944 28.6928 20.7672 29.2532 20.7446 29.9383C20.6701 32.1955 20.497 37.2045 20.4511 38.428C20.4131 39.4445 20.3968 39.649 20.3452 39.7567C20.2366 39.9833 19.9984 40.0632 19.8029 39.9385Z" fill="#D2D2D2"/>
<path d="M19.8105 39.9412C19.5965 39.7894 19.5809 39.6903 19.5368 38.1992C19.5029 37.0549 19.4906 36.6963 19.4508 35.6903C19.442 35.4668 19.3878 33.8289 19.3304 32.0506C19.273 30.2723 19.2171 28.7298 19.2061 28.6229L19.1862 28.4286L19.1037 28.6544C18.9011 29.2088 18.8578 29.4745 18.8182 30.4074C18.7607 31.7619 18.7142 31.9382 18.0576 33.2887C17.5767 34.2778 17.4639 34.5602 17.3527 35.0536C17.2377 35.5635 17.2154 36.0628 17.2841 36.5899C17.3726 37.2699 17.3523 37.6234 17.1957 38.1286C17.0221 38.6884 16.642 39.2433 16.3234 39.4021C16.0438 39.5413 15.7199 39.4791 15.6705 39.2766C15.6367 39.1376 15.6786 39.0337 15.8456 38.8426C16.0338 38.6271 16.1562 38.3626 16.2277 38.0165C16.2977 37.6781 16.2717 36.8509 16.1741 36.3087C16.0649 35.7025 16.0518 35.377 16.1179 34.9155C16.1978 34.3576 16.3303 33.9585 16.7276 33.0788C17.3569 31.6855 17.402 31.4322 17.4184 29.1989C17.422 28.7091 17.4156 28.3195 17.4041 28.3331C17.3927 28.3467 17.085 29.0178 16.7204 29.8244C16.3558 30.6309 15.9885 31.4419 15.9042 31.6266C15.8199 31.8112 15.5927 32.3121 15.3995 32.7397C14.4534 34.8325 13.0727 37.8651 12.9829 38.0474C12.9275 38.1601 12.8429 38.2899 12.7949 38.3358C12.6936 38.433 12.4424 38.4755 12.3312 38.4142C12.2137 38.3495 12.1443 38.1746 12.1618 37.9873C12.1707 37.8923 12.3678 37.3147 12.6271 36.6239C12.8745 35.9646 13.5424 34.177 14.1113 32.6513C14.6802 31.1257 15.298 29.4719 15.4841 28.9763C16.0199 27.5493 16.0419 27.4882 16.0258 27.4716C16.0075 27.4528 15.5186 28.0253 15.4016 28.2025C15.3565 28.2709 15.2011 28.5883 15.0564 28.9078C14.4386 30.272 14.2658 30.5067 13.1855 31.4497C12.4308 32.1084 12.043 32.5162 11.749 32.9601C11.4669 33.3861 11.3614 33.6249 11.1926 34.2191C11.0405 34.7549 10.9519 34.9699 10.7526 35.2871C10.3535 35.9222 9.64569 36.4324 9.16372 36.4324C8.88682 36.4324 8.68598 36.2833 8.68598 36.0778C8.68598 35.9517 8.78042 35.8587 9.06474 35.705C9.38315 35.5328 9.6304 35.2508 9.84945 34.8102C10.0397 34.4274 10.1406 34.118 10.2999 33.4287C10.4693 32.6959 10.7591 32.1144 11.2346 31.5534C11.3581 31.4077 11.7389 31.0286 12.081 30.7109C12.7994 30.0437 12.9935 29.8131 13.3051 29.2564C13.5903 28.7468 13.7418 28.4202 14.01 27.7363C14.1275 27.4368 14.2851 27.0646 14.3603 26.9091C14.4776 26.6666 14.4855 26.637 14.4158 26.701C14.2226 26.8786 12.7289 28.2698 12.3809 28.5963C11.8122 29.1298 11.4946 29.4269 9.79927 31.0108C8.94793 31.8062 7.86851 32.8148 7.40057 33.2521C6.93263 33.6894 6.50306 34.0778 6.44597 34.1153C6.29062 34.2174 6.03714 34.2115 5.92514 34.1033C5.79351 33.9761 5.77646 33.8129 5.87483 33.6218C5.92335 33.5276 6.51702 32.8624 7.34681 31.9725C8.11168 31.1522 9.13856 30.0511 9.62877 29.5255C10.119 28.9999 10.8684 28.1962 11.2941 27.7395C11.7199 27.2828 12.2697 26.6945 12.516 26.4321C13.325 25.57 13.5055 25.3719 13.4815 25.3719C13.4349 25.3719 12.6498 25.7918 12.5453 25.8726C12.4866 25.918 12.2316 26.1483 11.9787 26.3843C10.9071 27.3845 10.6448 27.5382 9.16781 28.0303C7.75839 28.5 7.119 28.8995 6.47326 29.7141C6.07556 30.2158 5.91463 30.3788 5.5999 30.5988C5.14171 30.919 4.61173 31.0988 4.11754 31.1018C3.71788 31.1042 3.48317 30.9914 3.39587 30.7551C3.34805 30.6257 3.35556 30.5801 3.44165 30.4771C3.50838 30.3972 3.56036 30.379 3.80115 30.3513C4.5201 30.2685 5.05287 29.8627 5.82566 28.8093C6.61362 27.7351 7.04944 27.4381 8.77183 26.8013C9.8668 26.3965 10.2234 26.1442 11.4673 24.8939C11.8167 24.5427 12.1609 24.2102 12.2323 24.155C12.3036 24.0998 12.3558 24.0482 12.3482 24.0404C12.3359 24.0278 9.99489 24.8992 5.30372 26.6624C1.90545 27.9398 2.064 27.8849 1.85749 27.8538C1.70323 27.8305 1.54374 27.6584 1.54374 27.5153C1.54374 27.3448 1.68082 27.1677 1.89701 27.0587C2.06061 26.9763 3.7266 26.2148 6.43686 24.9835C6.85235 24.7948 8.2353 24.1665 9.51009 23.5873C10.7849 23.0081 11.8433 22.5191 11.8622 22.5007C11.9074 22.4566 11.3322 22.4975 10.9692 22.5642C10.818 22.592 10.5113 22.6861 10.2877 22.7734C8.93213 23.3027 8.37139 23.4071 7.32964 23.3241C6.32597 23.2442 5.64681 23.2371 5.23504 23.3023C4.48877 23.4203 4.32716 23.48 3.39252 23.983C2.84234 24.279 2.51169 24.3609 1.86995 24.36C1.43698 24.3594 1.36193 24.3497 1.11452 24.2626C0.963431 24.2095 0.779628 24.1232 0.706066 24.071C0.452218 23.8909 0.367867 23.5752 0.529213 23.4091C0.63269 23.3026 0.725117 23.3006 1.03652 23.3979C1.23786 23.4609 1.33357 23.4703 1.60964 23.4547C2.16195 23.4234 2.61147 23.2409 3.55538 22.6647C4.09213 22.3371 4.34223 22.2286 4.8745 22.0925C5.23252 22.001 5.24488 22.0003 6.64289 21.9976L8.05073 21.9948L8.42845 21.8952C9.00114 21.7443 9.53669 21.5553 10.1627 21.2833C10.4742 21.148 10.8527 20.9923 11.0038 20.9373C11.1549 20.8823 11.2932 20.824 11.3111 20.8077C11.329 20.7914 11.1591 20.7769 10.9334 20.7754C10.7077 20.7739 10.4999 20.7682 10.4715 20.7627C10.4432 20.7572 10.0183 20.7423 9.52726 20.7296C9.03623 20.7168 8.45678 20.6981 8.23959 20.6879C8.02241 20.6777 6.3845 20.6229 4.59979 20.5661C0.509685 20.436 0.430451 20.4324 0.266986 20.365C-0.088402 20.2187 -0.0875024 19.8105 0.268545 19.6574C0.400323 19.6007 0.692029 19.5881 6.60855 19.3827C7.43952 19.3539 8.58297 19.3141 9.14954 19.2944C9.71611 19.2746 10.311 19.2509 10.4715 19.2417C10.6321 19.2324 10.9372 19.2245 11.1497 19.2241C11.3622 19.2237 11.536 19.21 11.536 19.1937C11.536 19.152 10.7736 18.9147 10.5059 18.8731C10.3831 18.8541 9.9891 18.8299 9.63027 18.8195C8.32222 18.7814 7.92686 18.6784 6.6944 18.0546C5.73864 17.5708 5.40578 17.4439 4.76115 17.3173C4.31273 17.2292 3.92251 17.2253 3.26242 17.3022C2.85443 17.3498 2.70988 17.3529 2.44853 17.3199C1.41444 17.1891 0.513607 16.5737 0.513607 15.998C0.513607 15.8923 0.537571 15.8362 0.618213 15.7532C0.707773 15.661 0.740555 15.6485 0.846133 15.6661C0.919613 15.6784 1.03666 15.7451 1.13577 15.8311C1.36752 16.0322 1.67948 16.1723 2.03755 16.236C2.4791 16.3147 2.8115 16.3037 3.604 16.1843C4.42738 16.0603 4.7268 16.0535 5.25738 16.1469C5.74625 16.2329 6.16252 16.3793 6.9691 16.7488C8.24404 17.333 8.51198 17.3848 10.427 17.4172C11.1296 17.4291 11.6936 17.4283 11.6803 17.4154C11.667 17.4026 10.6673 16.9442 9.45858 16.3967C7.17365 15.3618 6.40406 15.0123 4.35943 14.081C3.68899 13.7757 2.8978 13.417 2.60124 13.284C1.67879 12.8703 1.58724 12.8064 1.5542 12.5529C1.52009 12.2912 1.70869 12.1323 2.01628 12.1635C2.1087 12.1729 3.20241 12.5628 4.54829 13.066C8.91273 14.698 12.4353 16.0125 12.4924 16.0305C12.5861 16.06 12.1647 15.6705 11.9016 15.4845C11.7666 15.389 11.4012 15.1954 11.0896 15.0542C9.71298 14.4303 9.47375 14.253 8.51343 13.1443C7.88622 12.4203 7.56783 12.113 7.14079 11.8194C6.66643 11.4934 6.3871 11.3637 5.81409 11.2033C4.95589 10.9632 4.39024 10.6206 3.9719 10.0875C3.67238 9.70579 3.51644 9.26929 3.58263 8.99789C3.62109 8.8402 3.77016 8.69289 3.89128 8.69289C4.04607 8.69289 4.14008 8.77381 4.25349 9.00463C4.4329 9.36983 4.82385 9.69887 5.35522 9.93188C5.67073 10.0702 5.92474 10.1469 6.69142 10.335C7.26161 10.4749 7.60597 10.6309 8.1168 10.9806C8.38959 11.1673 8.61903 11.3811 9.26711 12.0524C9.85053 12.6567 10.1506 12.9401 10.3414 13.0672C10.7261 13.3235 11.5831 13.7507 12.1369 13.9623C12.4013 14.0633 12.7874 14.2232 12.9948 14.3175L13.372 14.489L13.1643 14.2677C13.0501 14.146 12.5645 13.625 12.0851 13.11C11.6057 12.595 11.004 11.951 10.748 11.6789C10.492 11.4068 9.91183 10.7866 9.45882 10.3007C9.00581 9.81483 8.42665 9.19467 8.1718 8.92258C7.42504 8.12532 6.98147 7.65154 6.42245 7.05412C6.13374 6.74558 5.87595 6.43998 5.84957 6.37502C5.77464 6.19046 5.7895 6.05768 5.89925 5.93127C5.98109 5.83702 6.02139 5.81885 6.1482 5.819C6.23142 5.8191 6.34587 5.84412 6.40252 5.8746C6.45918 5.90507 6.78438 6.1899 7.12518 6.50753C7.46599 6.82517 8.56308 7.84756 9.56316 8.7795C10.5632 9.71145 11.6055 10.684 11.8794 10.9408C13.503 12.4633 14.6106 13.4899 14.62 13.4809C14.637 13.4647 14.3546 12.8996 14.2257 12.6921C14.1614 12.5886 13.9122 12.2944 13.6718 12.0384C12.6318 10.9307 12.4678 10.6607 12.021 9.31983C11.6581 8.23098 11.5069 7.89598 11.1362 7.36006C10.8744 6.98149 10.6918 6.79449 10.2243 6.42602C9.62971 5.95738 9.37834 5.65486 9.12955 5.10851C8.95273 4.72021 8.88317 4.40076 8.89763 4.04345C8.90726 3.80559 8.92438 3.73449 9.00054 3.61609C9.12257 3.4264 9.30644 3.33481 9.44591 3.39426C9.57006 3.44718 9.6473 3.59108 9.64785 3.77046C9.64888 4.11297 9.84524 4.55331 10.1618 4.92311C10.4242 5.22962 10.6891 5.46098 11.227 5.85337C11.7597 6.24203 11.9784 6.44788 12.254 6.82003C12.6262 7.32272 12.7363 7.54485 13.1207 8.56918C13.5136 9.6164 13.6229 9.81388 14.191 10.5043C14.4437 10.8115 15.9656 12.371 15.9656 12.3228C15.9656 12.3145 15.8407 11.9753 15.688 11.5692C15.5354 11.1631 15.2587 10.4253 15.0731 9.92968C14.8876 9.43408 14.4313 8.21761 14.0592 7.2264C13.6871 6.2352 13.3171 5.2493 13.2371 5.03551C12.4562 2.94825 12.1895 2.22442 12.1604 2.11312C12.0845 1.82251 12.2432 1.55483 12.4914 1.55483C12.7085 1.55483 12.8517 1.68777 13.015 2.0409C13.0937 2.21086 13.7915 3.7413 14.5658 5.44189C15.3401 7.14248 16.2596 9.16198 16.6092 9.92968C16.9588 10.6974 17.3049 11.4527 17.3783 11.6082L17.5118 11.8909L17.4935 11.5022C17.4702 11.0049 17.424 10.8096 17.1686 10.13C16.6359 8.71276 16.5925 8.40782 16.7077 6.89395C16.7723 6.0465 16.7572 5.51702 16.6528 4.9696C16.5529 4.4454 16.469 4.22533 16.1436 3.63354C15.8388 3.07924 15.7537 2.86127 15.6744 2.43083C15.575 1.89172 15.625 1.3518 15.8145 0.917241C16.013 0.461977 16.4489 0.28554 16.6387 0.583618C16.7014 0.682112 16.7052 0.649726 16.5676 1.18379C16.429 1.72133 16.6601 2.46509 17.2704 3.44535C17.618 4.00368 17.7605 4.31217 17.8697 4.7428C18.011 5.29964 18.0274 5.5311 18.0178 6.8377C18.0089 8.03796 18.011 8.08336 18.0886 8.37485C18.245 8.96253 18.4701 9.60217 18.723 10.177C18.8641 10.4977 19.0221 10.8838 19.074 11.0349C19.126 11.1861 19.1819 11.3182 19.1981 11.3285C19.2144 11.3389 19.2279 11.2152 19.2281 11.0537C19.2284 10.8922 19.2435 10.3626 19.2616 9.87667C19.2798 9.39079 19.3178 8.27768 19.3461 7.40309C19.3743 6.5285 19.4052 5.64596 19.4146 5.44189C19.4241 5.23782 19.4647 4.0452 19.5049 2.79162C19.5451 1.53804 19.5933 0.44974 19.6119 0.373172C19.6583 0.183028 19.8403 0 19.9829 0C20.1349 0 20.2804 0.0974416 20.3483 0.244779C20.407 0.372084 20.4274 0.687109 20.4787 2.26156C20.5601 4.75746 20.6312 6.82031 20.6527 7.31475C20.6616 7.51882 20.6929 8.48882 20.7223 9.4703C20.7518 10.4518 20.7847 11.3264 20.7956 11.4138L20.8154 11.5728L20.9294 11.2548C21.1063 10.761 21.1445 10.5112 21.1836 9.59398C21.2209 8.71788 21.2681 8.34579 21.3919 7.95081C21.4315 7.82448 21.6943 7.23612 21.9758 6.64334C22.5056 5.52807 22.5966 5.27464 22.7141 4.58712C22.7775 4.21641 22.7772 3.9437 22.7127 3.41136C22.6474 2.87267 22.648 2.57456 22.7149 2.23357C22.8543 1.52416 23.2335 0.861695 23.6409 0.616039C23.9117 0.452719 24.2777 0.510516 24.33 0.724852C24.3635 0.862384 24.325 0.957546 24.1511 1.16655C23.7146 1.69097 23.6241 2.40611 23.8289 3.71038C23.9467 4.4606 23.9529 4.643 23.8771 5.13731C23.7965 5.66282 23.6567 6.07407 23.2602 6.95158C23.065 7.38349 22.8651 7.86822 22.8158 8.02876C22.7091 8.37615 22.635 8.87764 22.6078 9.43496C22.58 10.0036 22.5712 11.6983 22.5962 11.6683C22.6138 11.6471 22.8074 11.223 23.6156 9.43496C23.6903 9.26976 24.2497 8.03739 24.8589 6.69635C25.468 5.35531 26.1093 3.94007 26.284 3.55136C26.9706 2.02365 27.108 1.74869 27.2349 1.64913C27.3943 1.52396 27.5975 1.52028 27.7329 1.64011C27.8197 1.71689 27.8292 1.7477 27.8291 1.94931C27.829 2.15803 27.7595 2.359 26.8036 4.91183C26.2396 6.41807 25.7121 7.82537 25.6314 8.03915C25.5508 8.25294 25.3962 8.66638 25.288 8.95791C25.095 9.47759 24.8033 10.258 24.2404 11.7602C24.0853 12.1742 23.9655 12.5203 23.9742 12.5292C23.9911 12.5466 24.489 11.9621 24.6093 11.7835C24.6491 11.7244 24.8119 11.3886 24.9709 11.0372C25.4154 10.0556 25.6333 9.69949 26.0609 9.25668C26.2592 9.05128 26.6068 8.72662 26.8335 8.5352C27.6928 7.80936 28.3055 7.08157 28.5836 6.45622C28.6459 6.3162 28.7525 5.99843 28.8205 5.75008C28.9557 5.25624 29.0482 5.03216 29.248 4.71427C29.647 4.07922 30.3548 3.56903 30.8368 3.56903C31.0287 3.56903 31.1803 3.63493 31.2609 3.75338C31.3888 3.9413 31.2815 4.12512 30.954 4.27905C30.7009 4.398 30.3655 4.76372 30.1886 5.11359C29.9815 5.52346 29.8949 5.77742 29.7182 6.49286C29.4158 7.71786 29.0802 8.22223 27.7398 9.46621C27.2533 9.91767 26.9623 10.2652 26.7356 10.6656C26.5029 11.0765 26.2006 11.7194 26.0386 12.1479C25.9524 12.3758 25.7982 12.7443 25.6959 12.9668C25.5519 13.2797 25.5275 13.3549 25.5879 13.299C25.8133 13.0902 28.0287 11.0235 28.1922 10.8695C30.6318 8.57154 33.4799 5.93504 33.5907 5.87207C33.7861 5.76102 33.9733 5.78396 34.1045 5.93498C34.2137 6.0608 34.2229 6.17973 34.1379 6.36826C34.1048 6.44172 33.6325 6.97824 33.0658 7.58626C32.5086 8.18395 31.4665 9.30159 30.7499 10.0699C30.0333 10.8382 29.0912 11.8485 28.6562 12.3149C28.2213 12.7814 27.6868 13.3538 27.4685 13.5871C27.2502 13.8203 26.9456 14.1459 26.7914 14.3106C26.6373 14.4753 26.5171 14.616 26.5242 14.6233C26.5502 14.6502 27.3173 14.2334 27.4847 14.1015C27.5798 14.0265 27.8198 13.8107 28.0181 13.622C28.6175 13.0513 29.0693 12.6929 29.4143 12.5143C29.6592 12.3876 30.0338 12.2445 30.8166 11.9785C32.2794 11.4817 32.876 11.1089 33.5312 10.2823C33.7279 10.0342 33.9702 9.75589 34.0696 9.66387C34.5816 9.19003 35.2604 8.90456 35.8815 8.90186C36.21 8.90044 36.3631 8.95046 36.5075 9.10648C36.6438 9.25371 36.663 9.39973 36.5621 9.52053C36.4923 9.60405 36.4431 9.62199 36.2109 9.64879C35.8826 9.68668 35.7609 9.72511 35.4594 9.88608C35.1164 10.0693 34.6522 10.5407 34.1692 11.1964C33.7424 11.7758 33.5663 11.9663 33.2021 12.2422C32.7387 12.5933 32.4164 12.7529 31.4175 13.1258C30.1506 13.5989 29.7842 13.8481 28.5847 15.0531C28.2636 15.3756 27.9182 15.7144 27.817 15.8059C27.7158 15.8974 27.642 15.9723 27.6531 15.9723C27.6731 15.9723 29.9775 15.1107 35.126 13.1782C36.5897 12.6288 37.8522 12.1688 37.9317 12.1558C38.3157 12.0932 38.5631 12.3718 38.4043 12.6879C38.3286 12.8385 38.2057 12.9067 37.1176 13.4014C36.5794 13.6461 35.5286 14.1241 34.7826 14.4638C34.0367 14.8034 33.1559 15.2039 32.8254 15.3538C32.4949 15.5037 31.6141 15.9043 30.8681 16.2441C30.1222 16.5838 29.2105 16.9985 28.8422 17.1656C28.4739 17.3328 28.1572 17.4841 28.1383 17.5019C28.0997 17.5383 28.6239 17.5071 28.9796 17.4519C29.1023 17.4329 29.3264 17.3718 29.4775 17.3163C29.6286 17.2607 29.953 17.1411 30.1986 17.0504C31.2573 16.6593 31.6584 16.606 32.8944 16.6919C34.2322 16.785 34.7344 16.7579 35.4522 16.5538C35.7607 16.4661 35.8564 16.4217 36.6041 16.02C37.147 15.7284 37.5003 15.6379 38.0962 15.6377C38.5806 15.6375 38.8238 15.6861 39.1623 15.8509C39.3921 15.9628 39.5238 16.1306 39.5468 16.3409C39.5615 16.4745 39.5512 16.5101 39.4755 16.588C39.3676 16.699 39.2785 16.7018 38.965 16.6038C38.7668 16.5418 38.6661 16.5316 38.3931 16.5458C37.8426 16.5743 37.384 16.7622 36.4029 17.361C35.905 17.665 35.5656 17.807 35.023 17.9385C34.8001 17.9925 34.5737 18.0015 33.3405 18.0049L31.9154 18.0088L31.5102 18.1212C30.9357 18.2805 30.3462 18.4922 29.7695 18.7463C29.4955 18.867 29.1246 19.0197 28.9452 19.0857C28.7658 19.1517 28.6499 19.209 28.6877 19.2132C28.7255 19.2174 29.5135 19.245 30.4389 19.2745C31.3643 19.3041 32.3146 19.3365 32.5507 19.3467C32.7868 19.3569 34.4324 19.4135 36.2077 19.4725C37.9829 19.5315 39.5151 19.5958 39.6126 19.6154C40.1303 19.7195 40.1303 20.2828 39.6126 20.3856C39.5151 20.4049 39.165 20.4301 38.8345 20.4416C38.504 20.453 37.3065 20.4931 36.1733 20.5307C35.0402 20.5683 33.8813 20.608 33.598 20.619C32.8738 20.6471 31.3875 20.6973 29.838 20.7461C29.1109 20.7689 28.5041 20.7985 28.4896 20.8118C28.4553 20.8432 29.2107 21.0884 29.4775 21.1324C29.5908 21.1511 29.8535 21.1665 30.0612 21.1667C30.5654 21.1671 31.2986 21.2254 31.6579 21.2936C32.0599 21.3699 32.4712 21.5342 33.3748 21.9791C34.2201 22.3953 34.488 22.5061 34.9028 22.6111C35.5351 22.7712 35.9279 22.791 36.6937 22.7013C37.4649 22.611 37.9966 22.6955 38.6137 23.0065C39.3226 23.3638 39.6823 23.9395 39.3865 24.2439C39.2344 24.4004 39.0778 24.3748 38.8413 24.1549C38.5496 23.8837 37.981 23.7111 37.3792 23.7111C37.2258 23.7111 36.7836 23.7588 36.3965 23.8171C35.5701 23.9416 35.2741 23.948 34.7339 23.8529C34.2278 23.7639 33.8888 23.6454 33.0777 23.2739C31.7312 22.6573 31.5163 22.6149 29.6148 22.5908C28.8972 22.5817 28.3177 22.582 28.3272 22.5914C28.3366 22.6009 28.6843 22.7629 29.0998 22.9516C29.5152 23.1402 30.1179 23.4138 30.4389 23.5596C31.4472 24.0175 36.448 26.2855 37.219 26.6346C38.3566 27.1497 38.4122 27.1866 38.4463 27.4485C38.4804 27.7103 38.2917 27.8693 37.9842 27.8377C37.8928 27.8283 36.8667 27.4639 35.6411 27.0056C34.4418 26.5571 32.155 25.7036 30.5591 25.1089C28.9633 24.5142 27.6208 24.0115 27.5759 23.9917C27.4258 23.9257 27.4623 23.9848 27.704 24.1989C28.086 24.5372 28.3275 24.6882 28.868 24.9266C30.2141 25.5202 30.5495 25.7679 31.4999 26.8699C32.1028 27.5688 32.3792 27.8392 32.7953 28.1368C33.2591 28.4686 33.5978 28.6302 34.1815 28.7984C34.7362 28.9583 35.078 29.1048 35.3848 29.3144C36.2517 29.9065 36.7071 30.9251 36.2517 31.2534C36.0693 31.3849 35.8939 31.2957 35.747 30.9968C35.479 30.4513 34.8157 30.0429 33.7869 29.7901C32.9713 29.5896 32.8145 29.5405 32.4962 29.3855C31.8789 29.085 31.5268 28.7935 30.634 27.8441C30.2614 27.4479 29.9437 27.1457 29.7533 27.0063C29.3718 26.7271 28.499 26.2843 27.788 26.0094C27.4821 25.8911 27.0958 25.7302 26.9296 25.6518L26.6274 25.5094L26.8335 25.7313C26.9468 25.8534 27.2261 26.1525 27.4542 26.3959C27.6822 26.6393 28.2691 27.2677 28.7583 27.7925C29.2475 28.3173 29.8268 28.9374 30.0455 29.1706C30.2642 29.4039 30.837 30.0161 31.3182 30.5311C31.7995 31.0462 32.6229 31.9264 33.1479 32.4873C33.6818 33.0576 34.1237 33.5593 34.1507 33.6258C34.2259 33.8109 34.2111 33.9436 34.1013 34.0701C34.0194 34.1644 33.9791 34.1826 33.8523 34.1824C33.5911 34.1821 33.914 34.4652 29.838 30.6625C29.3375 30.1956 28.8585 29.7479 28.7735 29.6676C28.6886 29.5873 28.3037 29.2279 27.9183 28.869C27.5329 28.5102 26.8067 27.8327 26.3044 27.3636C25.8022 26.8945 25.3864 26.5151 25.3805 26.5207C25.3633 26.5368 25.6467 27.1029 25.7768 27.3126C25.8422 27.4179 26.1098 27.7317 26.3714 28.0099C27.3656 29.067 27.5356 29.3493 27.9793 30.6809C28.3351 31.7485 28.4248 31.955 28.7621 32.4827C29.0557 32.9421 29.2919 33.1971 29.7745 33.5756C30.2229 33.9273 30.4643 34.1801 30.6828 34.5267C31.1168 35.2152 31.2424 36.1355 30.9487 36.4749C30.8598 36.5776 30.6969 36.6414 30.5815 36.6187C30.442 36.5913 30.3666 36.4403 30.3421 36.1398C30.3052 35.6859 29.9933 35.1703 29.4614 34.6842C29.3646 34.5958 29.054 34.3544 28.771 34.1478C28.2027 33.7329 27.8678 33.3963 27.5766 32.9475C27.336 32.5767 27.1754 32.2254 26.8514 31.3613C26.5274 30.4973 26.4088 30.2676 26.0277 29.7656C25.7812 29.441 24.0753 27.6508 24.0436 27.6835C24.0381 27.6891 24.2484 28.2645 24.5109 28.9622C25.1242 30.5927 26.8273 35.1341 27.1269 35.9377C27.2537 36.2778 27.4621 36.8343 27.59 37.1745C27.8503 37.8667 27.887 38.014 27.8414 38.1841C27.7738 38.4358 27.4888 38.5248 27.2592 38.3658C27.1156 38.2664 27.1701 38.3783 25.8523 35.4783C24.8566 33.287 24.59 32.7012 24.1416 31.7198C24.0452 31.5086 23.9663 31.3319 23.9663 31.3269C23.9663 31.322 23.8532 31.0733 23.7151 30.7743C23.577 30.4754 23.2486 29.7566 22.9854 29.177L22.5069 28.1233L22.497 28.3289C22.4768 28.7458 22.5694 29.1668 22.8421 29.8974C23.3662 31.3019 23.4115 31.6246 23.2931 33.1091C23.1839 34.478 23.315 35.3862 23.7295 36.132C23.8267 36.3069 23.965 36.5615 24.037 36.6977C24.5947 37.7538 24.4274 39.3309 23.7351 39.5432C23.5754 39.5921 23.4449 39.5483 23.3618 39.4178C23.2991 39.3193 23.2953 39.3517 23.433 38.8176C23.5699 38.2864 23.3251 37.4971 22.7315 36.5561C22.4102 36.0466 22.2347 35.6679 22.1316 35.2617C21.9895 34.7015 21.9732 34.4718 21.9828 33.1637L21.9918 31.9269L21.8784 31.5064C21.7294 30.9539 21.5379 30.4215 21.2544 29.7714C21.1272 29.4798 20.9803 29.1221 20.9278 28.9763C20.8753 28.8305 20.8218 28.6991 20.809 28.6843C20.7962 28.6695 20.7671 29.2261 20.7442 29.9211C20.6753 32.0165 20.4656 38.0945 20.4348 38.8883C20.4117 39.4843 20.394 39.6554 20.3451 39.7577C20.2376 39.9824 19.9889 40.0678 19.8105 39.9412ZM20.1242 39.6834C20.1789 39.6062 20.1912 39.4706 20.222 38.6056C20.2724 37.1914 20.3589 34.6756 20.4801 31.0965C20.5265 29.7263 20.5676 28.478 20.5713 28.3226L20.5782 28.0399L20.4008 28.0292C20.2356 28.0192 20.2235 28.0241 20.2234 28.0999C20.2234 28.1446 20.1846 29.0483 20.1373 30.1081C20.09 31.1679 20.0525 32.0743 20.0539 32.1223C20.0594 32.3021 19.9848 33.5094 19.9672 33.5276C19.957 33.538 19.9487 33.4365 19.9486 33.3021C19.9485 33.1677 19.91 31.9764 19.863 30.6548C19.816 29.3332 19.7774 28.2002 19.7773 28.137L19.7771 28.0222H19.5961H19.4152L19.4251 28.2784C19.4306 28.4193 19.4734 29.6715 19.5202 31.0612C19.8394 40.5386 19.7989 39.5868 19.8881 39.7036C19.9693 39.8098 20.0389 39.8038 20.1242 39.6834ZM23.8041 39.2592C24.1013 39.0187 24.2365 38.1034 24.0719 37.4472C23.9832 37.0938 23.9157 36.9393 23.6058 36.3794C23.1845 35.6185 23.0348 34.9912 23.0366 33.9941C23.0372 33.6735 23.053 33.2521 23.0718 33.0577C23.1173 32.5884 23.1169 31.6564 23.0712 31.3945C23.0126 31.0586 22.9128 30.7379 22.6266 29.9657C22.3323 29.1717 22.2978 29.0062 22.2606 28.2097C22.2452 27.8788 22.2265 27.7395 22.1973 27.7395C22.1746 27.7395 22.0843 27.7496 21.9966 27.762L21.8373 27.7844V27.9855C21.8373 28.3162 21.9082 28.9384 21.9777 29.218C22.0135 29.362 22.1499 29.7384 22.2808 30.0545C22.6335 30.9057 22.7644 31.413 22.7644 31.9283C22.7644 32.1752 22.6808 32.8836 22.617 33.1778C22.5811 33.3434 22.5772 33.2735 22.5875 32.6477C22.6057 31.5465 22.5492 31.2963 22.0173 30.1247C21.7426 29.5198 21.5185 28.8636 21.3867 28.2785C21.3166 27.9673 21.2954 27.9165 21.2364 27.9171C21.1507 27.918 20.911 27.9743 20.8868 27.9992C20.8627 28.024 21.0641 28.7162 21.1918 29.047C21.248 29.1927 21.3831 29.5108 21.492 29.7537C21.7129 30.2468 21.9589 30.9426 22.0918 31.4499C22.2215 31.9452 22.2491 32.3455 22.2175 33.2697C22.1641 34.8305 22.291 35.4168 22.8916 36.3826C23.3429 37.1083 23.5289 37.5207 23.6431 38.0493C23.711 38.3634 23.6946 38.8508 23.6092 39.055C23.529 39.2468 23.5369 39.33 23.6354 39.33C23.6801 39.33 23.756 39.2981 23.8041 39.2592ZM16.1888 39.224C16.3304 39.1686 16.6272 38.8402 16.7638 38.5879C17.0281 38.0997 17.1596 37.4475 17.0986 36.9271C16.9715 35.8413 16.9762 35.6678 17.1532 34.9306C17.2742 34.4266 17.3972 34.1231 17.8689 33.1637C18.0983 32.6973 18.3284 32.1833 18.3803 32.0216C18.512 31.6112 18.5725 31.1509 18.5949 30.3898C18.6235 29.4146 18.6857 29.0785 18.9738 28.3417C19.1087 27.9967 19.0983 27.9634 18.8473 27.9381L18.6902 27.9223L18.548 28.3345C18.3047 29.0399 18.2976 29.085 18.2659 30.1137C18.227 31.376 18.1669 31.6926 17.8376 32.3686C17.7119 32.6267 17.3557 33.2167 17.3256 33.2167C17.3173 33.2167 17.4019 33.0111 17.5135 32.7599C17.9545 31.7672 18.007 31.4899 17.9824 30.2838C17.9642 29.3926 17.9985 28.8351 18.1145 28.1342C18.1445 27.9528 18.1639 27.8001 18.1576 27.7949C18.1126 27.7576 17.7651 27.7162 17.7472 27.7461C17.6879 27.8447 17.6403 28.6386 17.6324 29.6571C17.6183 31.4924 17.5253 31.9536 16.918 33.1991C16.539 33.9763 16.3464 34.6457 16.318 35.2839C16.3037 35.606 16.3174 35.7726 16.3979 36.2557C16.4754 36.7216 16.4948 36.9453 16.4941 37.3688C16.4929 38.1366 16.3806 38.5411 16.0542 38.9536C15.9626 39.0693 15.8998 39.1809 15.9104 39.2091C15.9322 39.2676 16.0598 39.2745 16.1888 39.224ZM12.6602 38.1551C12.6996 38.1113 13.7203 35.897 14.9286 33.2344C16.1368 30.5718 17.2043 28.2201 17.3009 28.0084C17.3974 27.7968 17.4764 27.6198 17.4764 27.6152C17.4764 27.6002 17.29 27.527 17.2139 27.5121C17.1472 27.499 17.0442 27.7042 16.1359 29.6593C15.1834 31.7096 14.8016 32.5093 14.8509 32.351C14.863 32.3121 15.0865 31.7078 15.3475 31.0082C16.3176 28.4072 16.6777 27.4372 16.6998 27.3647C16.7192 27.3012 16.6995 27.2812 16.5651 27.2285C16.4786 27.1944 16.4032 27.1723 16.3977 27.1792C16.3921 27.1861 16.214 27.6592 16.0019 28.2305C15.7898 28.8018 15.6024 29.3027 15.5856 29.3436C15.4483 29.6772 12.3973 37.8934 12.3791 37.9786C12.3304 38.2068 12.5112 38.3203 12.6602 38.1551ZM27.6049 38.1662C27.6244 38.1286 27.6404 38.0644 27.6404 38.0235C27.6404 37.9826 26.8586 35.8626 25.9031 33.3125C24.9476 30.7624 24.0413 28.342 23.889 27.9338C23.7367 27.5257 23.6077 27.1861 23.6024 27.1792C23.5971 27.1723 23.5211 27.1948 23.4336 27.2292C23.3197 27.2739 23.2788 27.3076 23.2898 27.3478C23.2982 27.3786 23.7166 28.5315 24.2195 29.9097C24.7224 31.288 25.1284 32.4212 25.1218 32.428C25.1152 32.4348 25.0433 32.293 24.9621 32.113C24.817 31.7915 23.7252 29.3976 23.1529 28.1461C22.993 27.7963 22.8559 27.5038 22.8484 27.4961C22.8183 27.4651 22.5205 27.6081 22.5359 27.6461C22.5449 27.6683 22.8642 28.3703 23.2454 29.206C23.6266 30.0417 24.3141 31.5524 24.7733 32.563C26.9273 37.3044 27.3027 38.1136 27.3754 38.1719C27.4759 38.2525 27.5611 38.2504 27.6049 38.1662ZM30.8128 36.2584C30.9687 35.9836 30.8521 35.2633 30.5749 34.7892C30.3039 34.3256 30.1077 34.1157 29.5118 33.6515C28.7337 33.0454 28.2771 32.2933 27.7782 30.7961C27.3367 29.4712 27.1601 29.1744 26.2086 28.1587C25.6499 27.5623 25.5268 27.3843 25.2159 26.7236C25.0027 26.2706 24.9475 26.1966 24.9059 26.3081C24.895 26.3372 24.8753 26.354 24.862 26.3456C24.8487 26.3371 24.7956 26.3651 24.7438 26.4076L24.6498 26.485L24.826 26.8561C25.1255 27.487 25.3335 27.7735 25.9422 28.3932C26.7239 29.1892 26.9561 29.5325 27.1913 30.2394C27.3093 30.5939 27.4482 31.2001 27.4185 31.2307C27.4083 31.2411 27.4 31.2299 27.4 31.2057C27.4 31.133 27.1048 30.3792 26.9566 30.0735C26.6837 29.5108 26.4565 29.2366 25.5524 28.3787C25.1181 27.9667 24.8242 27.6289 24.4422 27.103C24.223 26.8012 24.1633 26.7577 24.1029 26.8561C24.085 26.8852 24.0701 26.8963 24.0698 26.8806C24.069 26.8367 23.8633 26.972 23.8633 27.0164C23.8633 27.103 24.3555 27.6595 25.1279 28.4462C26.3589 29.7001 26.6063 30.0627 27.0593 31.2772C27.3718 32.1152 27.5827 32.5653 27.8273 32.9164C28.1219 33.3391 28.3277 33.5402 28.8766 33.9417C29.3674 34.3009 29.8569 34.7166 29.9153 34.824C29.9318 34.8543 29.9621 34.8683 29.9828 34.8552C30.0035 34.842 30.0106 34.8474 29.9987 34.8674C29.9867 34.8872 30.0084 34.9327 30.0469 34.9685C30.1604 35.0743 30.4159 35.5203 30.4902 35.7426C30.5281 35.856 30.5593 36.0138 30.5596 36.0934C30.5598 36.1729 30.5688 36.2716 30.5795 36.3126C30.6097 36.4283 30.7326 36.3998 30.8128 36.2584ZM9.48397 36.1315C9.92636 35.9487 10.4324 35.4528 10.6916 34.9482C10.7565 34.8219 10.8815 34.4721 10.9694 34.1708C11.0573 33.8696 11.1905 33.4951 11.2654 33.3387C11.5515 32.7414 12.1068 32.0843 12.9095 31.3931C14.0365 30.4228 14.1438 30.2847 14.7464 29.0293C15.2365 28.0082 15.3372 27.8534 15.8877 27.2756L16.1446 27.006L15.9888 26.8957C15.9031 26.835 15.8198 26.7854 15.8036 26.7854C15.764 26.7854 15.2949 27.3159 15.1005 27.5805C14.8804 27.8801 14.7665 28.1004 14.4918 28.7575C14.3594 29.0745 14.1771 29.4625 14.0867 29.6198C13.8102 30.1014 13.2451 30.6611 12.652 31.0409L12.446 31.1728L12.7207 30.9164C13.5694 30.1241 13.85 29.7165 14.2146 28.7466C14.5547 27.8417 14.7135 27.5091 15.128 26.8343C15.3445 26.4816 15.3805 26.4068 15.3132 26.4497C15.2943 26.4617 15.2788 26.4563 15.2788 26.4376C15.2788 26.4019 15.0571 26.2553 15.003 26.2553C14.9157 26.2553 14.4884 27.1203 14.1748 27.9319C13.8558 28.7572 13.4111 29.5999 13.0642 30.0362C12.8576 30.296 12.7349 30.4201 12.2228 30.8871C11.4554 31.5869 11.0026 32.1522 10.7498 32.7258C10.6943 32.8519 10.5718 33.2644 10.4778 33.6425C10.3837 34.0205 10.2484 34.4718 10.1771 34.6452C9.92991 35.2471 9.54916 35.7203 9.15098 35.9208C8.90157 36.0464 8.86687 36.0922 8.96669 36.1642C9.07739 36.244 9.23612 36.2339 9.48397 36.1315ZM6.33824 33.9134C6.37842 33.8898 7.14233 33.1867 8.03581 32.351C8.92929 31.5152 10.3566 30.181 11.2077 29.386C12.0587 28.5909 12.9253 27.7799 13.1335 27.5838C13.3416 27.3876 13.7933 26.9651 14.1371 26.645L14.7623 26.0628L14.6533 25.9471C14.5933 25.8834 14.5308 25.8313 14.5143 25.8313C14.4978 25.8313 14.1338 26.1539 13.7055 26.5481C13.2771 26.9424 12.4245 27.7241 11.8107 28.2851C11.1969 28.8462 10.633 29.3625 10.5574 29.4323L10.4201 29.5593L10.5401 29.418C10.6061 29.3403 10.8459 29.0779 11.0731 28.8349C11.3003 28.592 11.8177 28.0354 12.2228 27.5981C12.6279 27.1609 13.145 26.6043 13.3718 26.3614C13.5986 26.1184 13.8771 25.8194 13.9907 25.6968L14.1972 25.4739L14.085 25.3699C14.0234 25.3127 13.9608 25.2659 13.9459 25.2659C13.9135 25.2659 13.3805 25.8283 11.5851 27.7572C10.4768 28.9478 6.73431 32.9658 6.35985 33.367C6.0654 33.6825 6.03953 33.7213 6.05411 33.8264C6.06286 33.8895 6.07144 33.9451 6.07317 33.95C6.08269 33.9767 6.27586 33.95 6.33824 33.9134ZM33.9518 33.8306C33.9656 33.685 34.0087 33.7343 31.9361 31.5205C30.9809 30.5002 29.8056 29.244 29.3244 28.7289C28.3484 27.6844 26.9436 26.1826 26.4245 25.6289C26.2373 25.4293 26.0663 25.2659 26.0446 25.2659C26.0228 25.2659 25.9621 25.312 25.9097 25.3683L25.8144 25.4707L25.9462 25.6239C26.0775 25.7765 28.0548 27.945 28.5842 28.5169C29.5496 29.56 29.6634 29.7015 29.1511 29.222C27.8054 27.9623 25.5651 25.8784 25.5254 25.8493C25.49 25.8234 25.4466 25.8462 25.3577 25.9377L25.2378 26.061L26.2405 26.9974C26.792 27.5125 27.7459 28.4025 28.3603 28.9752C28.9748 29.548 29.8097 30.3267 30.2157 30.7056C30.6218 31.0846 31.178 31.6037 31.4519 31.8592C31.7257 32.1146 32.2434 32.5988 32.6022 32.9351C33.6493 33.9164 33.7075 33.9645 33.8329 33.952C33.9266 33.9426 33.9428 33.926 33.9518 33.8306ZM36.1852 30.976C36.316 30.6997 35.9382 30.0329 35.4179 29.6217C35.0773 29.3526 34.7062 29.1792 34.1137 29.0123C33.5156 28.8438 33.235 28.7132 32.7419 28.3739C32.2914 28.0639 31.9611 27.7444 31.2704 26.9505C30.3975 25.9473 30.1519 25.7637 28.939 25.2076C28.5483 25.0285 28.1852 24.8537 28.132 24.8191C27.9355 24.6915 27.6148 24.4293 27.3104 24.1474L26.9976 23.8577L26.8881 24.0176C26.8278 24.1056 26.7832 24.189 26.7888 24.2031C26.8068 24.2477 27.2724 24.6697 27.4681 24.8188C27.8128 25.0814 28.0803 25.2283 28.6095 25.4456C29.7946 25.9321 30.2854 26.2923 30.8696 27.1041C31.2017 27.5656 31.1814 27.5611 30.7018 27.067C29.9751 26.3183 29.6933 26.1404 28.5504 25.7086C27.8604 25.448 27.4051 25.2278 26.8615 24.8918C26.6599 24.7672 26.4843 24.6652 26.4713 24.6652C26.4347 24.6652 26.2669 24.9398 26.2669 24.9997C26.2669 25.0751 27.2353 25.5614 27.8464 25.7929C28.433 26.0152 29.3981 26.4914 29.7865 26.7502C29.9845 26.8822 30.2673 27.1461 30.7995 27.6958C31.6581 28.5826 31.8201 28.7273 32.2498 28.9911C32.6815 29.256 32.9086 29.345 33.5215 29.4893C34.4784 29.7147 35.0209 29.9417 35.4697 30.3046C35.6976 30.4888 35.8 30.614 35.915 30.8491C36.0526 31.1304 36.1013 31.1533 36.1852 30.976ZM4.60889 30.8159C5.20895 30.658 5.70166 30.3152 6.1613 29.7359C6.69041 29.0691 6.97436 28.8164 7.63868 28.4208C7.96886 28.2242 8.33632 28.0739 9.20218 27.7813C10.5861 27.3135 10.8477 27.1553 11.8966 26.1523C12.3549 25.7139 12.6901 25.4892 13.3302 25.1913C13.5521 25.088 13.7336 24.9906 13.7336 24.9749C13.7336 24.9592 13.6937 24.8843 13.6449 24.8084C13.537 24.6406 13.5349 24.6409 13.0531 24.8776C12.4549 25.1715 12.213 25.3479 11.662 25.8921C10.7103 26.8319 10.3164 27.0678 9.25256 27.3351C9.0637 27.3826 8.886 27.4207 8.85767 27.4199C8.82934 27.4191 9.02249 27.3342 9.28689 27.2311C9.85035 27.0116 10.2711 26.7992 10.5379 26.6C10.643 26.5214 11.0458 26.1358 11.433 25.743C12.148 25.0177 12.3862 24.8065 12.9112 24.4326C13.0726 24.3176 13.2059 24.2076 13.2074 24.1881C13.2108 24.1426 13.0174 23.8524 12.9836 23.8524C12.9077 23.8524 12.1245 24.5492 11.5377 25.1388C10.4625 26.2191 9.93284 26.6003 9.02936 26.944C8.79329 27.0338 8.43017 27.172 8.22242 27.251C7.564 27.5015 7.04776 27.8016 6.64488 28.1682C6.4261 28.3672 6.03873 28.8707 6.06618 28.9204C6.07781 28.9414 6.07536 28.9475 6.06074 28.934C6.04611 28.9204 5.96261 29.0079 5.87518 29.1283C5.6446 29.446 5.16439 29.9505 4.92498 30.1266C4.53654 30.4123 4.16245 30.5646 3.84437 30.5666C3.6827 30.5676 3.61809 30.5937 3.62002 30.6573C3.62141 30.703 3.69912 30.7858 3.79286 30.8415C3.89951 30.9049 4.32111 30.8917 4.60889 30.8159ZM21.0132 27.8251C21.1926 27.7985 21.4044 27.7683 21.4838 27.7579C21.7218 27.7269 22.3978 27.5375 22.7555 27.4016C23.1531 27.2507 23.8534 26.9104 24.0656 26.7651C24.1486 26.7082 24.2764 26.621 24.3496 26.5712C24.4228 26.5214 24.4747 26.4697 24.4649 26.4563C24.455 26.443 24.4566 26.4393 24.4684 26.4482C24.5074 26.4776 24.7472 26.3303 24.8235 26.2301C24.8647 26.176 24.8863 26.1555 24.8715 26.1847C24.7674 26.3892 25.9287 25.2475 26.2087 24.87C26.5228 24.4466 26.8484 23.9479 26.8304 23.9179C26.8204 23.9013 26.8296 23.8878 26.8509 23.8878C26.8991 23.8878 27.321 22.9868 27.4677 22.5705C27.9952 21.073 28.0331 19.2271 27.567 17.7391C27.4491 17.363 27.2251 16.785 27.1971 16.785C27.1828 16.785 27.1711 16.7634 27.1711 16.7369C27.1711 16.6741 26.9391 16.2121 26.8028 16.0034C26.7441 15.9136 26.588 15.6753 26.4558 15.4738C26.1918 15.0716 25.4898 14.3 25.0763 13.9577C24.4239 13.4176 23.5263 12.8924 22.7555 12.5998C21.2843 12.0412 19.5261 11.956 17.9743 12.3682C17.5073 12.4922 16.9957 12.6806 16.9957 12.7284C16.9957 12.7481 16.9732 12.7553 16.9457 12.7444C16.89 12.7224 15.9836 13.1767 15.8362 13.3004C15.7846 13.3437 15.6342 13.4483 15.502 13.5328C15.1246 13.7739 14.881 13.9769 14.4421 14.4161C14.0284 14.8301 13.7252 15.1901 13.5481 15.4776C13.4942 15.565 13.3919 15.7161 13.3207 15.8133C12.9665 16.297 12.5281 17.3174 12.3262 18.1278C11.9523 19.6292 12.0587 21.3421 12.6159 22.7923C12.7837 23.229 13.1541 23.9638 13.3196 24.1881C13.3912 24.2853 13.5252 24.4837 13.6172 24.629C13.8001 24.918 14.5319 25.7148 14.8953 26.0207C15.223 26.2966 15.9621 26.7942 16.3433 26.9955C17.7639 27.746 19.4836 28.0515 21.0132 27.8251ZM18.8001 26.0433C18.8489 25.6545 19.1477 25.2443 19.4869 25.1008C19.5708 25.0653 19.6395 25.0248 19.6396 25.0108C19.6397 24.9969 19.6654 24.9956 19.6969 25.008C19.7353 25.0232 19.7459 25.017 19.7292 24.9892C19.7155 24.9665 19.6473 24.9472 19.5776 24.9463C19.2929 24.9428 19.0135 24.7732 18.7629 24.4516C18.5938 24.2347 18.4268 24.1398 18.1089 24.0799C18.0349 24.066 17.9369 24.0402 17.8912 24.0227C17.8084 23.9911 17.8087 23.9904 17.9427 23.8976C18.0167 23.8464 18.2196 23.6727 18.3934 23.5118C18.8246 23.1126 18.9982 23.0226 19.3307 23.026C19.5103 23.0278 19.6481 23.0525 19.7861 23.1075L19.984 23.1865L20.2153 23.105C20.5286 22.9946 20.8645 22.9965 21.0942 23.11C21.1859 23.1553 21.4099 23.3298 21.592 23.4977C21.7742 23.6656 21.9838 23.8453 22.0579 23.897L22.1925 23.9909L22.0985 24.0277C22.0468 24.0479 21.984 24.0645 21.9589 24.0645C21.9338 24.0645 21.8122 24.0966 21.6887 24.1358C21.5145 24.1912 21.4347 24.2406 21.3331 24.3559C20.9577 24.782 20.7932 24.8974 20.5069 24.9356C20.3331 24.9588 20.1888 25.0154 20.2982 25.0175C20.3879 25.0191 20.8128 25.2585 20.8667 25.3376C20.8932 25.3766 20.9297 25.399 20.9477 25.3876C20.9658 25.3761 20.9768 25.3798 20.9722 25.3958C20.9676 25.4118 21.0122 25.5283 21.0714 25.6546C21.1306 25.7809 21.1881 25.9559 21.1993 26.0433L21.2195 26.2023L21.1381 26.001C20.971 25.5878 20.6574 25.3261 20.2172 25.2327C19.9792 25.1821 19.6721 25.2299 19.4327 25.3548C19.2227 25.4643 18.9413 25.7851 18.8517 26.0171L18.7802 26.2023L18.8001 26.0433ZM20.463 24.6768C20.5664 24.6492 20.6978 24.5873 20.7549 24.5392C21.015 24.3204 21.3392 24.0998 21.454 24.0635C21.5232 24.0416 21.603 24.0151 21.6313 24.0046C21.6596 23.9941 21.7755 23.9868 21.8888 23.9883C22.0021 23.9899 22.0717 23.9816 22.0434 23.9698C22.015 23.958 21.9494 23.9177 21.8974 23.8803C21.8455 23.8429 21.803 23.821 21.803 23.8316C21.803 23.8422 21.739 23.7794 21.6608 23.6921C21.492 23.5037 21.1161 23.3026 20.834 23.2499C20.6538 23.2162 20.6116 23.2222 20.3201 23.3227L20.0025 23.4322L19.6824 23.323C19.3824 23.2206 19.3491 23.2162 19.1514 23.2531C18.8699 23.3056 18.5953 23.4535 18.3301 23.6953C18.21 23.8048 18.0653 23.9162 18.0087 23.9427C17.9094 23.9892 17.9138 23.9909 18.1289 23.9877C18.315 23.985 18.3321 23.9802 18.2319 23.9584C18.1658 23.9441 18.1271 23.9305 18.146 23.9281C18.1649 23.9257 18.431 23.8808 18.7375 23.8283C19.2928 23.7332 19.2952 23.7331 19.4929 23.7977C19.7899 23.8946 20.0987 23.9072 20.3436 23.8324C20.6029 23.7531 20.8357 23.7516 21.2708 23.8263C21.8932 23.9331 21.903 23.9407 21.418 23.9414C21.0342 23.9419 20.9037 23.9574 20.5965 24.0386C20.1328 24.1612 19.8645 24.1626 19.4164 24.045C18.9834 23.9313 18.3692 23.8856 18.3692 23.9671C18.3692 24.0005 18.413 24.0297 18.4833 24.0433C18.6159 24.0689 18.8515 24.2163 19.1216 24.4428C19.3389 24.6249 19.3991 24.6533 19.7084 24.7191C19.9465 24.7698 20.1599 24.7578 20.463 24.6768ZM18.4204 22.3024C18.041 22.125 17.9031 21.6431 18.1533 21.369C18.265 21.2466 18.4303 21.1662 18.5656 21.1684C18.659 21.1699 18.6582 21.1715 18.5309 21.2407C18.4043 21.3094 18.2666 21.489 18.2663 21.5855C18.266 21.6909 18.3846 21.8799 18.4842 21.9329C18.722 22.0595 18.9834 21.9691 19.0904 21.7233L19.1494 21.5877L19.1925 21.6949C19.2465 21.8289 19.4598 22.03 19.6304 22.1076C19.8308 22.1988 20.2029 22.1904 20.4033 22.0903C20.5754 22.0043 20.841 21.7258 20.8423 21.6301C20.8427 21.5988 20.8714 21.6375 20.9061 21.716C21.0167 21.9666 21.2362 22.0574 21.472 21.95C21.5768 21.9024 21.6363 21.8457 21.6791 21.753C21.7792 21.5358 21.7036 21.3672 21.4424 21.2255L21.3394 21.1697L21.435 21.1682C21.5703 21.1662 21.7356 21.2467 21.8472 21.369C22.0227 21.5612 22.0139 21.8909 21.8273 22.1096C21.6252 22.3465 21.3473 22.4206 21.0647 22.3128C20.9892 22.284 20.9119 22.2569 20.893 22.2525C20.8742 22.2482 20.8478 22.2289 20.8345 22.2098C20.8189 22.1874 20.7698 22.1916 20.6971 22.2216C20.2421 22.4092 19.7514 22.4161 19.3598 22.2403C19.2395 22.1863 19.2252 22.1878 19.0106 22.2761C18.7478 22.3843 18.6089 22.3905 18.4204 22.3024ZM19.0388 21.2351C18.9821 21.1978 18.9115 21.1671 18.8819 21.167C18.8466 21.1669 18.8802 21.1091 18.9796 20.9993C19.1629 20.7967 19.405 20.2975 19.5068 19.9124C19.566 19.6884 19.5817 19.5306 19.5822 19.1526C19.5829 18.7258 19.5729 18.644 19.4877 18.3752C19.2882 17.746 19.1482 17.5732 18.6152 17.2979C18.0931 17.0283 17.6787 16.9382 17.1224 16.9735C16.4134 17.0185 15.7351 17.2929 14.8845 17.8787C14.5339 18.1202 14.5342 18.1202 14.6629 17.9356C14.8997 17.5959 15.3627 17.2061 15.8111 16.9688C16.2957 16.7124 16.7056 16.6084 17.2316 16.6084C17.9423 16.6084 18.5353 16.8088 19.2529 17.2914C19.4597 17.4305 19.4699 17.4445 19.5525 17.7021C19.8089 18.5024 19.8084 19.5111 19.5511 20.3601C19.4508 20.6911 19.1975 21.3095 19.1638 21.3056C19.1517 21.3042 19.0955 21.2724 19.0388 21.2351ZM20.6689 20.9661C20.493 20.5535 20.3462 20.0422 20.2901 19.6476C20.2314 19.2345 20.2666 18.4065 20.3592 18.0218C20.4838 17.504 20.5131 17.4492 20.7496 17.2895C21.2683 16.9392 21.7714 16.7236 22.2586 16.6427C22.6233 16.5822 23.2569 16.616 23.5869 16.7136C24.1032 16.8663 24.7511 17.2731 25.1238 17.6786C25.2217 17.7852 25.3104 17.8663 25.3208 17.8588C25.3312 17.8513 25.3325 17.8553 25.3236 17.8677C25.3147 17.88 25.3402 17.9375 25.3803 17.9954L25.4531 18.1007L25.3811 18.061C25.3415 18.0392 25.204 17.9473 25.0755 17.8567C24.947 17.7662 24.8226 17.6921 24.799 17.6921C24.7753 17.692 24.756 17.6799 24.756 17.6651C24.756 17.6262 24.2909 17.3676 23.9961 17.2425C23.5185 17.0398 23.2411 16.9834 22.7129 16.9814C22.311 16.9799 22.1878 16.9928 21.9616 17.0602C21.4205 17.2213 20.8992 17.5369 20.7544 17.7912C20.4111 18.3941 20.3163 19.1748 20.4969 19.9124C20.5875 20.2822 20.8338 20.7925 21.0223 21.0008C21.1209 21.1098 21.154 21.1669 21.1186 21.167C21.089 21.167 21.0141 21.1988 20.9523 21.2376C20.8905 21.2764 20.8342 21.3082 20.8273 21.3082C20.8203 21.3082 20.7491 21.1542 20.6689 20.9661ZM16.6008 19.8362C16.1654 19.7406 15.6408 19.4874 15.3647 19.2394C15.247 19.1338 15.2504 19.1347 15.6931 19.3257C16.497 19.6727 17.1783 19.7527 17.734 19.5654C17.8851 19.5145 18.1477 19.3905 18.3177 19.2899C18.7259 19.0482 18.8488 18.996 18.8957 19.0442C18.9218 19.0711 18.8931 19.124 18.7968 19.2268C18.5113 19.5313 18.0594 19.7814 17.656 19.8581C17.3875 19.9092 16.8861 19.8988 16.6008 19.8362ZM22.1807 19.8098C21.8229 19.697 21.7586 19.6671 21.5354 19.5097C21.2891 19.336 21.0663 19.1011 21.098 19.0484C21.1323 18.9913 21.2214 19.0273 21.6373 19.266C22.1743 19.5743 22.4508 19.6586 22.919 19.6569C23.3602 19.6552 23.7398 19.5646 24.2925 19.3291C24.7506 19.1339 24.7544 19.133 24.6359 19.2399C24.0377 19.7798 22.9136 20.0407 22.1807 19.8098ZM16.5859 19.3806C16.2001 19.3109 15.7562 19.1501 15.5498 19.0053C15.4575 18.9406 15.3819 18.877 15.3819 18.864C15.3817 18.8088 15.798 18.5056 16.0514 18.3763C16.4284 18.184 16.7294 18.1164 17.1159 18.1375C17.6084 18.1643 17.9938 18.3393 18.4084 18.7244L18.6131 18.9145L18.5341 19.0017C18.2404 19.3258 17.2972 19.5092 16.5859 19.3806ZM17.7395 19.2527C18.0136 19.1367 18.2185 18.9924 18.2517 18.8919C18.268 18.8425 18.2352 18.7908 18.124 18.6905C17.9737 18.5551 17.6675 18.37 17.5147 18.3223C17.4368 18.298 17.4382 18.3037 17.5444 18.4397C17.7513 18.7046 17.7212 19.0445 17.4704 19.2777C17.311 19.4259 17.3356 19.4236 17.7395 19.2527ZM16.5494 19.1603C16.3927 18.9422 16.4189 18.6225 16.6113 18.4033C16.729 18.2692 16.7319 18.2607 16.6523 18.2851C16.3423 18.3799 15.861 18.7103 15.8763 18.8177C15.8874 18.8953 15.9192 18.9197 16.2403 19.0966C16.5835 19.2857 16.6493 19.2993 16.5494 19.1603ZM22.3648 19.3831C21.9419 19.3042 21.6145 19.1652 21.4664 19.0017L21.3874 18.9145L21.5921 18.7244C22.0131 18.3333 22.3923 18.1633 22.9018 18.137C23.2959 18.1168 23.5503 18.1751 23.9491 18.3772C24.202 18.5054 24.6188 18.8084 24.6186 18.864C24.6185 18.9227 24.2565 19.1324 23.9958 19.2247C23.4496 19.4182 22.8594 19.4755 22.3648 19.3831ZM22.5028 19.2423C22.2719 18.9942 22.2556 18.6964 22.4588 18.4362C22.5632 18.3026 22.5643 18.2978 22.4858 18.3223C22.334 18.3697 22.0273 18.5536 21.8759 18.688C21.6961 18.8476 21.7021 18.9188 21.9072 19.0651C22.0211 19.1463 22.5638 19.3974 22.6298 19.3994C22.6407 19.3997 22.5836 19.329 22.5028 19.2423ZM23.7181 19.1213C24.0542 18.9474 24.1489 18.8698 24.1199 18.7921C24.0701 18.6583 23.6399 18.376 23.3482 18.2855C23.2687 18.2608 23.2717 18.2694 23.3892 18.4033C23.5817 18.6225 23.6078 18.9422 23.4511 19.1603C23.3571 19.2912 23.4027 19.2845 23.7181 19.1213ZM14.9161 18.8662C14.8474 18.7519 15.3272 18.2721 15.7185 18.0637C16.1107 17.8547 16.4059 17.7711 16.831 17.7487C17.4571 17.7156 17.7204 17.799 18.2543 18.1992C18.666 18.5078 18.7477 18.5528 18.9496 18.5824C19.077 18.6011 19.1095 18.6204 19.1182 18.6825C19.1252 18.7334 19.0998 18.7791 19.043 18.8173C18.9627 18.8715 18.9477 18.8707 18.8092 18.8057C18.7277 18.7675 18.522 18.6157 18.352 18.4684C17.7863 17.9783 17.4235 17.8559 16.7378 17.9236C16.1238 17.9843 15.6613 18.2136 15.3008 18.6361C15.1218 18.8459 14.9615 18.9418 14.9161 18.8662ZM24.9792 18.8783C24.9415 18.8702 24.8024 18.7478 24.6702 18.6064C24.3764 18.292 24.1702 18.1539 23.8117 18.0316C23.5637 17.947 23.4854 17.9377 23.0048 17.9357C22.4732 17.9335 22.4723 17.9336 22.2469 18.0472C22.1227 18.1097 21.851 18.302 21.6431 18.4745C21.2094 18.8344 21.0786 18.899 20.9539 18.8149C20.9003 18.7787 20.8754 18.7327 20.8823 18.6825C20.891 18.6199 20.9236 18.601 21.0571 18.5815C21.2439 18.5541 21.4015 18.4659 21.7687 18.183C22.2146 17.8395 22.4986 17.7391 23.0251 17.7391C23.6973 17.7391 24.3235 17.9836 24.7831 18.4256C25.0909 18.7215 25.1772 18.9208 24.9792 18.8783ZM3.81003 26.9822C4.72599 26.638 7.08804 25.7525 9.05905 25.0145C11.03 24.2765 12.6868 23.6535 12.7407 23.63L12.8387 23.5874L12.7728 23.4372C12.7365 23.3546 12.6937 23.287 12.6777 23.287C12.6617 23.287 11.5148 23.7003 10.129 24.2055C8.74326 24.7106 7.60425 25.1186 7.59786 25.112C7.59148 25.1054 8.67969 24.6024 10.0161 23.9941C11.3525 23.3858 12.4645 22.8783 12.4871 22.8664C12.5175 22.8503 12.5112 22.8057 12.463 22.6948C12.4271 22.6124 12.3828 22.545 12.3645 22.545C12.3462 22.545 10.9664 23.1665 9.29822 23.9262C7.63004 24.6859 5.678 25.5748 4.96034 25.9016C4.24268 26.2285 3.31575 26.6501 2.90049 26.8386C1.92237 27.2827 1.83993 27.3272 1.79166 27.4362C1.76514 27.4961 1.76349 27.5275 1.78687 27.5275C1.80646 27.5275 1.81376 27.542 1.80308 27.5598C1.77354 27.609 1.85481 27.6329 2.0073 27.6199C2.08284 27.6135 2.89407 27.3265 3.81003 26.9822ZM38.1968 27.578C38.3441 27.4264 38.2138 27.335 37.1793 26.8645C34.9394 25.8456 34.0357 25.4353 32.8254 24.8875C32.1172 24.5669 31.1437 24.1255 30.6621 23.9065C27.9469 22.6719 27.636 22.5354 27.6066 22.5657C27.5894 22.5834 27.5524 22.6545 27.5243 22.7236L27.4734 22.8492L28.9046 23.5147C31.6922 24.8109 32.3804 25.1349 32.3694 25.1462C32.3594 25.1565 31.51 24.843 28.3669 23.6687C27.7889 23.4528 27.3119 23.293 27.2956 23.3098C27.2795 23.3264 27.2427 23.3983 27.2138 23.4694C27.1616 23.598 27.1619 23.599 27.2549 23.6333C27.463 23.7099 29.9326 24.633 33.7525 26.0619C35.9716 26.892 37.8258 27.5838 37.873 27.5993C38.0137 27.6453 38.1394 27.6371 38.1968 27.578ZM2.31634 24.116C2.6317 24.0828 3.05741 23.919 3.58683 23.6271C4.16001 23.3111 4.43477 23.2123 5.02902 23.109C5.53346 23.0212 6.18378 23.0091 6.9691 23.0726C7.63402 23.1265 8.35612 23.12 8.67427 23.0574C9.01861 22.9896 9.49172 22.838 10.1242 22.5927C10.7513 22.3495 10.9763 22.3021 11.6219 22.2767C11.9051 22.2656 12.1601 22.2474 12.1884 22.2361C12.2168 22.2249 12.2487 22.2173 12.2595 22.2192C12.2702 22.2211 12.2634 22.1339 12.2443 22.0254L12.2095 21.8282L11.7482 21.852C11.0559 21.8877 10.7071 21.9707 9.95653 22.2781C9.59809 22.4249 9.15399 22.5864 8.96965 22.6371C8.5194 22.7608 7.92647 22.7867 7.38115 22.7065C6.69742 22.6058 6.70965 22.5922 7.48416 22.5912C8.51842 22.5899 8.68214 22.5506 9.88989 22.0134C10.5794 21.7067 11.0698 21.54 11.754 21.3799L12.0921 21.3008L12.0688 21.1409C12.0385 20.933 12.0189 20.8841 11.9654 20.8841C11.8002 20.8841 10.9274 21.1905 10.2945 21.4707C9.67806 21.7436 9.22472 21.9079 8.61731 22.0785L8.15375 22.2087L6.76307 22.2117C5.45443 22.2146 5.35264 22.2195 5.03752 22.2935C4.38312 22.4472 4.25178 22.5062 3.36034 23.0461C2.40064 23.6274 1.55736 23.8243 0.94836 23.6094C0.663367 23.5088 0.600337 23.5382 0.698478 23.7257C0.803046 23.9255 1.15461 24.0868 1.59017 24.1346C1.83146 24.1611 1.90475 24.1593 2.31634 24.116ZM39.2472 24.0451C39.3441 23.7827 38.8759 23.3269 38.2674 23.0912C37.7375 22.886 37.3333 22.8563 36.429 22.9564C35.9307 23.0116 35.8686 23.0116 35.5019 22.9568C34.6859 22.8349 34.3347 22.7122 33.1735 22.143C32.7648 21.9428 32.3455 21.7446 32.2417 21.7027C31.7475 21.5034 31.2922 21.4364 30.0612 21.3818C29.3876 21.3519 29.3141 21.3418 28.9452 21.2287C28.728 21.1621 28.4237 21.0588 28.2689 20.999L27.9874 20.8904L27.9479 21.0862C27.9157 21.2455 27.917 21.2876 27.9547 21.3118C28.0519 21.3743 28.8373 21.6224 29.0998 21.6735C29.2732 21.7074 29.6846 21.7341 30.2157 21.7461C30.6784 21.7566 31.1595 21.7813 31.2848 21.801C31.7938 21.881 32.4513 22.1615 33.0223 22.5424C33.169 22.6402 33.2799 22.7205 33.2689 22.7209C33.2578 22.7213 33.1419 22.6683 33.0113 22.603C32.6772 22.4361 32.209 22.2477 31.8468 22.1345C31.5393 22.0384 31.5308 22.0378 30.1471 22.013C29.1229 21.9946 28.6614 21.9726 28.3958 21.9296C28.1975 21.8974 27.9792 21.865 27.9107 21.8575L27.7861 21.8439L27.7476 22.0413C27.7264 22.1499 27.7133 22.2431 27.7185 22.2484C27.7717 22.3032 28.4119 22.3441 29.5977 22.3685C31.6931 22.4117 31.7606 22.4255 33.3061 23.1279C33.6177 23.2696 33.9986 23.4261 34.1525 23.4759C34.8589 23.7042 35.5085 23.7441 36.2592 23.6051C36.638 23.535 36.8389 23.5191 37.358 23.5182C37.9178 23.5172 38.0251 23.5265 38.2619 23.597C38.5936 23.6957 38.7267 23.7647 38.9864 23.9724C39.0983 24.0619 39.1953 24.1351 39.2019 24.1351C39.2085 24.1351 39.2289 24.0946 39.2472 24.0451ZM11.9824 20.415V20.2285L9.19246 20.1107C7.658 20.046 6.39609 19.9867 6.38822 19.9792C6.38035 19.9716 6.40353 19.9658 6.43972 19.9663C6.63797 19.9692 11.9035 19.7802 11.9395 19.769C11.966 19.7607 11.9824 19.691 11.9825 19.5866L11.9826 19.4176L11.6992 19.4277C11.5433 19.4333 8.94835 19.5247 5.93253 19.631C2.91671 19.7372 0.412857 19.8383 0.368406 19.8557C0.158648 19.9378 0.177214 20.1119 0.402569 20.1761C0.473263 20.1962 2.26372 20.2689 4.39377 20.3381C8.30047 20.465 11.9094 20.5885 11.9567 20.5969C11.9708 20.5994 11.9824 20.5175 11.9824 20.415ZM34.1646 20.3741C38.168 20.2361 39.5968 20.1759 39.6653 20.1424C39.8258 20.0639 39.8263 19.9364 39.6663 19.8613C39.5476 19.8057 39.4605 19.8014 36.3622 19.6985C33.2832 19.5963 28.6639 19.4411 28.2887 19.4272L28.027 19.4175L28.0311 19.5943L28.0353 19.771L30.1127 19.8641C31.2553 19.9154 32.4959 19.9691 32.8696 19.9835C33.2433 19.998 33.5438 20.0152 33.5374 20.0219C33.5259 20.0337 30.4017 20.1511 28.8165 20.1993L28.0181 20.2236V20.4042V20.5849L28.3872 20.5727C28.5903 20.566 31.1901 20.4766 34.1646 20.3741ZM12.0662 18.8476L12.0901 18.7017L11.7873 18.588C11.0979 18.3293 10.9197 18.2991 9.8878 18.2671C8.84431 18.2347 8.50794 18.189 8.06325 18.0193C7.90528 17.959 7.74899 17.9076 7.71594 17.9052C7.68289 17.9027 7.65585 17.8904 7.65585 17.8778C7.65585 17.8653 7.55928 17.8024 7.44124 17.7381C7.19559 17.6043 6.79741 17.3514 6.79741 17.3291C6.79741 17.3137 6.81202 17.3198 7.33058 17.5549C7.71877 17.7309 8.23359 17.9018 8.519 17.9495C8.63917 17.9696 9.2275 17.9861 9.8264 17.9862C10.7303 17.9865 11.0074 17.999 11.4574 18.0598C11.7556 18.1002 12.0479 18.1385 12.107 18.1451C12.2122 18.1568 12.2153 18.1529 12.253 17.9599C12.2741 17.8514 12.2866 17.7578 12.2808 17.7517C12.2298 17.6992 11.5724 17.6581 10.4029 17.6344C8.47522 17.5951 8.17576 17.543 7.11665 17.0626C5.90793 16.5143 5.5736 16.4034 4.89166 16.3248C4.53055 16.2832 4.48121 16.2862 3.76873 16.3918C2.97729 16.5092 2.42975 16.5321 2.02447 16.4647C1.72552 16.415 1.36167 16.2819 1.19211 16.1601C1.11596 16.1054 1.02486 16.0449 0.989658 16.0258C0.954458 16.0066 0.925659 15.9793 0.925659 15.9652C0.925659 15.951 0.894608 15.9223 0.856658 15.9014C0.797779 15.869 0.782705 15.8769 0.753871 15.9549C0.704586 16.0883 0.779339 16.2402 0.998126 16.4511C1.23603 16.6804 1.48593 16.8254 1.87066 16.9574C2.30096 17.1051 2.66181 17.1389 3.19195 17.0815C4.05049 16.9885 4.12316 16.9867 4.52438 17.0474C5.3038 17.1653 5.71744 17.3085 6.6944 17.7988C8.08004 18.4943 8.28979 18.5474 9.93931 18.6205C10.7231 18.6552 10.9628 18.7055 11.6905 18.9876C12.035 19.1211 12.0206 19.1264 12.0662 18.8476ZM28.5675 18.9699C28.7658 18.9085 29.1135 18.7802 29.3401 18.6847C29.5667 18.5893 29.9376 18.4335 30.1642 18.3385C30.6506 18.1346 31.5636 17.8584 31.9305 17.8042C32.1001 17.7791 32.5464 17.7735 33.2174 17.7878C34.3384 17.8118 34.6522 17.7894 35.2119 17.6455C35.6144 17.5419 35.926 17.3933 36.5883 16.9889C37.3678 16.513 37.9233 16.3184 38.5083 16.3163C38.7768 16.3153 38.8962 16.3317 39.056 16.3915C39.2321 16.4575 39.2669 16.4612 39.3089 16.418C39.3508 16.3749 39.3487 16.3525 39.2934 16.2551C39.1616 16.0226 38.6699 15.8604 38.0962 15.86C37.4986 15.8596 37.1483 15.9684 36.3854 16.3914C35.8943 16.6636 35.6698 16.7489 35.166 16.8545C34.6778 16.9569 34.1191 16.9942 33.598 16.9591C33.3525 16.9426 32.8194 16.9186 32.4133 16.9057C31.5138 16.8773 31.2691 16.9133 30.4915 17.1885C29.9294 17.3874 29.2381 17.6304 29.1513 17.6596C29.0736 17.6857 28.9734 17.6941 28.4302 17.7195C28.1563 17.7323 27.8847 17.7501 27.8266 17.7591L27.7209 17.7754L27.7551 17.9693L27.7892 18.1632H28.003C28.3315 18.1632 28.8976 18.0969 29.2064 18.0222C29.3595 17.9852 29.761 17.8409 30.0986 17.7015C30.4363 17.5622 30.8596 17.4088 31.0393 17.3606C31.5989 17.2108 32.2857 17.2127 33.0626 17.3664C33.2739 17.4082 33.2389 17.4111 32.5335 17.4107C31.4844 17.41 31.3334 17.446 30.1092 17.9875C29.3391 18.3282 28.7673 18.5148 27.9887 18.6794C27.9134 18.6953 27.9094 18.7078 27.9314 18.8584C27.9443 18.9474 27.9637 19.0437 27.9743 19.0722C27.998 19.1358 28.0749 19.1225 28.5675 18.9699ZM12.4615 17.3283C12.5002 17.2383 12.5318 17.1611 12.5318 17.1566C12.5318 17.1438 11.9025 16.8625 11.8451 16.8496C11.8167 16.8432 11.7858 16.8282 11.7764 16.8161C11.7597 16.7946 7.90535 14.9943 7.64584 14.8867C7.57424 14.857 7.52202 14.8261 7.52981 14.8181C7.53759 14.8101 7.58073 14.8195 7.62566 14.839C7.79381 14.9121 12.6633 16.7144 12.6925 16.7144C12.7093 16.7144 12.7484 16.644 12.7794 16.5579L12.8357 16.4014L12.7439 16.3676C12.6535 16.3344 11.6402 15.9556 5.87029 13.7985C1.60451 12.2037 1.91516 12.3088 1.80372 12.4235C1.64237 12.5895 1.77061 12.6641 3.79286 13.5804C5.2637 14.2468 12.3552 17.4722 12.3843 17.488C12.3881 17.4901 12.4229 17.4182 12.4615 17.3283ZM32.2245 15.3815C34.1697 14.496 36.2456 13.5514 36.8376 13.2825C37.4296 13.0135 37.9767 12.7574 38.0533 12.7132C38.3163 12.5616 38.2821 12.356 37.9985 12.3833C37.9184 12.3911 35.6825 13.211 33.0299 14.2054C30.3773 15.1998 27.9686 16.1026 27.6772 16.2116C27.3858 16.3206 27.1657 16.4161 27.1881 16.4237C27.2105 16.4314 27.2208 16.4511 27.211 16.4674C27.1859 16.5091 27.2627 16.6715 27.3177 16.6932C27.3529 16.7071 31.1927 15.3343 32.2037 14.9464C32.7288 14.745 32.2028 14.9976 30.1217 15.9464C28.8609 16.5213 27.7488 17.0286 27.6505 17.0738L27.4718 17.1561L27.5413 17.3192L27.6108 17.4823L28.1493 17.2369C28.4454 17.1019 30.2793 16.267 32.2245 15.3815ZM13.126 15.9658C13.1769 15.8942 13.2186 15.8273 13.2186 15.8171C13.2186 15.787 12.8951 15.4843 12.6262 15.2628C12.258 14.9595 11.9777 14.7988 11.3923 14.5557C10.2338 14.0744 9.77898 13.7558 9.25385 13.0575C8.80857 12.4653 8.82082 12.445 9.3169 12.9529C10.0379 13.6912 10.2883 13.848 11.4558 14.2929C12.1401 14.5537 12.5754 14.7649 13.1308 15.1057C13.3375 15.2325 13.5161 15.3362 13.5277 15.3362C13.5392 15.3362 13.5997 15.2618 13.6621 15.1707C13.7707 15.0121 13.7728 15.0031 13.7116 14.9548C13.5605 14.8353 12.608 14.3826 12.1026 14.19C11.516 13.9665 10.5297 13.4727 10.1625 13.2186C10.0397 13.1337 9.6689 12.7878 9.3384 12.45C8.32397 11.4132 8.19015 11.289 7.85749 11.0762C7.39048 10.7773 7.09372 10.6572 6.43027 10.4984C5.49598 10.2748 5.01495 10.0775 4.57547 9.73747C4.33235 9.54937 4.20113 9.39036 4.0727 9.12826C3.95948 8.89719 3.91918 8.87172 3.83536 8.97825C3.62268 9.24854 4.10016 10.0548 4.73243 10.493C5.04624 10.7105 5.30375 10.8209 5.88746 10.9882C6.82071 11.2556 7.37784 11.6109 8.19303 12.4585C8.47904 12.7559 8.71855 13.0149 8.72527 13.034C8.73199 13.0532 8.87356 13.2208 9.03987 13.4065C9.61213 14.0457 10.0256 14.3268 11.124 14.8234C11.4545 14.9728 11.8021 15.1436 11.8966 15.203C12.0958 15.3283 12.4536 15.6252 12.7722 15.9294C12.8949 16.0467 13.0039 16.1321 13.0144 16.1193C13.0249 16.1065 13.0751 16.0374 13.126 15.9658ZM27.0869 16.0871C27.1054 16.0531 27.1332 16.0282 27.1487 16.0317C27.2152 16.0469 27.7723 15.5549 28.3615 14.9608C29.01 14.307 29.246 14.0916 29.7007 13.7391C30.1424 13.3966 30.4695 13.2382 31.6083 12.8157C32.7824 12.3802 33.3187 11.9918 33.9451 11.1233C34.7562 9.99862 35.4891 9.43899 36.1562 9.43484C36.4298 9.43314 36.4713 9.32573 36.2517 9.18794C36.014 9.03875 35.3829 9.12725 34.8781 9.38057C34.5033 9.56863 34.1806 9.83727 33.8789 10.2124C33.3835 10.8283 33.2494 10.9707 32.9718 11.1759C32.3701 11.6204 31.9121 11.8482 31.0398 12.1366C29.4783 12.6529 29.2141 12.8047 28.1676 13.7866C27.9194 14.0195 27.6644 14.2497 27.6011 14.2981C27.4474 14.4154 26.9386 14.6925 26.5673 14.8611C26.4021 14.9361 26.2669 15.0105 26.2669 15.0263C26.2669 15.0765 26.4463 15.3362 26.4809 15.3362C26.5487 15.3362 27.3657 14.9156 27.5971 14.7616C27.7289 14.6738 28.0668 14.3756 28.348 14.0989C29.0848 13.374 29.4121 13.1337 29.9799 12.9006C30.2287 12.7984 31.0303 12.5783 31.142 12.5814C31.1708 12.5822 30.978 12.6672 30.7136 12.7703C30.1493 12.9902 29.7289 13.2024 29.4627 13.4017C29.3575 13.4805 28.947 13.8738 28.5504 14.2758C27.8668 14.9686 27.5717 15.227 27.0089 15.626C26.8746 15.7212 26.7706 15.8103 26.7776 15.8239C26.8331 15.9307 26.9973 16.149 27.0223 16.149C27.0393 16.149 27.0684 16.1212 27.0869 16.0871ZM14.0865 14.6308L14.1954 14.5262L14.1083 14.4276C14.0055 14.3113 12.9135 13.1169 12.5158 12.686C11.2463 11.31 10.5003 10.4892 10.5107 10.4797C10.5175 10.4735 11.1875 11.0885 11.9996 11.8464C14.1141 13.82 14.494 14.1701 14.5206 14.1701C14.5336 14.1701 14.5937 14.1176 14.6542 14.0534L14.7641 13.9367L14.3261 13.5297C14.0852 13.3058 13.5482 12.8053 13.1327 12.4176C11.4046 10.8047 10.7539 10.1979 9.2367 8.78393C8.35924 7.96616 7.39523 7.0665 7.09447 6.78469C6.79371 6.50288 6.48577 6.22063 6.41015 6.15746C6.17241 5.95886 5.95868 6.03214 6.05907 6.27784C6.08391 6.33864 6.34132 6.64072 6.63109 6.94911C7.39706 7.76431 8.95303 9.4273 12.7515 13.4904C13.3916 14.1752 13.9294 14.7355 13.9466 14.7355C13.9637 14.7355 14.0267 14.6884 14.0865 14.6308ZM27.6764 13.0305C28.5501 12.0927 29.4518 11.1265 29.6802 10.8833C29.9086 10.6402 30.2736 10.2506 30.4912 10.0176C30.7087 9.7846 31.2341 9.22243 31.6586 8.76832C32.0832 8.31421 32.4614 7.90212 32.4992 7.85257C32.537 7.80302 32.6044 7.72932 32.6489 7.68879C32.6935 7.64827 33.0064 7.3169 33.3443 6.95243C33.8558 6.40061 33.9585 6.27233 33.9585 6.18561C33.9585 6.06592 33.8873 6.01083 33.7639 6.0351C33.6889 6.04986 32.5585 7.07073 31.9856 7.64115C31.8731 7.75316 31.7753 7.8448 31.7682 7.8448C31.7611 7.8448 31.5286 8.05709 31.2516 8.31657C29.8718 9.60899 28.5565 10.8394 26.9779 12.3143L25.2387 13.9392L25.3475 14.0546C25.4073 14.1181 25.4695 14.1701 25.4858 14.1701C25.502 14.1701 25.866 13.8475 26.2946 13.4533C28.5793 11.3515 29.5988 10.4281 29.4615 10.585C29.3772 10.6813 28.6192 11.4995 27.7771 12.4033C26.935 13.307 26.1475 14.1564 26.0271 14.2909L25.8081 14.5354L25.9246 14.6354C25.9887 14.6905 26.0517 14.7355 26.0646 14.7355C26.0774 14.7355 26.8028 13.9682 27.6764 13.0305ZM15.1935 13.6397L15.3437 13.5333L15.2909 13.4012C15.1636 13.0825 14.8766 12.5642 14.6768 12.2921C14.5575 12.1297 14.3002 11.8442 14.1049 11.6576C13.2725 10.8624 12.9252 10.2975 12.6912 9.35803C12.5513 8.79643 12.5548 8.71832 12.7019 9.11693C12.7773 9.321 12.9395 9.69469 13.0625 9.94735C13.3115 10.4589 13.5674 10.7953 14.0301 11.2195C14.5876 11.7306 14.9543 12.116 15.284 12.5377C15.471 12.7768 15.6583 13.027 15.7003 13.0938C15.7424 13.1605 15.7877 13.2153 15.8011 13.2156C15.8452 13.2164 16.1373 13.0228 16.1373 12.9927C16.1373 12.9032 15.7235 12.4307 14.9867 11.6789C14.06 10.7333 13.5869 10.1593 13.3449 9.68705C13.2556 9.51271 13.0609 9.04571 12.9122 8.64927C12.7636 8.25283 12.5802 7.80231 12.5048 7.64811C12.3443 7.31992 12.0427 6.87403 11.8162 6.63004C11.6078 6.40556 11.1251 6.03824 11.0762 6.06692C11.0553 6.07922 11.0494 6.07642 11.0633 6.06069C11.0771 6.04496 10.9844 5.95654 10.8572 5.86419C10.3769 5.51533 9.92734 5.05139 9.70564 4.67581C9.53631 4.38896 9.47393 4.20392 9.44229 3.89457C9.4278 3.75294 9.40739 3.62825 9.39693 3.61749C9.35437 3.57368 9.23099 3.65171 9.17624 3.75706C9.08643 3.92984 9.10343 4.36529 9.21375 4.71748C9.39231 5.28752 9.73905 5.75657 10.317 6.20992C10.8084 6.59534 11.081 6.8743 11.3276 7.24407C11.7404 7.86321 11.8235 8.04556 12.2135 9.1876C12.6916 10.5881 12.8269 10.8147 13.8077 11.8576C14.3367 12.42 14.4669 12.6091 14.7856 13.2779C14.9083 13.5354 15.0165 13.7461 15.026 13.7461C15.0355 13.7461 15.1109 13.6982 15.1935 13.6397ZM25.1275 13.5782C25.3048 13.292 25.5995 12.6574 25.8208 12.0852C26.1644 11.1972 26.589 10.3966 26.9627 9.93215C27.0716 9.79683 27.3189 9.53823 27.5122 9.35749C27.7054 9.17673 27.8594 9.01568 27.8542 8.99959C27.849 8.98349 27.8598 8.97991 27.8782 8.99162C27.944 9.03349 28.6938 8.21795 28.9288 7.84893C29.2413 7.35809 29.332 7.13283 29.5088 6.40833C29.7277 5.51169 29.8709 5.14299 30.1668 4.7133C30.3521 4.44441 30.6131 4.19996 30.8259 4.09616C30.9152 4.05257 31.0147 3.98908 31.047 3.95507C31.1008 3.8983 31.1011 3.88936 31.0502 3.84598C31.019 3.81935 30.9184 3.79968 30.8199 3.80092C30.4791 3.80521 29.9636 4.14241 29.6116 4.59131C29.3456 4.93053 29.2073 5.22546 29.0304 5.8306C28.9424 6.13184 28.8262 6.47373 28.7722 6.59034C28.6547 6.84398 28.3931 7.25413 28.166 7.5405C28.0752 7.65495 27.9855 7.77421 27.9666 7.80553C27.9477 7.83685 27.9091 7.87714 27.8808 7.89507C27.8524 7.913 27.7288 8.02546 27.6061 8.14498C27.4833 8.2645 27.1477 8.56488 26.8603 8.81247C25.9287 9.61509 25.774 9.8308 25.1218 11.2371C24.8009 11.9291 24.6739 12.1212 24.194 12.6393L23.8609 12.999L24.0178 13.11C24.1041 13.1711 24.188 13.216 24.2043 13.2097C24.2552 13.1902 24.7718 12.6028 24.9213 12.3945C25.119 12.1192 25.2664 11.8314 25.5052 11.2548C25.8355 10.4573 26.0055 10.1656 26.3678 9.77532C26.615 9.50901 27.028 9.1648 27.3485 8.95784L27.5546 8.82482L27.2799 9.08307C26.3647 9.94341 26.1961 10.2008 25.6789 11.5273C25.3785 12.2976 25.1547 12.7376 24.7094 13.4336L24.6493 13.5275L24.7971 13.6352C24.8784 13.6944 24.9626 13.7436 24.9842 13.7445C25.0059 13.7454 25.0703 13.6705 25.1275 13.5782ZM16.5765 12.7685C16.6827 12.7267 16.7216 12.6935 16.7106 12.6537C16.7021 12.6228 16.2839 11.4698 15.7813 10.0913C15.2786 8.71289 14.8726 7.57967 14.879 7.57308C14.8854 7.56649 15.0154 7.83562 15.1678 8.17116C16.1827 10.4054 17.1359 12.4886 17.1496 12.5028C17.1813 12.5354 17.4808 12.3953 17.4648 12.3553C17.4559 12.3331 17.2095 11.7902 16.9173 11.1488C14.8436 6.59805 13.4962 3.63945 13.1596 2.89763C12.9436 2.42146 12.7359 1.98017 12.698 1.91697C12.5716 1.7061 12.3601 1.73916 12.3601 1.96978C12.3601 2.04042 13.138 4.13686 15.4841 10.3891C15.7065 10.9818 16.0024 11.7728 16.1416 12.1467C16.2809 12.5207 16.402 12.8268 16.4108 12.827C16.4196 12.8272 16.4942 12.8008 16.5765 12.7685ZM25.604 7.46456C26.7031 4.51545 27.6113 2.06887 27.6222 2.02771C27.6546 1.90623 27.5854 1.76685 27.4927 1.76685C27.3678 1.76685 27.289 1.88379 27.0285 2.45592C25.9977 4.71996 25.4416 5.95809 25.4342 6.00505C25.4295 6.03543 25.4146 6.06879 25.4012 6.07918C25.3878 6.08958 24.8644 7.22655 24.2382 8.60577C23.6119 9.98501 22.9701 11.3983 22.8118 11.7463C22.6536 12.0944 22.5241 12.3833 22.5241 12.3883C22.5241 12.4097 22.8362 12.5179 22.8518 12.5018C22.8766 12.4763 24.966 7.97739 24.9732 7.93407C24.9765 7.91412 24.9887 7.88986 25.0003 7.88014C25.0118 7.87042 25.0552 7.79886 25.0967 7.72112C25.2056 7.51702 25.2987 7.25924 24.1272 10.4067C23.9101 10.9898 23.6464 11.6964 23.5411 11.977C23.4358 12.2576 23.3563 12.494 23.3644 12.5024C23.3726 12.5108 23.3568 12.5408 23.3294 12.569C23.2487 12.6521 23.2712 12.7082 23.4083 12.7661C23.4791 12.796 23.5525 12.8218 23.5714 12.8235C23.5903 12.8252 24.5049 10.4137 25.604 7.46456ZM22.2548 12.2708C22.2577 12.2562 22.2653 12.2045 22.2716 12.1559C22.2778 12.1073 22.2995 11.9722 22.3197 11.8555C22.3404 11.7359 22.3557 11.2046 22.3548 10.6364C22.3523 9.15616 22.4455 8.32666 22.6837 7.70945C22.7338 7.57982 22.9094 7.17883 23.0741 6.81836C23.6903 5.46929 23.7907 4.87677 23.5992 3.72037C23.5271 3.2852 23.5068 3.04619 23.5068 2.6326C23.5068 1.86625 23.6192 1.46115 23.9463 1.04786C24.0379 0.9321 24.1007 0.820548 24.0901 0.792265C24.0687 0.734856 23.8783 0.723732 23.8457 0.777989C23.8339 0.797742 23.8124 0.806435 23.7981 0.797307C23.7089 0.740563 23.2801 1.27878 23.1226 1.64523C22.8937 2.17799 22.8509 2.59532 22.9418 3.41001C23.0237 4.14378 23.0065 4.41774 22.8344 5.12337C22.7164 5.60768 22.5827 5.93922 22.2003 6.69635C21.519 8.04507 21.4518 8.30251 21.3929 9.78833C21.3575 10.6793 21.327 10.8422 21.0588 11.5676C20.9401 11.8884 20.9135 11.9948 20.9467 12.0159C20.9938 12.0459 21.2881 12.0979 21.3037 12.079C21.3337 12.0426 21.5702 11.3443 21.6322 11.109C21.6933 10.8771 21.7104 10.675 21.735 9.89434C21.7749 8.62406 21.8351 8.30583 22.1629 7.63278C22.2923 7.36711 22.6451 6.78469 22.6767 6.78469C22.686 6.78469 22.6228 6.93973 22.5363 7.12923C22.3073 7.63109 22.1255 8.14102 22.0619 8.46008C22.0165 8.68782 22.0072 8.94667 22.0119 9.85589C22.0172 10.8575 22.0097 11.0265 21.9396 11.5022C21.8259 12.2731 21.8179 12.2021 22.0228 12.2491C22.2521 12.3018 22.2485 12.3015 22.2548 12.2708ZM18.1217 12.2266C18.1665 12.2266 18.1705 12.1662 18.1508 11.7869C18.1087 10.976 18.0595 10.7843 17.602 9.64988C17.3215 8.95438 17.2553 8.64452 17.2579 8.03915C17.2598 7.60106 17.3042 7.19971 17.3998 6.75644C17.4136 6.69231 17.4249 7.01829 17.4249 7.48084C17.4249 8.05401 17.4396 8.38937 17.4709 8.53387C17.5296 8.80495 17.6919 9.22852 18.026 9.98268C18.3224 10.6517 18.4196 10.9353 18.5837 11.6095C18.7068 12.1154 18.6764 12.0786 18.953 12.0559C19.1307 12.0412 19.1361 12.0158 19.0363 11.6578C18.9202 11.2416 18.7731 10.8458 18.5297 10.2947C18.2985 9.77108 18.124 9.29681 17.9729 8.78123C17.7688 8.08453 17.7406 7.78049 17.7813 6.71402C17.816 5.80564 17.7887 5.37626 17.663 4.85883C17.5556 4.4162 17.428 4.13696 17.0577 3.53369C16.7288 2.9979 16.6336 2.81273 16.5039 2.45592C16.2971 1.8873 16.252 1.36656 16.3776 0.998611C16.4689 0.731499 16.4666 0.671402 16.3651 0.671402C16.0867 0.671402 15.8614 1.21669 15.859 1.89633C15.8571 2.43832 15.9539 2.7954 16.2533 3.35117C16.7242 4.22504 16.7846 4.3884 16.9131 5.13705C16.9774 5.5121 16.9839 6.30175 16.9279 6.94371C16.873 7.57235 16.8806 8.35138 16.9447 8.67988C17.0145 9.03733 17.0905 9.2776 17.3735 10.0357C17.5004 10.3758 17.6221 10.7336 17.6437 10.8308C17.6989 11.0779 17.7498 11.6238 17.7505 11.9752L17.7511 12.2715L17.9105 12.2491C17.9981 12.2367 18.0931 12.2266 18.1217 12.2266ZM19.7767 11.9351C19.7747 11.6916 19.9905 6.94858 20.0126 6.74936L20.042 6.48433L20.0473 6.73169C20.0501 6.86773 20.0908 8.0524 20.1376 9.36429C20.1844 10.6762 20.2229 11.802 20.2231 11.8662L20.2235 11.9829L20.4006 11.9722L20.5777 11.9616L20.5713 11.6612C20.5677 11.496 20.5347 10.4783 20.4977 9.39963C20.4608 8.32097 20.3993 6.51613 20.3609 5.38888C20.2001 0.662512 20.1889 0.411308 20.1339 0.324966C20.0586 0.206703 19.9876 0.19171 19.905 0.276681C19.8084 0.376091 19.805 0.441097 19.639 5.35355C19.4272 11.6205 19.4201 11.8566 19.4437 11.9198C19.4711 11.9932 19.7773 12.0072 19.7767 11.9351Z" fill="#787878"/>
</g>
<defs>
<clipPath id="clip0_0_853">
<rect width="40" height="40" fill="white"/>
</clipPath>
</defs>
</svg>
